<svg xmlns="http://www.w3.org/2000/svg" id="i" width="684" height="249.5"><defs><clipPath id="j"><path d="M467.81 70.63h45.84v6.85h-45.84z" style="fill:#f9cba5;stroke-width:0;opacity:.8" transform="rotate(-180 490.73 74.055)"/></clipPath><clipPath id="k"><rect width="32.58" height="54.69" x="473.93" y="82.42" rx="1.2" ry="1.2" style="fill:#f9cba5;stroke-width:0" transform="rotate(-180 490.225 109.765)"/></clipPath><clipPath id="l"><rect width="30.2" height="73.69" x="333.66" y="21.61" class="s" rx="1.07" ry="1.07" transform="rotate(-180 348.765 58.45)"/></clipPath><style>.s{fill:#f7d39f}.aa,.s,.t,.u,.v,.w,.x,.z{stroke-width:0}.t{fill:#fff;opacity:.2}.u{fill:#716869}.v{fill:#16677b}.w{fill:#d64949}.x{fill:#ffca48}.z{fill:#e86d1a}.aa{fill:#f2614e}</style></defs><path d="M467.81 70.63h45.84v6.85h-45.84z" style="fill:#f9cba5;opacity:.8" transform="rotate(-180 490.73 74.055)"/><path d="m491.34 72.25.32 6.63 20.61-.43.28-3.32zm-23.11-.38.32 6.63 20.61-.43.28-3.32z" class="t" style="clip-path:url(#j)"/><path d="M514.73 79.94h-2.62V69.45h.49c1.18 0 2.13.95 2.13 2.13zm-22.86.01h-2.62V69.44h2.62zm-23.12 0h-2.62v-8.38c0-1.18.95-2.13 2.13-2.13h.49zm11.4 0h-2.62V69.44h2.62zm23.11 0h-2.62V69.44h2.62z" class="z"/><path d="M466.31 75.07h48.45v66.13c0 1.66-1.34 3-3 3h-42.45c-1.66 0-3-1.34-3-3z" style="stroke-width:0;fill:#ef8e4b" transform="rotate(-180 490.54 109.635)"/><path d="M473.45 79.21h33.59c1.66 0 3 1.34 3 3v54.86c0 1.66-1.34 3-3 3h-33.59c-1.66 0-3-1.34-3-3V82.21c0-1.66 1.34-3 3-3" class="z"/><rect width="32.58" height="54.69" x="473.93" y="82.42" rx="1.2" ry="1.2" style="fill:#f9cba5" transform="rotate(-180 490.225 109.765)"/><g style="clip-path:url(#k)"><path d="M508.49 82.28H472.5v-.69h35.99z" class="u"/><path d="M508.49 110.1H472.5v-.69h35.99zm0 27.75H472.5v-.69h35.99zm0 27.88H472.5v-.69h35.99z" class="z"/><path d="M506.57 54.86H483.4v-.69h23.17zm1.11-27.84h-23.17v-.69h23.17z" class="u"/><path d="M490.68 193.21h-.69V74.59h.69z" class="z"/><path d="m480.98 144.05 10.9 8.64c.37.38 10.71 9.12 10.18 7.41l18.6.95-46.89-48.42-.51 29.37c.53 1.71 7.35 1.68 7.72 2.06Zm-8.28-39.51 45.03 45.45c.36.37.59.47.5.24l-5.32-14.57-46.34-46.78 5.32 14.57c.09.23.45.72.81 1.09" class="t"/></g><rect width="54.95" height="6" x="462.9" y="144.01" class="z" rx="3" ry="3"/><rect width="64.95" height="6" x="457.5" y="147.04" class="z" rx="3" ry="3"/><path d="M344.21 25.22v-21c0-1.23 1.07-2.22 2.38-2.22s2.38 1 2.38 2.22v20.99m9.85.26V4.48c0-1.23 1.07-2.22 2.38-2.22s2.38 1 2.38 2.22v20.99" class="aa"/><path d="M367.34 13.86h1.8c1.26 0 2.28 1.17 2.28 2.62v104.97c0 1.45-1.02 2.62-2.28 2.62h-40.99c-1.26 0-2.28-1.17-2.28-2.62V16.48c0-1.45 1.02-2.62 2.28-2.62h39.2Z" class="aa"/><path d="M357.47 123.2h-14.62v-18.48h14.62z" class="s"/><path d="M357.45 105.15h2.06v19.61h-2.06zm-16.67-.44h2.06v19.61h-2.06zm-1.48-.95h21.72c.6 0 1.08-.49 1.08-1.08v-1.01h-23.89v1.01c0 .6.49 1.08 1.08 1.08Z" class="w"/><path d="M340.5 105.66h19.35c.6 0 1.08-.49 1.08-1.08v-1.01h-21.52v1.01c0 .6.49 1.08 1.08 1.08Zm20.51 19.3h-21.72c-.6 0-1.08.49-1.08 1.08v1.01h23.89v-1.01c0-.6-.49-1.08-1.08-1.08Z" class="w"/><path d="M359.81 123.28h-19.35c-.6 0-1.08.49-1.08 1.08v1.01h21.52v-1.01c0-.6-.49-1.08-1.08-1.08Z" class="w"/><rect width="36.78" height="79.88" x="330.23" y="18.43" class="w" rx="2.69" ry="2.69"/><rect width="30.2" height="73.69" x="333.66" y="21.61" rx="1.07" ry="1.07" style="fill:#f7d39f" transform="rotate(-180 348.765 58.45)"/><g style="clip-path:url(#l)"><path d="M349.29 109.63h-.64V-78.9h.64z" class="w"/><path d="M365.69 21.21h-33.37v-.62h33.37zm0 24.86h-33.37v-.62h33.37zm0 24.98h-33.37v-.62h33.37z" class="w"/><path d="m336.91 97.14 10.11 7.74c.34.34 9.93 8.17 9.44 6.63l17.24.85-43.46-43.37-.48 26.31c.49 1.53 6.81 1.5 7.15 1.84m-7.67-35.39 41.74 40.71c.34.33.55.42.47.22l-4.93-13.06-42.96-41.9 4.93 13.06c.08.21.42.65.75.97" class="t"/></g><rect width="746.62" height="36.54" x="-108.78" y="178.31" class="v" rx="18.27" ry="18.27"/><path d="M-55.92 122.44h474.94c16.44 0 29.79 13.35 29.79 29.79 0 .23-.19.42-.42.42H-85.29c-.23 0-.42-.19-.42-.42 0-16.44 13.35-29.79 29.79-29.79" class="v"/><path d="M6.41 96.29h289.38c16.67 0 30.21 13.53 30.21 30.21H-23.79c0-16.67 13.53-30.21 30.21-30.21ZM460.88 245h-505.6c-16.67 0-30.21-13.53-30.21-30.21h566.02c0 16.67-13.53 30.21-30.21 30.21m-471.41-95.98H523.5c16.44 0 29.79 13.35 29.79 29.79 0 .23-.19.42-.42.42H-39.9c-.23 0-.42-.19-.42-.42 0-16.44 13.35-29.79 29.79-29.79" class="v"/><path d="M374.17 138.83h12.45v1.48h-12.45z" class="x"/><path d="m376.629 144.598 6.225-10.782 1.282.74-6.225 10.782z" class="x"/><path d="m377.921 133.822 6.225 10.782-1.282.74-6.225-10.782zM428.35 81.01h12.45v1.48h-12.45z" class="x"/><path d="m430.8 86.785 6.225-10.782 1.282.74-6.225 10.782z" class="x"/><path d="m432.08 75.995 6.225 10.782-1.282.74-6.225-10.782zm141.89 54.415h12.45v1.48h-12.45z" class="x"/><path d="m576.427 136.176 6.225-10.782 1.282.74-6.225 10.782z" class="x"/><path d="m577.713 125.404 6.225 10.782-1.282.74-6.225-10.782z" class="x"/></svg>