<svg xmlns="http://www.w3.org/2000/svg" id="d" width="739" height="517"><defs><clipPath id="e"><path d="M674.46 106.96c-17.83-3.46-84.42-15.33-160.23-4.01-40.57 6.06-68.89 16.43-84.7 23.22 13.1 9.15 19.99 19.92 18.7 31.59 21.39 1.58 58.33 2.84 100.9-3.39 79.59-11.64 116.53-40.08 125.54-47.57" style="fill:#ecf6f4;stroke-width:0"/></clipPath><style>.p,.q,.r,.v,.w,.x{stroke-width:0}.p{fill:#f7cf9a}.q{fill:#5db9c8}.r{fill:#33708e}.v{fill:#eef7f7}.w{fill:#ed5151}.x{fill:#ffdfb0}</style></defs><path d="M311.17 396.48-.08 223.89 428.4 3.74l309.74 112.83z" style="stroke-width:0;fill:#308d96"/><path d="M31.46 241.38-.08 223.89 428.4 3.74l32.1 11.69z" class="w"/><path d="M297.77 238.14c8.7-5.79 18.55-9.21 27.9-9.04 11.25.2 19.53 5.57 23.44 13.93 14.38.67 24.8 3.82 27.6 9.26 2.2 4.28-.65 9.32-7.28 14.34 9.49 9.21 11.14 18.39 2.4 24.29-8.42 5.69-24.53 7.02-42.67 4.47-9.57 7.4-20.95 11.91-31.72 11.66-12.27-.28-20.85-6.66-24.22-16.25-15.39-.63-26.25-4.03-28.58-9.89-2.16-5.43 3.44-11.93 14.13-18.01-5.82-7.85-5.44-15.2 2.39-20.05 7.72-4.79 21.23-6.24 36.62-4.7ZM314.9 133.81c7.93-4.92 16.96-7.84 25.56-7.74 10.36.12 18.03 4.61 21.71 11.63 13.22.5 22.83 3.11 25.44 7.66 2.05 3.58-.52 7.83-6.57 12.07 8.79 7.68 10.37 15.36 2.41 20.33-7.67 4.79-22.41 5.98-39.06 3.93-8.68 6.23-19.06 10.04-28.92 9.89-11.24-.18-19.19-5.47-22.42-13.47-14.12-.45-24.14-3.25-26.37-8.15-2.07-4.54 2.97-10.02 12.7-15.17-5.47-6.57-5.23-12.75 1.89-16.87 7.03-4.07 19.44-5.35 33.63-4.12Z" class="v"/><path d="M435.8 127.18c-4.85-4.21-12.66-7.58-21.92-9.47-9.23-1.88-19.89-2.3-29.97-1.18l-.81.18c5.04-3.4 24.62-15.77 59.62-18.82 33.43-2.91 60.38 4.46 68.1 6.75 1.49.44 2.71 1.08 3.75 1.76-7.6 1.35-15.53 2.86-22.94 4.46-8.53 1.84-16.92 3.84-25.34 5.85s-15.69 5.11-23.46 7.71c-2.75.92-5.51 1.84-8.26 2.77h1.23ZM452.44 155.64c.56 5.15-2.43 10.46-8.43 14.91-6.04 4.48-15.06 8.04-25.33 9.97l-.93.06c8.29 1.77 40.21 7.94 75.39.26 33.35-7.28 47.19-22.16 50.83-26.47.7-.82.91-1.75.91-2.65-8.21.97-16.9 1.88-25.24 2.57-9.58.79-19.23 1.4-28.88 2-9.6.6-19.51-.1-29.18-.21l-10.24-.12 1.08-.34Z" class="w"/><path d="M674.46 106.96c-17.83-3.46-84.42-15.33-160.23-4.01-40.57 6.06-68.89 16.43-84.7 23.22 13.1 9.15 19.99 19.92 18.7 31.59 21.39 1.58 58.33 2.84 100.9-3.39 79.59-11.64 116.53-40.08 125.54-47.57" style="fill:#ecf6f4"/><g style="clip-path:url(#e)"><path d="M684.14 137.3c-17.53 2.64-41.78-8.19-53.81-23.77-11.7-15.15-7.36-29.1 9.36-31.53 16.67-2.42 40.03 7.43 52.53 22.38 12.85 15.37 9.41 30.29-8.07 32.92Z" class="w"/><path d="M447.04 186.29c-19.65 2.97-45.89-13.9-58.11-36.84-11.74-22.04-6.02-41.43 12.32-44.09 18.29-2.64 43.26 12.22 56.28 33.94 13.55 22.61 9.1 44.02-10.48 46.98Z" class="q"/></g><path d="M615.14 124.09c4.01-7.71-5.9-15.78-22-18.1s-32.4 1.9-36.75 9.48c-4.4 7.67 5.17 15.94 21.51 18.38 16.44 2.46 33.17-1.95 37.23-9.76Zm-49.12-7.21c2.88-5.1 13.89-7.93 24.65-6.37 10.81 1.57 17.4 6.99 14.68 12.14-2.75 5.2-13.91 8.13-24.87 6.5-10.92-1.62-17.36-7.13-14.46-12.27" class="q"/><path d="M738.14 116.57 311.17 396.48v106.27l426.97-291.67z" style="fill:#f9d6a2;stroke-width:0"/><path d="M-.08 223.89v83.48l311.25 195.38V396.48z" style="stroke-width:0;fill:#ffe5b8"/><path d="m-.08 240.11 311.25 174.24L738.14 133.6v-17.03L311.17 395.48-.08 223.89z" class="r"/><path d="M31.46 241.38v16.38L-.08 240.11v-16.22z" style="stroke-width:0;fill:#db4242"/><path d="m311.17 502.75-.31 11.41L-.08 319.55v-12.18z" class="r"/><path d="m311.17 502.75 426.97-291.67v10.77L310.86 514.16z" class="r"/><path d="m0 261 311 179v9L0 271zM0 285.58 311 473v10L0 295.58z" class="x"/><path d="M311 440v9l427.14-283.83v-10.44zM311.3 473.69v9l427.14-289.83v-9.44z" class="p"/></svg>