<?xml version="1.0" encoding="utf-8"?>
<!-- Generator: Adobe Illustrator 27.9.5, SVG Export Plug-In . SVG Version: 9.03 Build 54986)  -->
<svg version="1.1" id="d" xmlns="http://www.w3.org/2000/svg" xmlns:xlink="http://www.w3.org/1999/xlink" x="0px" y="0px"
	 viewBox="0 0 739 517" style="enable-background:new 0 0 739 517;" xml:space="preserve">
<style type="text/css">
	.st0{fill:#308D96;}
	.st1{fill:#ED5151;}
	.st2{fill:#EEF7F7;}
	.st3{fill:#ECF6F4;}
	.st4{clip-path:url(#SVGID_00000088816237824049640330000001945691020348207501_);}
	.st5{fill:#5DB9C8;}
	.st6{fill:#F9D6A2;}
	.st7{fill:#FFE5B8;}
	.st8{fill:#33708E;}
	.st9{fill:#FFDFB0;}
	.st10{fill:#F7CF9A;}
	.st11{fill:#CC4A4A;}
</style>
<path class="st0" d="M311.2,396.5L-0.1,223.9L428.4,3.7l309.7,112.8L311.2,396.5z"/>
<path class="st1" d="M31.5,241.4l-31.5-17.5L428.4,3.7l32.1,11.7L31.5,241.4z"/>
<path class="st2" d="M297.8,238.1c8.7-5.8,18.5-9.2,27.9-9c11.2,0.2,19.5,5.6,23.4,13.9c14.4,0.7,24.8,3.8,27.6,9.3
	c2.2,4.3-0.6,9.3-7.3,14.3c9.5,9.2,11.1,18.4,2.4,24.3c-8.4,5.7-24.5,7-42.7,4.5c-9.6,7.4-21,11.9-31.7,11.7
	c-12.3-0.3-20.9-6.7-24.2-16.2c-15.4-0.6-26.2-4-28.6-9.9c-2.2-5.4,3.4-11.9,14.1-18c-5.8-7.9-5.4-15.2,2.4-20.1
	C268.9,238.1,282.4,236.6,297.8,238.1L297.8,238.1z M314.9,133.8c7.9-4.9,17-7.8,25.6-7.7c10.4,0.1,18,4.6,21.7,11.6
	c13.2,0.5,22.8,3.1,25.4,7.7c2,3.6-0.5,7.8-6.6,12.1c8.8,7.7,10.4,15.4,2.4,20.3c-7.7,4.8-22.4,6-39.1,3.9
	c-8.7,6.2-19.1,10-28.9,9.9c-11.2-0.2-19.2-5.5-22.4-13.5c-14.1-0.4-24.1-3.2-26.4-8.1c-2.1-4.5,3-10,12.7-15.2
	c-5.5-6.6-5.2-12.8,1.9-16.9C288.3,133.8,300.7,132.6,314.9,133.8L314.9,133.8z"/>
<path class="st1" d="M435.8,127.2c-4.9-4.2-12.7-7.6-21.9-9.5c-9.2-1.9-19.9-2.3-30-1.2l-0.8,0.2c5-3.4,24.6-15.8,59.6-18.8
	c33.4-2.9,60.4,4.5,68.1,6.8c1.5,0.4,2.7,1.1,3.7,1.8c-7.6,1.3-15.5,2.9-22.9,4.5c-8.5,1.8-16.9,3.8-25.3,5.8s-15.7,5.1-23.5,7.7
	c-2.8,0.9-5.5,1.8-8.3,2.8L435.8,127.2L435.8,127.2z M452.4,155.6c0.6,5.1-2.4,10.5-8.4,14.9c-6,4.5-15.1,8-25.3,10l-0.9,0.1
	c8.3,1.8,40.2,7.9,75.4,0.3c33.3-7.3,47.2-22.2,50.8-26.5c0.7-0.8,0.9-1.8,0.9-2.6c-8.2,1-16.9,1.9-25.2,2.6
	c-9.6,0.8-19.2,1.4-28.9,2c-9.6,0.6-19.5-0.1-29.2-0.2l-10.2-0.1L452.4,155.6L452.4,155.6z"/>
<path class="st3" d="M674.5,107c-17.8-3.5-84.4-15.3-160.2-4c-40.6,6.1-68.9,16.4-84.7,23.2c13.1,9.1,20,19.9,18.7,31.6
	c21.4,1.6,58.3,2.8,100.9-3.4c79.6-11.6,116.5-40.1,125.5-47.6"/>
<g>
	<defs>
		<path id="SVGID_1_" d="M674.5,107c-17.8-3.5-84.4-15.3-160.2-4c-40.6,6.1-68.9,16.4-84.7,23.2c13.1,9.2,20,19.9,18.7,31.6
			c21.4,1.6,58.3,2.8,100.9-3.4c79.6-11.6,116.5-40.1,125.5-47.6L674.5,107z"/>
	</defs>
	<clipPath id="SVGID_00000144302095434801212620000015790763255496463527_">
		<use xlink:href="#SVGID_1_"  style="overflow:visible;"/>
	</clipPath>
	<g style="clip-path:url(#SVGID_00000144302095434801212620000015790763255496463527_);">
		<path class="st1" d="M684.1,137.3c-17.5,2.6-41.8-8.2-53.8-23.8c-11.7-15.2-7.4-29.1,9.4-31.5c16.7-2.4,40,7.4,52.5,22.4
			C705.1,119.8,701.6,134.7,684.1,137.3L684.1,137.3z"/>
		<path class="st5" d="M447,186.3c-19.6,3-45.9-13.9-58.1-36.8c-11.7-22-6-41.4,12.3-44.1c18.3-2.6,43.3,12.2,56.3,33.9
			C471.1,161.9,466.6,183.3,447,186.3L447,186.3z"/>
	</g>
</g>
<path class="st5" d="M615.1,124.1c4-7.7-5.9-15.8-22-18.1s-32.4,1.9-36.8,9.5c-4.4,7.7,5.2,15.9,21.5,18.4
	C594.3,136.3,611.1,131.9,615.1,124.1L615.1,124.1z M566,116.9c2.9-5.1,13.9-7.9,24.7-6.4c10.8,1.6,17.4,7,14.7,12.1
	c-2.8,5.2-13.9,8.1-24.9,6.5C569.6,127.5,563.1,122,566,116.9"/>
<path class="st6" d="M738.1,116.6l-427,279.9v106.3l427-291.7V116.6z"/>
<path class="st7" d="M-0.1,223.9v83.5l311.2,195.4V396.5L-0.1,223.9z"/>
<path class="st8" d="M-0.1,240.1l311.2,174.2l427-280.8v-17l-427,278.9L-0.1,223.9V240.1z"/>
<path class="st8" d="M311.2,502.8l-0.3,11.4L-0.1,319.5v-12.2L311.2,502.8z"/>
<path class="st8" d="M311.2,502.8l427-291.7v10.8L310.9,514.2L311.2,502.8z"/>
<path class="st9" d="M0,261l311,179v9L0,271V261z M0,285.6L311,473v10L0,295.6V285.6z"/>
<path class="st10" d="M311,440v9l427.1-283.8v-10.4L311,440z M311.3,473.7v9l427.1-289.8v-9.4L311.3,473.7z"/>
<path class="st11" d="M31.5,241.4v97.9l-31.5-19.7v-95.7L31.5,241.4z"/>
</svg>
