<?xml version="1.0" encoding="utf-8"?>
<!-- Generator: Adobe Illustrator 27.9.5, SVG Export Plug-In . SVG Version: 9.03 Build 54986)  -->
<svg version="1.1" id="Layer_1" xmlns="http://www.w3.org/2000/svg" xmlns:xlink="http://www.w3.org/1999/xlink" x="0px" y="0px"
	 viewBox="0 0 1920 1204.5" style="enable-background:new 0 0 1920 1204.5;" xml:space="preserve">
<style type="text/css">
	.st0{fill:#F0F6FF;}
	.st1{fill:url(#e_00000080187862123806360130000010629300149297498012_);}
	.st2{fill:url(#SVGID_1_);}
	.st3{fill:#11293F;}
	.st4{fill:#1B344F;}
	.st5{opacity:0.2;fill:#FFFFFF;enable-background:new    ;}
	.st6{fill:#E7A646;}
	.st7{fill:#E28A45;}
	.st8{fill:#ECC7A5;}
	.st9{clip-path:url(#SVGID_00000162320700291500234540000006392789184988998046_);}
	.st10{fill:#6C6364;}
	.st11{fill:#EF8E4B;}
	.st12{fill:#E86D1A;}
	.st13{fill:#F9CBA5;}
	.st14{clip-path:url(#SVGID_00000134249669374397591790000013593258023898906259_);}
	.st15{clip-path:url(#SVGID_00000167379623528293694460000005201368032825131153_);}
	.st16{clip-path:url(#SVGID_00000073713250788738393490000015510109314567336332_);}
	.st17{fill:#F9D493;}
	.st18{clip-path:url(#SVGID_00000060728219167889231260000005300995203305051806_);}
	.st19{fill:#D65544;}
	.st20{fill:#F27048;}
	.st21{clip-path:url(#SVGID_00000099642774782382979130000010693645913948583320_);}
	.st22{clip-path:url(#SVGID_00000054237814846854410820000013540236658402603186_);}
	.st23{clip-path:url(#SVGID_00000064352440742602776850000009667660834397505161_);}
	.st24{fill:#F2614E;}
	.st25{fill:#F7D39F;}
	.st26{fill:#D64949;}
	.st27{clip-path:url(#SVGID_00000133489495311282156330000016063823116757269913_);}
	.st28{fill:#716869;}
	.st29{fill:#EF9C50;}
	.st30{fill:#E87E21;}
	.st31{fill:#F9D2A8;}
	.st32{clip-path:url(#SVGID_00000049183157684475607350000004245085071797341581_);}
	.st33{clip-path:url(#SVGID_00000067923183089809986030000004562417392416133007_);}
	.st34{opacity:0.3;fill:#DCFAFF;enable-background:new    ;}
	.st35{fill:#113A56;}
	.st36{fill:#3E3287;}
	.st37{fill:#16677B;}
	.st38{fill:#195972;}
	.st39{fill:#14445E;}
	.st40{fill:#2F7489;}
	.st41{fill:#8E238E;}
	.st42{fill:#155F7C;}
	.st43{fill:#275B71;}
	.st44{opacity:0.8;}
	.st45{fill:#FED9B2;}
	
		.st46{opacity:0.2;clip-path:url(#SVGID_00000098194287778845271930000001666250486491730874_);fill:#FFFFFF;enable-background:new    ;}
	.st47{fill:#F49A4A;}
	.st48{fill:#F9B74B;}
	.st49{clip-path:url(#SVGID_00000171719487588222341060000008663459468980486038_);}
	.st50{clip-path:url(#SVGID_00000005227047061593486810000012650919589366547089_);}
	.st51{clip-path:url(#SVGID_00000053509805307065590620000002857360149130094763_);}
	.st52{clip-path:url(#SVGID_00000060751894414517488320000002053888912851929486_);}
	.st53{opacity:0.8;fill:#F7D39F;enable-background:new    ;}
	
		.st54{opacity:0.2;clip-path:url(#SVGID_00000056405844936469689120000014975952635235474108_);fill:#FFFFFF;enable-background:new    ;}
	.st55{fill:#332F2F;}
	.st56{clip-path:url(#SVGID_00000049197228804187621090000000316030377229788594_);}
	.st57{clip-path:url(#SVGID_00000163055882424848416950000000077030455609597850_);}
	.st58{clip-path:url(#SVGID_00000058551646530227287150000003275343397464787903_);}
	.st59{clip-path:url(#SVGID_00000121980467903865305300000014972824837227383718_);}
	.st60{fill:#FFA752;}
	.st61{fill:#F4943E;}
	.st62{fill:#FCD7B6;}
	.st63{clip-path:url(#SVGID_00000041261535612262152020000017249682595254688190_);}
	.st64{clip-path:url(#SVGID_00000075125758179132313260000017100413809343370903_);}
	.st65{clip-path:url(#SVGID_00000042733711550649044160000009818508871823551672_);}
	.st66{opacity:0.8;fill:#F9CBA5;enable-background:new    ;}
	
		.st67{opacity:0.2;clip-path:url(#SVGID_00000117652706458674121610000001924253114588331677_);fill:#FFFFFF;enable-background:new    ;}
	.st68{clip-path:url(#SVGID_00000160160699720988204720000015576181657418429339_);}
	.st69{opacity:0.8;fill:#FEE6C5;enable-background:new    ;}
	.st70{clip-path:url(#SVGID_00000048488114930899803540000001036698887725328776_);}
	.st71{fill:#F4AE5D;}
	.st72{fill:#F9C65F;}
	.st73{fill:#FEE6C5;}
	.st74{clip-path:url(#SVGID_00000125575082856699441370000004525196689479613619_);}
	.st75{fill:#7E7574;}
	.st76{clip-path:url(#SVGID_00000054237174153165829060000017498002905935117226_);}
	.st77{fill:#447C89;}
	.st78{fill:#10526B;}
	.st79{fill:#E5524E;}
	.st80{fill:#F9BEA5;}
	.st81{fill:#D14242;}
	
		.st82{opacity:0.2;clip-path:url(#SVGID_00000017476499393177011360000005626356937677972153_);fill:#FFFFFF;enable-background:new    ;}
	
		.st83{opacity:0.2;clip-path:url(#SVGID_00000174585948415156981840000000075319271675138227_);fill:#FFFFFF;enable-background:new    ;}
	.st84{fill:#FFDB92;}
</style>
<path id="a" class="st0" d="M0,0.5h1920v1204H0V0.5z"/>
<radialGradient id="e_00000033360660380679902420000004775056057608550544_" cx="959" cy="603" r="1101.5" gradientTransform="matrix(1 0 0 -1 0 1204)" gradientUnits="userSpaceOnUse">
	<stop  offset="0" style="stop-color:#133B4F"/>
	<stop  offset="0.54" style="stop-color:#112F49"/>
	<stop  offset="1" style="stop-color:#0B2A42"/>
</radialGradient>
<path id="e" style="fill:url(#e_00000033360660380679902420000004775056057608550544_);" d="M-2-2.5h1922v1207H-2V-2.5z"/>
<g id="j">
	
		<radialGradient id="SVGID_1_" cx="965.5" cy="386" r="424.5" gradientTransform="matrix(1 0 0 -1 0 1204)" gradientUnits="userSpaceOnUse">
		<stop  offset="0" style="stop-color:#BDDDFF;stop-opacity:0.15"/>
		<stop  offset="0.9" style="stop-color:#BBFFFC;stop-opacity:0"/>
	</radialGradient>
	<circle class="st2" cx="965.5" cy="818" r="424.5"/>
	<path class="st3" d="M1379.4,35.2h74.6c4.2,15,17.3,26,32.8,26h50.1c1.9,18.2,16.4,32.4,34.1,32.4h74.2c4,15.3,17.3,26.6,33,26.6
		h259.1c15.7,0,29-11.3,33-26.6h65.2c17.7,0,32.2-14.2,34.1-32.4h37.4c15.5,0,28.6-11,32.8-26h13.5c11.4,0,20.7-9.9,20.7-22
		s-9.3-22-20.7-22h-773.9c-11.4,0-20.7,9.9-20.7,22S1367.9,35.2,1379.4,35.2L1379.4,35.2z M306.9,104.5H20.6
		c-20.9,0-37.9-17-37.9-37.9h362.1C344.8,87.6,327.8,104.5,306.9,104.5L306.9,104.5z"/>
	<path class="st3" d="M493.5,70.8H-19.9c-20.9,0-37.9-17-37.9-37.9h589.1C531.4,53.9,514.4,70.8,493.5,70.8L493.5,70.8z"/>
	<path class="st3" d="M614.5,35.1H-70.9c-20.9,0-37.9-17-37.9-37.9h761.1C652.3,18.2,635.4,35.1,614.5,35.1L614.5,35.1z"/>
	<path class="st4" d="M1684.4,52.9h158.2c20.9,0,37.9,17,37.9,37.9h-234C1646.5,69.8,1663.4,52.9,1684.4,52.9L1684.4,52.9z"/>
	<path class="st4" d="M1573.4,118.6h375.2c12.7,0,22.9,10.3,22.9,22.9l0,0c0,12.7-10.3,22.9-22.9,22.9h-375.2
		c-12.7,0-22.9-10.3-22.9-22.9l0,0C1550.5,128.9,1560.7,118.6,1573.4,118.6z"/>
	<path class="st4" d="M1633.4,86.6h258.2c20.9,0,37.9,17,37.9,37.9h-334C1595.5,103.5,1612.4,86.6,1633.4,86.6L1633.4,86.6z
		 M1891.5,200.3h-199.1c-20.9,0-37.9-17-37.9-37.9h274.9C1929.4,183.3,1912.4,200.3,1891.5,200.3L1891.5,200.3z M146.6,213.6H0.4
		c-20.9,0-37.9-17-37.9-37.9h221.9C184.4,196.7,167.5,213.6,146.6,213.6"/>
	<path class="st4" d="M-96.6,100.5h375.2c12.7,0,22.9,10.3,22.9,22.9v0c0,12.7-10.3,22.9-22.9,22.9H-96.6
		c-12.7,0-22.9-10.3-22.9-22.9v0C-119.6,110.7-109.3,100.5-96.6,100.5z"/>
	<path class="st4" d="M0.4,68.4h231.2c20.9,0,37.9,17,37.9,37.9h-307C-37.5,85.4-20.5,68.4,0.4,68.4 M201.6,180.2H-48.7
		c-20.9,0-37.9-17-37.9-37.9h326C239.5,163.2,222.5,180.2,201.6,180.2"/>
	<path class="st5" d="M820.4,503.1c0.6,0.6,1.3-0.2,1.6-1.9 M672.5,503.2c0.6,0.6,1.3-0.2,1.6-1.9"/>
	<path class="st6" d="M1899.4,782h-73.8c-2.8,0-5.1-2.3-5.1-5.1V571.1c0-2.8,2.3-5.1,5.1-5.1h73.8c2.8,0,5.1,2.3,5.1,5.1v205.8
		C1904.4,779.7,1902.2,782,1899.4,782z"/>
	<path class="st6" d="M1830.5,589v-41.1c0-2.4,1.9-4.3,4.3-4.3s4.3,2,4.3,4.3V589 M1849.2,589.5v-41.1c0-2.4,1.9-4.3,4.3-4.3
		s4.3,2,4.3,4.3v41.1"/>
	<path class="st7" d="M1834,574.7h57c2.8,0,5.1,2.3,5.1,5.1v187.9c0,2.8-2.3,5.1-5.1,5.1h-57c-2.8,0-5.1-2.3-5.1-5.1V579.8
		C1828.9,577,1831.2,574.7,1834,574.7z"/>
	<path class="st8" d="M1888.3,767.1h-51.1c-1.1,0-2-0.9-2-2V582.3c0-1.1,0.9-2,2-2h51.1c1.1,0,2,0.9,2,2v182.7
		C1890.3,766.2,1889.4,767.1,1888.3,767.1z"/>
	<g>
		<defs>
			<path id="SVGID_00000070081214031859655780000006034091286691061912_" d="M1888.3,767.1h-51.1c-1.1,0-2-0.9-2-2V582.3
				c0-1.1,0.9-2,2-2h51.1c1.1,0,2,0.9,2,2v182.7C1890.3,766.2,1889.4,767.1,1888.3,767.1z"/>
		</defs>
		<clipPath id="SVGID_00000041272238156533869900000012932386289747806598_">
			<use xlink:href="#SVGID_00000070081214031859655780000006034091286691061912_"  style="overflow:visible;"/>
		</clipPath>
		<g style="clip-path:url(#SVGID_00000041272238156533869900000012932386289747806598_);">
			<path class="st7" d="M1872.8,794.2h-1.2V438h1.2V794.2z"/>
			<path class="st10" d="M1893.7,580h-60.9v-1.2h60.9V580z"/>
			<path class="st7" d="M1893.7,627.1h-60.9V626h60.9V627.1z M1893.7,674.1h-60.9v-1.2h60.9V674.1z M1893.7,721.3h-60.9v-1.2h60.9
				V721.3z"/>
			<path class="st10" d="M1890.4,533.6h-39.2v-1.2h39.2V533.6z M1892.3,486.5h-39.2v-1.2h39.2V486.5z"/>
			<path class="st7" d="M1854,767.8h-1.2V567h1.2V767.8z"/>
			<path class="st5" d="M1841.1,770.6l18.4,14.6c0.6,0.6,18.1,15.4,17.2,12.5l31.5,1.6l-79.3-81.9l-0.9,49.7
				C1828.9,770,1840.5,769.9,1841.1,770.6L1841.1,770.6z M1827.1,703.7l76.2,76.9c0.6,0.6,1,0.8,0.8,0.4l-9-24.7l-78.4-79.2l9,24.7
				C1825.9,702.3,1826.5,703.1,1827.1,703.7L1827.1,703.7z"/>
		</g>
	</g>
	<path class="st11" d="M1511.7,430h114.2c2.8,0,5,2.2,5,5v345.2c0,2.8-2.2,5-5,5h-114.2c-2.8,0-5-2.2-5-5V435
		C1506.7,432.3,1508.9,430,1511.7,430z"/>
	<path class="st12" d="M1597,463h16.1c2.7,0,4.8,2.1,4.8,4.8v283.5c0,2.7-2.1,4.8-4.8,4.8H1597c-2.7,0-4.8-2.1-4.8-4.8V467.8
		C1592.2,465.2,1594.3,463,1597,463z"/>
	<path class="st12" d="M1561.9,438.9h15.3c2.9,0,5.2,2.3,5.2,5.2v330.5c0,2.9-2.3,5.2-5.2,5.2h-15.3c-2.9,0-5.2-2.3-5.2-5.2V444.1
		C1556.7,441.2,1559.1,438.9,1561.9,438.9z"/>
	<path class="st13" d="M1612.2,752.8H1598c-1.1,0-1.9-0.9-1.9-1.9v-282c0-1.1,0.9-1.9,1.9-1.9h14.2c1.1,0,1.9,0.9,1.9,1.9v282
		C1614.2,752,1613.3,752.8,1612.2,752.8z"/>
	<g>
		<defs>
			<path id="SVGID_00000129189730562466979800000018058695015169859477_" d="M1612.2,752.8H1598c-1.1,0-1.9-0.9-1.9-1.9v-282
				c0-1.1,0.9-1.9,1.9-1.9h14.2c1.1,0,1.9,0.9,1.9,1.9v282C1614.2,752,1613.3,752.8,1612.2,752.8z"/>
		</defs>
		<clipPath id="SVGID_00000173156624662525463320000003350033349924238479_">
			<use xlink:href="#SVGID_00000129189730562466979800000018058695015169859477_"  style="overflow:visible;"/>
		</clipPath>
		<g style="clip-path:url(#SVGID_00000173156624662525463320000003350033349924238479_);">
			<path class="st12" d="M1577.6,560.9h40v1.2h-40V560.9z M1577.6,608.9h40v1.2h-40V608.9z M1577.6,656.8h40v1.2h-40V656.8z
				 M1577.6,704.9h40v1.2h-40V704.9z M1574.2,513.5h40v1.2h-40V513.5z M1576.2,465.5h40v1.2h-40V465.5z"/>
			<path class="st5" d="M1579.9,776.2l52.5,6.9c0.6,0.7,0.4-1.2-0.5-4.2l0.2-129.4l-80.9-83.6l24.5,191.5
				C1576.6,760.4,1579.3,775.6,1579.9,776.2L1579.9,776.2z"/>
		</g>
	</g>
	<path class="st13" d="M1576.6,776.2h-13.9c-1.1,0-2.1-0.9-2.1-2.1V444.2c0-1.1,0.9-2.1,2.1-2.1h13.9c1.1,0,2.1,0.9,2.1,2.1v329.9
		C1578.7,775.3,1577.8,776.2,1576.6,776.2z"/>
	<g>
		<defs>
			<path id="SVGID_00000121982354368908216290000012725901611467793306_" d="M1576.6,776.2h-13.9c-1.1,0-2.1-0.9-2.1-2.1V444.2
				c0-1.1,0.9-2.1,2.1-2.1h13.9c1.1,0,2.1,0.9,2.1,2.1v329.9C1578.7,775.3,1577.8,776.2,1576.6,776.2z"/>
		</defs>
		<clipPath id="SVGID_00000060029678116907809880000007225131729244160404_">
			<use xlink:href="#SVGID_00000121982354368908216290000012725901611467793306_"  style="overflow:visible;"/>
		</clipPath>
		<g style="clip-path:url(#SVGID_00000060029678116907809880000007225131729244160404_);">
			<path class="st12" d="M1542.1,584.2h40v1.2h-40V584.2z M1542.1,632.2h40v1.2h-40V632.2z M1542.1,680.1h40v1.2h-40V680.1z
				 M1542.1,728.3h40v1.2h-40V728.3z M1538.8,536.9h40v1.2h-40V536.9z M1540.7,488.8h40v1.2h-40V488.8z"/>
			<path class="st5" d="M1544.5,799.5l52.5,6.9c0.6,0.7,0.4-1.2-0.5-4.2l0.2-129.4l-80.9-83.6l24.5,191.5
				C1541.1,783.8,1543.8,798.9,1544.5,799.5L1544.5,799.5z"/>
		</g>
	</g>
	<path class="st12" d="M1525.1,462.4h16.1c2.7,0,4.8,2.1,4.8,4.8v283.5c0,2.7-2.1,4.8-4.8,4.8h-16.1c-2.7,0-4.8-2.1-4.8-4.8V467.2
		C1520.3,464.5,1522.5,462.4,1525.1,462.4z"/>
	<path class="st13" d="M1540.4,752.2h-14.2c-1.1,0-1.9-0.9-1.9-1.9v-282c0-1.1,0.9-1.9,1.9-1.9h14.2c1.1,0,1.9,0.9,1.9,1.9v282
		C1542.3,751.3,1541.4,752.2,1540.4,752.2z"/>
	<g>
		<defs>
			<path id="SVGID_00000087379608330071780850000010211597205612662954_" d="M1540.4,752.2h-14.2c-1.1,0-1.9-0.9-1.9-1.9v-282
				c0-1.1,0.9-1.9,1.9-1.9h14.2c1.1,0,1.9,0.9,1.9,1.9v282C1542.3,751.3,1541.4,752.2,1540.4,752.2z"/>
		</defs>
		<clipPath id="SVGID_00000157284916349997438670000015301251226519008138_">
			<use xlink:href="#SVGID_00000087379608330071780850000010211597205612662954_"  style="overflow:visible;"/>
		</clipPath>
		<g style="clip-path:url(#SVGID_00000157284916349997438670000015301251226519008138_);">
			<path class="st12" d="M1505.7,560.2h40v1.2h-40V560.2z M1505.7,608.2h40v1.2h-40V608.2z M1505.7,656.2h40v1.2h-40V656.2z
				 M1505.7,704.3h40v1.2h-40V704.3z M1502.4,512.9h40v1.2h-40V512.9z M1504.3,464.8h40v1.2h-40V464.8z"/>
			<path class="st5" d="M1508.1,775.5l52.5,6.9c0.6,0.7,0.4-1.2-0.5-4.2l0.2-129.4l-80.9-83.6l24.5,191.5
				C1504.7,759.8,1507.4,774.9,1508.1,775.5L1508.1,775.5z"/>
		</g>
	</g>
	<path class="st17" d="M1470.3,644h-174v-18.5h174V644z"/>
	<g>
		<defs>
			<rect id="SVGID_00000147913177877606145230000001756407231986337973_" x="1296.3" y="625.5" width="174" height="18.5"/>
		</defs>
		<clipPath id="SVGID_00000130610357379673898710000014345038071287746953_">
			<use xlink:href="#SVGID_00000147913177877606145230000001756407231986337973_"  style="overflow:visible;"/>
		</clipPath>
		<g style="clip-path:url(#SVGID_00000130610357379673898710000014345038071287746953_);">
			<path class="st5" d="M1296.1,630.6l0.9,18.6l33.4-1v-12L1296.1,630.6z M1437.1,631.5l0.9,18.5l33.4-1v-12L1437.1,631.5z"/>
			<path class="st5" d="M1403.1,630.5l0.9,18.5l33.4-1v-12L1403.1,630.5z M1366.1,630.5l0.9,18.5l33.4-1v-12L1366.1,630.5z
				 M1329.1,630.5l0.9,18.5l33.4-1v-12L1329.1,630.5z"/>
		</g>
	</g>
	<path class="st19" d="M1477.2,650.7h-7.2v-28.4h3.9c1.8,0,3.3,1.5,3.3,3.3V650.7z M1438.3,650.7h-7.2v-28.5h7.2V650.7z
		 M1404.7,650.7h-7.2v-28.5h7.2V650.7z M1369.4,650.7h-7.2v-28.5h7.2V650.7z M1334.8,650.6h-7.2v-28.5h7.2V650.6z M1296.5,650.6
		h-7.2v-25.1c0-1.8,1.5-3.3,3.3-3.3h3.9V650.6L1296.5,650.6z"/>
	<path class="st20" d="M1289.2,844.5V646.1c0-2.2,2.3-3.9,5.2-3.9H1472c2.9,0,5.2,1.8,5.2,3.9v198.4c0,2.2-2.3,4-5.2,4h-177.5
		C1291.6,848.5,1289.2,846.7,1289.2,844.5"/>
	<path class="st19" d="M1423.3,841.2c-0.6,0-1.1-1.2-1.1-2.6V653.8c0-1.4,0.5-2.6,1.1-2.6h42c0.6,0,1.1,1.2,1.1,2.6v184.9
		c0,1.4-0.5,2.6-1.1,2.6"/>
	<path class="st17" d="M1459.4,835.8h-30.7c-0.8,0-1.4-0.6-1.4-1.4V656.6c0-0.8,0.6-1.4,1.4-1.4h30.7c0.8,0,1.4,0.6,1.4,1.4v177.7
		C1460.8,835.1,1460.2,835.8,1459.4,835.8z"/>
	<g>
		<defs>
			<path id="SVGID_00000114788062500165906260000006653034313529913527_" d="M1459.4,835.8h-30.7c-0.8,0-1.4-0.6-1.4-1.4V656.6
				c0-0.8,0.6-1.4,1.4-1.4h30.7c0.8,0,1.4,0.6,1.4,1.4v177.7C1460.8,835.1,1460.2,835.8,1459.4,835.8z"/>
		</defs>
		<clipPath id="SVGID_00000054948669860021828870000018103941446655288752_">
			<use xlink:href="#SVGID_00000114788062500165906260000006653034313529913527_"  style="overflow:visible;"/>
		</clipPath>
		<g style="clip-path:url(#SVGID_00000054948669860021828870000018103941446655288752_);">
			<path class="st19" d="M1426,608.4h1.1V717h-1.1V608.4z M1443.1,608.4h1.1v108.7h-1.1V608.4z"/>
			<path class="st19" d="M1408.8,746.8v43.6h-16.6v1.2h16.6v44.2h1.1v-44.2h16v44.2h1.1v-44.2h16v44.2h1.1v-44.2h16.6v-1.2h-16.6
				v-43.6h16.6v-1.2h-16.6v-44.2h-1.1v44.2h-16v-44.2h-1.1v44.2h-16v-44.2h-1.1v44.2h-16.6v1.2L1408.8,746.8z M1427.1,790.4v-43.6
				h16v43.6H1427.1z M1410,746.8h16v43.6h-16V746.8z"/>
			<path class="st19" d="M1460.7,700.2v1.1h-68.3v-1.1H1460.7z"/>
			<path class="st5" d="M1397.6,773.5l75.8,41.8c0.6,0.3,1.1,0.5,1,0.3l-3-11.7l-78-43l3,11.7C1396.4,772.7,1397,773.1,1397.6,773.5
				 M1397.3,884.2l92.3,52.2c0.7,0.4,1.2-0.6,1.1-2.2l-9.1-102.4l-95-53.8l9.1,102.4C1395.9,882.1,1396.6,883.8,1397.3,884.2
				L1397.3,884.2z"/>
			<path class="st19" d="M1462.6,653.7v1.1h-68.3v-1.1H1462.6z"/>
		</g>
	</g>
	<path class="st19" d="M1362.6,841.2c-0.6,0-1.1-1.2-1.1-2.6V653.8c0-1.4,0.5-2.6,1.1-2.6h42c0.6,0,1.1,1.2,1.1,2.6v184.9
		c0,1.4-0.5,2.6-1.1,2.6"/>
	<path class="st17" d="M1398.7,835.7H1368c-0.8,0-1.4-0.6-1.4-1.4V656.6c0-0.8,0.6-1.4,1.4-1.4h30.7c0.8,0,1.4,0.6,1.4,1.4v177.7
		C1400.1,835.1,1399.5,835.7,1398.7,835.7z"/>
	<g>
		<defs>
			<path id="SVGID_00000036929816150044270610000009523489525891041664_" d="M1398.7,835.7H1368c-0.8,0-1.4-0.6-1.4-1.4V656.6
				c0-0.8,0.6-1.4,1.4-1.4h30.7c0.8,0,1.4,0.6,1.4,1.4v177.7C1400.1,835.1,1399.5,835.7,1398.7,835.7z"/>
		</defs>
		<clipPath id="SVGID_00000093155554110696117210000002301413735309868419_">
			<use xlink:href="#SVGID_00000036929816150044270610000009523489525891041664_"  style="overflow:visible;"/>
		</clipPath>
		<g style="clip-path:url(#SVGID_00000093155554110696117210000002301413735309868419_);">
			<path class="st19" d="M1365.3,608.4h1.1V717h-1.1V608.4z M1382.5,608.4h1.1v108.7h-1.1V608.4z"/>
			<path class="st19" d="M1348.2,746.8v43.6h-16.6v1.2h16.6v44.2h1.1v-44.2h16v44.2h1.1v-44.2h16v44.2h1.1v-44.2h16.6v-1.2h-16.6
				v-43.6h16.6v-1.2h-16.6v-44.2h-1.1v44.2h-16v-44.2h-1.1v44.2h-16v-44.2h-1.1v44.2h-16.6v1.2H1348.2z M1366.4,790.4v-43.6h16v43.6
				H1366.4z M1349.3,746.8h16v43.6h-16V746.8z"/>
			<path class="st19" d="M1400,700.2v1.1h-68.3v-1.1H1400z"/>
			<path class="st5" d="M1336.9,773.5l75.8,41.8c0.6,0.3,1.1,0.5,1,0.3l-3-11.7l-78-43l3,11.7
				C1335.8,772.7,1336.3,773.1,1336.9,773.5 M1336.7,884.2l92.3,52.2c0.7,0.4,1.2-0.6,1.1-2.2l-9.1-102.4l-95-53.8l9.1,102.4
				C1335.2,882.1,1335.9,883.8,1336.7,884.2L1336.7,884.2z"/>
			<path class="st19" d="M1401.9,653.7v1.1h-68.3v-1.1H1401.9z"/>
		</g>
	</g>
	<path class="st19" d="M1301.6,841.2c-0.6,0-1.1-1.2-1.1-2.6V653.8c0-1.4,0.5-2.6,1.1-2.6h42c0.6,0,1.1,1.2,1.1,2.6v184.9
		c0,1.4-0.5,2.6-1.1,2.6"/>
	<path class="st17" d="M1337.7,835.7H1307c-0.8,0-1.4-0.6-1.4-1.4V656.6c0-0.8,0.6-1.4,1.4-1.4h30.7c0.8,0,1.4,0.6,1.4,1.4v177.7
		C1339.1,835.1,1338.5,835.7,1337.7,835.7z"/>
	<g>
		<defs>
			<path id="SVGID_00000062171332556763575650000008824171387251008129_" d="M1337.7,835.7H1307c-0.8,0-1.4-0.6-1.4-1.4V656.6
				c0-0.8,0.6-1.4,1.4-1.4h30.7c0.8,0,1.4,0.6,1.4,1.4v177.7C1339.1,835.1,1338.5,835.7,1337.7,835.7z"/>
		</defs>
		<clipPath id="SVGID_00000121280724362681795800000004423076993564026515_">
			<use xlink:href="#SVGID_00000062171332556763575650000008824171387251008129_"  style="overflow:visible;"/>
		</clipPath>
		<g style="clip-path:url(#SVGID_00000121280724362681795800000004423076993564026515_);">
			<path class="st19" d="M1304.3,608.4h1.1V717h-1.1V608.4z M1321.5,608.4h1.1v108.7h-1.1V608.4z"/>
			<path class="st19" d="M1287.2,746.8v43.6h-16.6v1.2h16.6v44.2h1.1v-44.2h16v44.2h1.1v-44.2h16v44.2h1.1v-44.2h16.6v-1.2h-16.6
				v-43.6h16.6v-1.2h-16.6v-44.2h-1.1v44.2h-16v-44.2h-1.1v44.2h-16v-44.2h-1.1v44.2h-16.6v1.2H1287.2z M1305.4,790.4v-43.6h16v43.6
				H1305.4z M1288.3,746.8h16v43.6h-16V746.8z"/>
			<path class="st19" d="M1339,700.2v1.1h-68.3v-1.1H1339z"/>
			<path class="st5" d="M1275.9,773.5l75.8,41.8c0.6,0.3,1.1,0.5,1,0.3l-3-11.7l-78-43l3,11.7
				C1274.8,772.7,1275.3,773.1,1275.9,773.5 M1275.7,884.2l92.3,52.2c0.7,0.4,1.2-0.6,1.1-2.2l-9.1-102.4l-95-53.8l9.1,102.4
				C1274.2,882.1,1274.9,883.8,1275.7,884.2L1275.7,884.2z"/>
			<path class="st19" d="M1340.9,653.7v1.1h-68.3v-1.1H1340.9z"/>
		</g>
	</g>
	<path class="st24" d="M275.8,566.3v-41.1c0-2.4,2-4.3,4.4-4.3s4.4,2,4.4,4.3v41.1 M302.5,566.8v-41.1c0-2.4,2-4.3,4.4-4.3
		s4.4,2,4.4,4.3v41.1"/>
	<path class="st24" d="M318,544.1h3.3c2.3,0,4.2,2.3,4.2,5.1v205.4c0,2.8-1.9,5.1-4.2,5.1h-74.8c-2.3,0-4.2-2.3-4.2-5.1V549.2
		c0-2.8,1.9-5.1,4.2-5.1H318z"/>
	<path class="st25" d="M300,758.1h-26.7v-36.2H300V758.1z"/>
	<path class="st26" d="M300,722.7h3.8v38.4H300V722.7z M269.6,721.9h3.8v38.4h-3.8V721.9z M266.9,720h39.5c1.1,0,2-0.9,2-2v-2h-43.6
		v2C264.9,719.1,265.8,720,266.9,720"/>
	<path class="st26" d="M269.1,723.7h35.2c1.1,0,2-0.9,2-2v-2h-39.3v2C267.1,722.8,268,723.7,269.1,723.7 M306.4,761.5h-39.5
		c-1.1,0-2,0.9-2,2v2h43.6v-2C308.5,762.4,307.5,761.5,306.4,761.5"/>
	<path class="st26" d="M304.2,758.2H269c-1.1,0-2,0.9-2,2v2h39.3v-2C306.3,759.1,305.4,758.2,304.2,758.2"/>
	<path class="st26" d="M255.4,553h57c2.8,0,5.1,2.3,5.1,5.1v146.2c0,2.8-2.3,5.1-5.1,5.1h-57c-2.8,0-5.1-2.3-5.1-5.1V558.1
		C250.3,555.3,252.6,553,255.4,553z"/>
	<path class="st25" d="M309.7,703.5h-51.1c-1.1,0-2-0.9-2-2V561.3c0-1.1,0.9-2,2-2h51.1c1.1,0,2,0.9,2,2v140.1
		C311.7,702.5,310.8,703.5,309.7,703.5z"/>
	<g>
		<defs>
			<path id="SVGID_00000000186946987722335240000003637012723996271803_" d="M309.7,703.5h-51.1c-1.1,0-2-0.9-2-2V561.3
				c0-1.1,0.9-2,2-2h51.1c1.1,0,2,0.9,2,2v140.1C311.7,702.5,310.8,703.5,309.7,703.5z"/>
		</defs>
		<clipPath id="SVGID_00000164488042938353268340000018414692321251200923_">
			<use xlink:href="#SVGID_00000000186946987722335240000003637012723996271803_"  style="overflow:visible;"/>
		</clipPath>
		<g style="clip-path:url(#SVGID_00000164488042938353268340000018414692321251200923_);">
			<path class="st26" d="M294.2,731.5H293v-369h1.2V731.5z"/>
			<path class="st28" d="M315,509.7h-60.9v-1.2H315V509.7z"/>
			<path class="st26" d="M315,558.5h-60.9v-1.2H315V558.5z M315,607.1h-60.9v-1.2H315V607.1z M315,656h-60.9v-1.2H315V656z"/>
			<path class="st28" d="M311.8,461.6h-39.2v-1.2h39.2V461.6z M313.7,412.8h-39.2v-1.2h39.2V412.8z"/>
			<path class="st26" d="M275.4,704.2h-1.2V496.2h1.2V704.2z"/>
			<path class="st5" d="M262.5,707.1l18.5,15.2c0.6,0.7,18.1,16,17.2,13l31.5,1.7L250.3,652l-0.9,51.5
				C250.3,706.5,261.9,706.4,262.5,707.1L262.5,707.1z M248.5,637.8l76.2,79.7c0.6,0.6,1,0.8,0.9,0.4l-9-25.5l-78.4-82l9,25.5
				C247.2,636.3,247.9,637.1,248.5,637.8L248.5,637.8z"/>
		</g>
	</g>
	<path class="st29" d="M631.6,850H518.3c-3.8,0-6.8-3.1-6.8-6.8V596.9c0-3.8,3.1-6.8,6.8-6.8h113.3c3.8,0,6.8,3.1,6.8,6.8v246.3
		C638.5,847,635.4,850,631.6,850z"/>
	<path class="st30" d="M586.2,597h38.4c2.4,0,4.3,1.9,4.3,4.3v236c0,2.4-1.9,4.3-4.3,4.3h-38.4c-2.4,0-4.3-1.9-4.3-4.3v-236
		C581.9,599,583.8,597,586.2,597z"/>
	<path class="st31" d="M621.4,836h-32c-0.9,0-1.7-0.8-1.7-1.7V604.7c0-0.9,0.8-1.7,1.7-1.7h32c0.9,0,1.7,0.8,1.7,1.7v229.6
		C623.1,835.3,622.3,836,621.4,836z"/>
	<g>
		<defs>
			<path id="SVGID_00000008859574329117950800000015765778779227825315_" d="M621.4,836h-32c-0.9,0-1.7-0.8-1.7-1.7V604.7
				c0-0.9,0.8-1.7,1.7-1.7h32c0.9,0,1.7,0.8,1.7,1.7v229.6C623.1,835.3,622.3,836,621.4,836z"/>
		</defs>
		<clipPath id="SVGID_00000160876166547467271720000006636095577338541235_">
			<use xlink:href="#SVGID_00000008859574329117950800000015765778779227825315_"  style="overflow:visible;"/>
		</clipPath>
		<g style="clip-path:url(#SVGID_00000160876166547467271720000006636095577338541235_);">
			<path class="st30" d="M605.6,863.1h-1.2V506.9h1.2V863.1z"/>
			<path class="st30" d="M626.5,649h-39.2v-1.2h39.2L626.5,649z M626.5,696.1h-39.2v-1.2h39.2L626.5,696.1z M626.5,743.1h-39.2v-1.2
				h39.2L626.5,743.1z M626.5,790.2h-39.2v-1.2h39.2L626.5,790.2z M623.2,602.6H584v-1.2h39.2L623.2,602.6z M625.1,555.5h-39.2v-1.2
				h39.2L625.1,555.5z"/>
			<path class="st5" d="M589.5,858.9l51.4,6.7c0.6,0.6,0.4-1.2-0.5-4.1l0.2-126.8l-79.3-81.9l24,187.8
				C586.3,843.5,588.9,858.3,589.5,858.9L589.5,858.9z M559.5,639.1l76.2,76.9c0.6,0.6,1,0.8,0.8,0.4l-9-24.7l-78.4-79.2l9,24.7
				C558.3,637.7,558.9,638.5,559.5,639.1L559.5,639.1z"/>
		</g>
	</g>
	<path class="st30" d="M525.8,597.2h38.4c2.4,0,4.3,1.9,4.3,4.3v236c0,2.4-1.9,4.3-4.3,4.3h-38.4c-2.4,0-4.3-1.9-4.3-4.3v-236
		C521.4,599.1,523.4,597.2,525.8,597.2z"/>
	<path class="st31" d="M561,836.2h-32c-0.9,0-1.7-0.8-1.7-1.7V604.9c0-0.9,0.8-1.7,1.7-1.7h32c0.9,0,1.7,0.8,1.7,1.7v229.6
		C562.7,835.4,561.9,836.2,561,836.2z"/>
	<g>
		<defs>
			<path id="SVGID_00000138574355368625089750000011826965792435174285_" d="M561,836.2h-32c-0.9,0-1.7-0.8-1.7-1.7V604.9
				c0-0.9,0.8-1.7,1.7-1.7h32c0.9,0,1.7,0.8,1.7,1.7v229.6C562.7,835.4,561.9,836.2,561,836.2z"/>
		</defs>
		<clipPath id="SVGID_00000026156267028233415120000010798049960061957795_">
			<use xlink:href="#SVGID_00000138574355368625089750000011826965792435174285_"  style="overflow:visible;"/>
		</clipPath>
		<g style="clip-path:url(#SVGID_00000026156267028233415120000010798049960061957795_);">
			<path class="st30" d="M545.2,863.3H544V507.1h1.2V863.3z"/>
			<path class="st30" d="M566,649.2h-39.2V648H566V649.2z M566,696.2h-39.2v-1.2H566V696.2z M566,743.2h-39.2V742H566V743.2z
				 M566,790.4h-39.2v-1.2H566V790.4z M562.8,602.7h-39.2v-1.2h39.2V602.7z M564.7,555.6h-39.2v-1.2h39.2V555.6z"/>
			<path class="st5" d="M529.1,859.1l51.4,6.7c0.6,0.6,0.4-1.2-0.5-4.1l0.2-126.8L500.9,653l24,187.8
				C525.8,843.6,528.5,858.4,529.1,859.1L529.1,859.1z M499.1,639.3l76.2,76.9c0.6,0.6,1,0.8,0.8,0.4l-9-24.7l-78.4-79.2l9,24.7
				C497.9,637.8,498.5,638.7,499.1,639.3L499.1,639.3z"/>
		</g>
	</g>
	<path class="st34" d="M85.5,455.3h21c0.2-14.6,12.9-26.3,28.5-26.3h7c1.2-13.7,13.5-24.4,28.4-24.4h6.1
		c2.9-11.9,14.2-20.9,27.8-20.9h51.3c13.6,0,24.9,8.9,27.8,20.9h14.6c14.9,0,27.1,10.7,28.4,24.4h13.5c15.6,0,28.2,11.8,28.5,26.3
		h14.5c9.5,0,17.2,7.2,17.2,16.2c0,8.9-7.7,16.2-17.2,16.2h-14.8c-0.3,14.5-12.9,26.3-28.5,26.3H149.8c-15.6,0-28.2-11.7-28.4-26.3
		H85.5c-9.5,0-17.2-7.2-17.2-16.2C68.3,462.6,76,455.3,85.5,455.3L85.5,455.3z M1336,605.9h24.5c0.2-12.5,10.3-22.6,22.9-22.6h0.8
		c1-11.7,10.8-20.9,22.8-20.9h102.6c12,0,21.8,9.2,22.8,20.9h15.7c12.5,0,22.7,10.1,22.9,22.6h4c7.6,0,13.8,6.2,13.8,13.8
		s-6.2,13.8-13.8,13.8H1543c-0.2,12.5-10.4,22.5-22.9,22.5h-152.4c-12.5,0-22.7-10-22.9-22.5h-8.8c-7.6,0-13.8-6.2-13.8-13.8
		S1328.4,605.9,1336,605.9 M582,616.9h20.5c1.7-6.6,7.7-11.5,14.8-11.5H690c7.2,0,13.1,4.9,14.8,11.5h11.4c5.5,0,10.1,4.5,10.1,10.1
		v5.1c0,5.5-4.5,10.1-10.1,10.1h-12.1c-1.4,7.9-8.3,14-16.6,14h-84c-8.3,0-15.2-6-16.6-14h-5c-5.5,0-10.1-4.5-10.1-10.1v-5.1
		C571.9,621.4,576.4,616.9,582,616.9"/>
	<path class="st35" d="M227.5,756.5h-340.1c0-20.9,17-37.9,37.9-37.9h264.4C210.5,718.6,227.5,735.6,227.5,756.5"/>
	<path class="st35" d="M379.5,786.2h-609.6c0-20.9,17-37.9,37.9-37.9h533.8C362.5,748.3,379.5,765.3,379.5,786.2"/>
	<path class="st35" d="M502.6,859.9h-646.2c-12.7,0-22.9-10.3-22.9-22.9v0c0-12.7,10.3-22.9,22.9-22.9h646.2
		c12.7,0,22.9,10.3,22.9,22.9v0C525.5,849.6,515.2,859.9,502.6,859.9z"/>
	<path class="st35" d="M481.5,816.9H-191c-0.3,0-0.5-0.2-0.5-0.5c0-20.6,16.7-37.4,37.4-37.4h598.8c20.6,0,37.4,16.7,37.4,37.4
		C482,816.7,481.8,816.9,481.5,816.9L481.5,816.9z"/>
	<path class="st35" d="M289.2,903.3h-405.8c-12.7,0-22.9-10.3-22.9-22.9v0c0-12.7,10.3-22.9,22.9-22.9h405.8
		c12.7,0,22.9,10.3,22.9,22.9v0C312.1,893,301.9,903.3,289.2,903.3z"/>
	<path class="st35" d="M179.9,940.3h-288.5c-12.7,0-22.9-10.3-22.9-22.9v0c0-12.7,10.3-22.9,22.9-22.9h288.5
		c12.7,0,22.9,10.3,22.9,22.9v0C202.8,930,192.5,940.3,179.9,940.3z"/>
	<path class="st36" d="M9.3,926.1H475c12.7,0,22.9,10.3,22.9,22.9v0c0,12.7-10.3,22.9-22.9,22.9H9.3c-12.7,0-22.9-10.3-22.9-22.9v0
		C-13.6,936.3-3.4,926.1,9.3,926.1z"/>
	<path class="st37" d="M860.6,1127.6H363.4c-12.7,0-22.9-10.3-22.9-22.9l0,0c0-12.7,10.3-22.9,22.9-22.9h497.2
		c12.7,0,22.9,10.3,22.9,22.9l0,0C883.5,1117.4,873.2,1127.6,860.6,1127.6z"/>
	<path class="st37" d="M806.5,1085.6H409.1c-0.3,0-0.5-0.2-0.5-0.5c0-20.6,16.7-37.4,37.4-37.4h323.8c20.6,0,37.4,16.7,37.4,37.4
		C807.1,1085.4,806.8,1085.6,806.5,1085.6L806.5,1085.6z"/>
	<path class="st37" d="M738,1047.8H480v-3.7c0-18.9,15.3-34.2,34.2-34.2h189.6c18.9,0,34.2,15.3,34.2,34.2V1047.8z M444.5,1126.5
		h362.6c0,20.9-17,37.9-37.9,37.9H482.4C461.5,1164.4,444.5,1147.4,444.5,1126.5L444.5,1126.5z"/>
	<path class="st38" d="M36.3,1120.7h550.4c12.7,0,22.9,10.3,22.9,22.9l0,0c0,12.7-10.3,22.9-22.9,22.9H36.3
		c-12.7,0-22.9-10.3-22.9-22.9l0,0C13.4,1130.9,23.6,1120.7,36.3,1120.7z"/>
	<path class="st38" d="M98.7,1086.6h394.6c20.6,0,37.4,16.7,37.4,37.4c0,0.3-0.2,0.5-0.5,0.5H61.8c-0.3,0-0.5-0.2-0.5-0.5
		C61.3,1103.4,78.1,1086.6,98.7,1086.6L98.7,1086.6z"/>
	<path class="st38" d="M150.1,1050.8h244.6c18.9,0,34.2,15.3,34.2,34.2v3.7h-313v-3.7C115.9,1066.2,131.3,1050.8,150.1,1050.8
		 M445.7,1204.3h-289c-20.9,0-37.9-17-37.9-37.9h364.7C483.6,1187.3,466.6,1204.3,445.7,1204.3"/>
	<path class="st39" d="M1608.4,748.3h211.2c20.9,0,37.9,17,37.9,37.9h-287C1570.5,765.2,1587.4,748.3,1608.4,748.3L1608.4,748.3z"/>
	<path class="st39" d="M1419.9,814h646.2c12.7,0,22.9,10.3,22.9,22.9v0c0,12.7-10.3,22.9-22.9,22.9h-646.2
		c-12.7,0-22.9-10.3-22.9-22.9v0C1397,824.3,1407.3,814,1419.9,814z"/>
	<path class="st39" d="M1477.8,779h598.8c20.6,0,37.4,16.7,37.4,37.4c0,0.3-0.2,0.5-0.5,0.5H1441c-0.3,0-0.5-0.2-0.5-0.5
		C1440.5,795.7,1457.2,779,1477.8,779L1477.8,779z"/>
	<path class="st39" d="M1633.3,857.4h405.8c12.7,0,22.9,10.3,22.9,22.9v0c0,12.7-10.3,22.9-22.9,22.9h-405.8
		c-12.7,0-22.9-10.3-22.9-22.9v0C1610.4,867.6,1620.6,857.4,1633.3,857.4z"/>
	<path class="st39" d="M1742.6,894.4h288.5c12.7,0,22.9,10.3,22.9,22.9v0c0,12.7-10.3,22.9-22.9,22.9h-288.5
		c-12.7,0-22.9-10.3-22.9-22.9v0C1719.7,904.7,1730,894.4,1742.6,894.4z"/>
	<path class="st40" d="M1077.8,1082.1H1575c12.7,0,22.9,10.3,22.9,22.9l0,0c0,12.7-10.3,22.9-22.9,22.9h-497.2
		c-12.7,0-22.9-10.3-22.9-22.9l0,0C1054.9,1092.4,1065.2,1082.1,1077.8,1082.1z"/>
	<path class="st40" d="M1168.7,1048.1h323.8c20.6,0,37.4,16.7,37.4,37.4c0,0.3-0.2,0.5-0.5,0.5h-397.5c-0.3,0-0.5-0.2-0.5-0.5
		C1131.4,1064.8,1148.1,1048.1,1168.7,1048.1L1168.7,1048.1z"/>
	<path class="st40" d="M1234.6,1010.3h189.6c18.9,0,34.2,15.3,34.2,34.2v3.7h-258v-3.7C1200.4,1025.6,1215.7,1010.3,1234.6,1010.3
		 M1456.1,1164.8h-286.8c-20.9,0-37.9-17-37.9-37.9h362.6C1493.9,1147.8,1477,1164.8,1456.1,1164.8L1456.1,1164.8z"/>
	<path class="st41" d="M832,969H163.5c0,20.9,17,37.9,37.9,37.9h592.8C815,1006.9,832,989.9,832,969L832,969z"/>
	<path class="st42" d="M659.5,883.5h-413c0-20.9,17-37.9,37.9-37.9h337.2C642.5,845.6,659.5,862.6,659.5,883.5L659.5,883.5z"/>
	<path class="st42" d="M715.6,912.2H168.5c0-20.9,17-37.9,37.9-37.9h471.4C698.6,874.3,715.6,891.3,715.6,912.2"/>
	<path class="st42" d="M784.6,982.9h-926.9c-12.7,0-22.9-10.3-22.9-22.9v0c0-12.7,10.3-22.9,22.9-22.9h926.9
		c12.7,0,22.9,10.3,22.9,22.9v0C807.5,972.6,797.2,982.9,784.6,982.9z"/>
	<path class="st42" d="M776.5,947.9h-692c0-20.9,17-37.9,37.9-37.9h616.3C759.5,910,776.5,927,776.5,947.9 M567.5,851.7H342.4
		c0-20.9,17-37.9,37.9-37.9h149.3C550.5,813.8,567.5,830.8,567.5,851.7L567.5,851.7z"/>
	<path class="st43" d="M1300.9,845.5h337.2c20.9,0,37.9,17,37.9,37.9h-413C1263,862.5,1280,845.5,1300.9,845.5L1300.9,845.5z"/>
	<path class="st43" d="M1244.8,874.2h471.3c20.9,0,37.9,17,37.9,37.9h-547.1C1206.9,891.2,1223.9,874.2,1244.8,874.2L1244.8,874.2z"
		/>
	<path class="st43" d="M1137.9,937h926.9c12.7,0,22.9,10.3,22.9,22.9v0c0,12.7-10.3,22.9-22.9,22.9h-926.9
		c-12.7,0-22.9-10.3-22.9-22.9v0C1115,947.2,1125.3,937,1137.9,937z"/>
	<path class="st43" d="M1183.9,909.9h616.2c20.9,0,37.9,17,37.9,37.9h-692C1146,926.9,1163,909.9,1183.9,909.9L1183.9,909.9z
		 M1392.9,813.8h149.3c20.9,0,37.9,17,37.9,37.9H1355C1355,830.8,1372,813.8,1392.9,813.8L1392.9,813.8z"/>
	<path class="st34" d="M1895.2,347.6h-53c-1.9-12.1-12.3-21.3-24.9-21.3h-24.1c-1.8-12.1-12.3-21.4-24.9-21.4h-17.8
		c-12.7,0-23.1,9.3-24.9,21.4h-0.5c-12.6,0-23.1,9.2-24.9,21.3h-15.5c-8.4,0-15.3,6.8-15.3,15.3s6.8,15.3,15.3,15.3h35.5
		c1.7,12.3,12.2,21.7,25,21.7h117.2c12.8,0,23.3-9.5,25-21.7h8c8.4,0,15.3-6.8,15.3-15.3S1903.7,347.6,1895.2,347.6"/>
	<g class="st44">
		<path class="st45" d="M195.1,405.6H26.5v-31h168.6L195.1,405.6z"/>
		<g>
			<defs>
				<rect id="SVGID_00000083806825983425539530000012893743377899562394_" x="26.5" y="374.7" width="168.6" height="31"/>
			</defs>
			<clipPath id="SVGID_00000024697314593812627950000009987851431901381038_">
				<use xlink:href="#SVGID_00000083806825983425539530000012893743377899562394_"  style="overflow:visible;"/>
			</clipPath>
			
				<path style="opacity:0.2;clip-path:url(#SVGID_00000024697314593812627950000009987851431901381038_);fill:#FFFFFF;enable-background:new    ;" d="
				M156,379.5l1.2,21.1l34.3,0.1l-0.2-9.1L156,379.5z M115.3,379.3l1.2,21.1l34.3,0.1l-0.2-9.1L115.3,379.3z M73.4,379.5l1.2,21.1
				l34.3,0.1l-0.2-9.1L73.4,379.5z M32,379.5l1.2,21.1l34.3,0.1l-0.2-9.1L32,379.5z"/>
		</g>
	</g>
	<path class="st47" d="M199.1,416.7h-9.6v-47.4h4.6c2.7,0,5,2.2,5,5V416.7z M158,416.8h-9.6v-47.5h9.6V416.8z M114.5,416.8h-9.6
		v-47.5h9.6V416.8z M29.9,416.8h-9.6v-42.5c0-2.7,2.2-5,5-5h4.6V416.8z M71.5,416.8h-9.6v-47.5h9.6V416.8z"/>
	<path class="st48" d="M-0.6,655.5h20.9V399.3c0-2.7,2.2-5,5-5c0,0,0,0,0,0h169c2.7,0,5,2.2,5,5l0,0v256.2h22.2c2.7,0,5,2.2,5,5V908
		c0,2.7-2.2,5-5,5h-222c-2.7,0-5-2.2-5-5V660.5C-5.5,657.7-3.3,655.5-0.6,655.5"/>
	<path class="st45" d="M132.9,913H86.7v-47.9h46.2V913z"/>
	<path class="st47" d="M85.5,865.1h4.8V913h-4.8V865.1z M129.3,865.2h4.8V913h-4.8V865.2z"/>
	<path class="st47" d="M84.2,858.8h50.9c1.1,0,2,0.9,2,2v5.2H82.2v-5.2C82.2,859.7,83.1,858.8,84.2,858.8 M91.3,840.5
		c-0.5,0-0.9-0.9-0.9-2.1V689.5c0-1.2,0.4-2.1,0.9-2.1h37.1c0.5,0,0.9,0.9,0.9,2.1v148.9c0,1.2-0.4,2.1-0.9,2.1"/>
	<path class="st47" d="M88.8,835.7h41.1c1.1,0,2,0.9,2,2v7.7H86.8v-7.7C86.8,836.6,87.7,835.7,88.8,835.7 M130.4,692.2H89.3
		c-1.1,0-2-0.9-2-2v-7.7h45v7.7C132.4,691.3,131.5,692.2,130.4,692.2 M154.7,903.2c-0.8,0-1.5-1.4-1.5-3.2v-231
		c0-1.8,0.7-3.2,1.5-3.2h59.1c0.8,0,1.5,1.4,1.5,3.2v231c0,1.8-0.7,3.2-1.5,3.2"/>
	<path class="st45" d="M207.8,897.7h-46.9c-1.1,0-2-0.9-2-2V672.4c0-1.1,0.9-2,2-2h46.9c1.1,0,2,0.9,2,2v223.3
		C209.8,896.8,208.9,897.7,207.8,897.7z"/>
	<g>
		<defs>
			<path id="SVGID_00000070809066774717164400000004603286456388791970_" d="M207.8,897.7h-46.9c-1.1,0-2-0.9-2-2V672.4
				c0-1.1,0.9-2,2-2h46.9c1.1,0,2,0.9,2,2v223.3C209.8,896.8,208.9,897.7,207.8,897.7z"/>
		</defs>
		<clipPath id="SVGID_00000048499045504573946440000009316014756948256136_">
			<use xlink:href="#SVGID_00000070809066774717164400000004603286456388791970_"  style="overflow:visible;"/>
		</clipPath>
		<g style="clip-path:url(#SVGID_00000048499045504573946440000009316014756948256136_);">
			<path class="st47" d="M174.9,670.4h1.1V779h-1.1V670.4z M192.1,670.4h1.1v108.7h-1.1V670.4z"/>
			<path class="st47" d="M157.8,808.8v43.6h-16.6v1.2h16.6v44.2h1.1v-44.2h16v44.2h1.1v-44.2h16v44.2h1.1v-44.2h16.6v-1.2h-16.6
				v-43.6h16.6v-1.2h-16.6v-44.2h-1.1v44.2h-16v-44.2h-1.1v44.2h-16v-44.2h-1.1v44.2h-16.6v1.2H157.8z M176.1,852.4v-43.6h16v43.6
				H176.1z M158.9,808.8h16v43.6h-16V808.8z"/>
			<path class="st47" d="M209.7,762.2v1.1h-68.3v-1.1H209.7z"/>
			<path class="st5" d="M135.2,747.5l91.4,88.7c0.7,0.7,1.3,1.1,1.3,0.8l0.3-17.7L134.2,728l-0.3,17.7
				C133.9,746,134.5,746.8,135.2,747.5 M128.9,879.6l75.2,74.7c0.6,0.6,1.3-0.2,1.6-1.8l18.2-101.2l-77.4-76.9l-18.2,101.2
				C128,877.2,128.2,879,128.9,879.6L128.9,879.6z"/>
			<path class="st47" d="M211.5,715.7v1.1h-68.3v-1.1H211.5z"/>
		</g>
	</g>
	<path class="st47" d="M120.6,648.2c-0.8,0-1.5-1.4-1.5-3.2V414c0-1.8,0.7-3.2,1.5-3.2h59.1c0.8,0,1.5,1.4,1.5,3.2v231
		c0,1.8-0.7,3.2-1.5,3.2"/>
	<path class="st45" d="M173.7,642.8h-46.9c-1.1,0-2-0.9-2-2V417.5c0-1.1,0.9-2,2-2h46.9c1.1,0,2,0.9,2,2v223.3
		C175.7,641.9,174.8,642.8,173.7,642.8z"/>
	<g>
		<defs>
			<path id="SVGID_00000178901492560893679280000012678557476428637873_" d="M173.7,642.8h-46.9c-1.1,0-2-0.9-2-2V417.5
				c0-1.1,0.9-2,2-2h46.9c1.1,0,2,0.9,2,2v223.3C175.7,641.9,174.8,642.8,173.7,642.8z"/>
		</defs>
		<clipPath id="SVGID_00000163783289497809554440000002378184469193284747_">
			<use xlink:href="#SVGID_00000178901492560893679280000012678557476428637873_"  style="overflow:visible;"/>
		</clipPath>
		<g style="clip-path:url(#SVGID_00000163783289497809554440000002378184469193284747_);">
			<path class="st47" d="M140.9,415.5h1.1V524h-1.1V415.5z M158.1,415.5h1.1v108.7h-1.1V415.5z"/>
			<path class="st47" d="M123.8,553.8v43.6h-16.6v1.2h16.6v44.2h1.1v-44.2h16v44.2h1.1v-44.2h16v44.2h1.1v-44.2h16.6v-1.2h-16.6
				v-43.6h16.6v-1.2h-16.6v-44.2H158v44.2h-16v-44.2h-1.1v44.2h-16v-44.2h-1.1v44.2h-16.6v1.2H123.8z M142,597.5v-43.6h16v43.6H142z
				 M124.9,553.8h16v43.6h-16L124.9,553.8z"/>
			<path class="st47" d="M175.6,507.2v1.1h-68.3v-1.1H175.6z"/>
			<path class="st5" d="M112.5,580.5l75.8,41.8c0.6,0.3,1.1,0.5,1,0.3l-3-11.7l-78-43l3,11.7C111.4,579.8,111.9,580.2,112.5,580.5
				 M112.2,691.3l92.3,52.2c0.7,0.4,1.2-0.6,1.1-2.2l-9.1-102.4l-95-53.8l9.1,102.4C110.8,689.2,111.5,690.8,112.2,691.3
				L112.2,691.3z"/>
			<path class="st47" d="M177.5,460.8v1.1h-68.3v-1.1H177.5z"/>
		</g>
	</g>
	<path class="st47" d="M6.8,903.2c-0.8,0-1.5-1.4-1.5-3.2V669c0-1.8,0.7-3.2,1.5-3.2h59.1c0.8,0,1.5,1.4,1.5,3.2v231
		c0,1.8-0.7,3.2-1.5,3.2"/>
	<path class="st45" d="M59.9,897.8H13c-1.1,0-2-0.9-2-2V672.5c0-1.1,0.9-2,2-2h46.9c1.1,0,2,0.9,2,2v223.3
		C61.9,896.9,61,897.8,59.9,897.8z"/>
	<g>
		<defs>
			<path id="SVGID_00000165192734225579289320000004089356370118815378_" d="M59.9,897.8H13c-1.1,0-2-0.9-2-2V672.5c0-1.1,0.9-2,2-2
				h46.9c1.1,0,2,0.9,2,2v223.3C61.9,896.9,61,897.8,59.9,897.8z"/>
		</defs>
		<clipPath id="SVGID_00000136372619978562090420000013901568351974711202_">
			<use xlink:href="#SVGID_00000165192734225579289320000004089356370118815378_"  style="overflow:visible;"/>
		</clipPath>
		<g style="clip-path:url(#SVGID_00000136372619978562090420000013901568351974711202_);">
			<path class="st47" d="M27.1,670.5h1.1V779h-1.1V670.5z M44.2,670.5h1.1v108.7h-1.1V670.5z"/>
			<path class="st47" d="M9.9,808.8v43.6H-6.6v1.2H9.9v44.2h1.1v-44.2h16v44.2h1.1v-44.2h16v44.2h1.1v-44.2h16.6v-1.2H45.3v-43.6
				h16.6v-1.2H45.3v-44.2h-1.1v44.2h-16v-44.2h-1.1v44.2h-16v-44.2H9.9v44.2H-6.6v1.2H9.9z M28.2,852.5v-43.6h16v43.6H28.2z
				 M11.1,808.8h16v43.6h-16V808.8z"/>
			<path class="st47" d="M61.8,762.2v1.1H-6.5v-1.1H61.8z"/>
			<path class="st5" d="M-12.6,747.6l91.4,88.7c0.7,0.7,1.3,1.1,1.3,0.8l0.3-17.7l-94.1-91.3l-0.3,17.7
				C-14,746.1-13.4,746.9-12.6,747.6 M-19,879.7l75.2,74.7c0.6,0.6,1.3-0.2,1.6-1.8L76,851.4l-77.4-76.9l-18.2,101.2
				C-19.9,877.3-19.6,879.1-19,879.7"/>
			<path class="st47" d="M63.7,715.8v1.1H-4.7v-1.1H63.7z"/>
		</g>
	</g>
	<path class="st47" d="M38.8,648.2c-0.8,0-1.5-1.4-1.5-3.2V414c0-1.8,0.7-3.2,1.5-3.2h59.1c0.8,0,1.5,1.4,1.5,3.2v231
		c0,1.8-0.7,3.2-1.5,3.2"/>
	<path class="st45" d="M91.9,642.8H45c-1.1,0-2-0.9-2-2V417.5c0-1.1,0.9-2,2-2h46.9c1.1,0,2,0.9,2,2v223.3
		C93.9,641.9,93,642.8,91.9,642.8z"/>
	<g>
		<defs>
			<path id="SVGID_00000020361184425828221870000010200516950458460080_" d="M91.9,642.8H45c-1.1,0-2-0.9-2-2V417.5c0-1.1,0.9-2,2-2
				h46.9c1.1,0,2,0.9,2,2v223.3C93.9,641.9,93,642.8,91.9,642.8z"/>
		</defs>
		<clipPath id="SVGID_00000011013183182962127050000000898731664300596902_">
			<use xlink:href="#SVGID_00000020361184425828221870000010200516950458460080_"  style="overflow:visible;"/>
		</clipPath>
		<g style="clip-path:url(#SVGID_00000011013183182962127050000000898731664300596902_);">
			<path class="st47" d="M59,415.5h1.1V524H59V415.5z M76.2,415.5h1.1v108.7h-1.1V415.5z"/>
			<path class="st47" d="M41.9,553.8v43.6H25.4v1.2h16.6v44.2H43v-44.2h16v44.2h1.1v-44.2h16v44.2h1.1v-44.2h16.6v-1.2H77.3v-43.6
				h16.6v-1.2H77.3v-44.2h-1.1v44.2h-16v-44.2H59v44.2H43v-44.2h-1.1v44.2H25.4v1.2H41.9z M60.2,597.5v-43.6h16v43.6H60.2z
				 M43,553.8h16v43.6H43V553.8z"/>
			<path class="st47" d="M93.8,507.2v1.1H25.4v-1.1H93.8z"/>
			<path class="st5" d="M30.6,580.5l75.8,41.8c0.6,0.3,1.1,0.5,1,0.3l-3-11.7l-78-43l3,11.7C29.5,579.8,30,580.2,30.6,580.5
				 M30.4,691.3l92.3,52.2c0.7,0.4,1.2-0.6,1.1-2.2l-9.1-102.4l-95-53.8l9.1,102.4C28.9,689.2,29.6,690.8,30.4,691.3L30.4,691.3z"/>
			<path class="st47" d="M95.6,460.8v1.1H27.3v-1.1H95.6z"/>
		</g>
	</g>
	<path class="st53" d="M1715.1,586h-53.2v-14.3h53.2V586z"/>
	<g>
		<defs>
			<rect id="SVGID_00000119080209853952201310000007687776114244147895_" x="1661.9" y="571.7" width="53.2" height="14.3"/>
		</defs>
		<clipPath id="SVGID_00000084496621471584401220000011926403540278340268_">
			<use xlink:href="#SVGID_00000119080209853952201310000007687776114244147895_"  style="overflow:visible;"/>
		</clipPath>
		
			<path style="opacity:0.2;clip-path:url(#SVGID_00000084496621471584401220000011926403540278340268_);fill:#FFFFFF;enable-background:new    ;" d="
			M1663.7,569.6l-12.2,17.5l27,9.5l5.5-7.4L1663.7,569.6z M1689.5,573l-1.5,21.3l28.1-5.7l0.9-9.2L1689.5,573z"/>
	</g>
	<path class="st55" d="M1715.1,591.1h-0.8c-1,0-1.8-0.8-1.8-1.8V571c0-1,0.8-1.8,1.8-1.8h0.8c1,0,1.8,0.8,1.8,1.8v18.4
		C1716.8,590.3,1716,591.1,1715.1,591.1z"/>
	<path class="st55" d="M1688.4,591.1h-0.8c-1,0-1.8-0.8-1.8-1.8v-18.4c0-1,0.8-1.8,1.8-1.8h0.8c1,0,1.8,0.8,1.8,1.8v18.4
		C1690.2,590.3,1689.4,591.1,1688.4,591.1z"/>
	<path class="st26" d="M1661.8,569.2h0.8c1,0,1.8,0.8,1.8,1.8v18.4c0,1-0.8,1.8-1.8,1.8h-0.8c-1,0-1.8-0.8-1.8-1.8v-18.4
		C1660.1,570,1660.9,569.2,1661.8,569.2z"/>
	<path class="st53" d="M1790.4,584.8h-53.2v-14.3h53.2V584.8z"/>
	<g>
		<defs>
			<rect id="SVGID_00000083806888818845913000000009230813620857156798_" x="1737.2" y="570.5" width="53.2" height="14.3"/>
		</defs>
		<clipPath id="SVGID_00000176023365979151740780000005359462551112483982_">
			<use xlink:href="#SVGID_00000083806888818845913000000009230813620857156798_"  style="overflow:visible;"/>
		</clipPath>
		<g style="clip-path:url(#SVGID_00000176023365979151740780000005359462551112483982_);">
			<path class="st5" d="M1736.2,571.6l-1.5,21.3l28.1-5.7l0.9-9.2L1736.2,571.6z"/>
			<path class="st5" d="M1766.2,570.2l-11.4,18.1l27.4,8.3l5.2-7.7L1766.2,570.2z"/>
		</g>
	</g>
	<path class="st26" d="M1789.5,568h0.8c1,0,1.8,0.8,1.8,1.8v18.4c0,1-0.8,1.8-1.8,1.8h-0.8c-1,0-1.8-0.8-1.8-1.8v-18.4
		C1787.8,568.8,1788.6,568,1789.5,568z"/>
	<path class="st55" d="M1763.7,590h-0.8c-1,0-1.8-0.8-1.8-1.8v-18.4c0-1,0.8-1.8,1.8-1.8h0.8c1,0,1.8,0.8,1.8,1.8v18.4
		C1765.4,589.2,1764.6,590,1763.7,590z"/>
	<path class="st55" d="M1737.8,590h-0.8c-1,0-1.8-0.8-1.8-1.8v-18.4c0-1,0.8-1.8,1.8-1.8h0.8c1,0,1.8,0.8,1.8,1.8v18.4
		C1739.6,589.2,1738.8,590,1737.8,590z"/>
	<path class="st24" d="M1663.5,582.7h20.5V379.6c0-2.8,2.3-5.1,5.1-5.1h33.5v-41.1c0-2.4,1.9-4.4,4.3-4.4s4.3,2,4.3,4.4v41.1h31.7
		c2.8,0,5.1,2.3,5.1,5.1v203.1h20.5c2.8,0,5.1,2.3,5.1,5.1v348.6c0,2.8-2.3,5.1-5.1,5.1h-125.1c-2.8,0-5.1-2.3-5.1-5.1V587.8
		C1658.4,585,1660.7,582.7,1663.5,582.7L1663.5,582.7z"/>
	<path class="st26" d="M1698.2,382h57c2.8,0,5.1,2.3,5.1,5.1V575c0,2.8-2.3,5.1-5.1,5.1h-57c-2.8,0-5.1-2.3-5.1-5.1V387.1
		C1693.1,384.3,1695.4,382,1698.2,382z"/>
	<path class="st26" d="M1740.1,592.2h36.9c2.8,0,5.1,2.3,5.1,5.1v328.6c0,2.8-2.3,5.1-5.1,5.1h-36.9c-2.8,0-5.1-2.3-5.1-5.1V597.2
		C1735.1,594.4,1737.3,592.2,1740.1,592.2z"/>
	<path class="st26" d="M1676.2,592.2h36.9c2.8,0,5.1,2.3,5.1,5.1v328.6c0,2.8-2.3,5.1-5.1,5.1h-36.9c-2.8,0-5.1-2.3-5.1-5.1V597.3
		C1671.2,594.5,1673.4,592.2,1676.2,592.2z"/>
	<path class="st25" d="M1710.4,925.3h-31.3c-1.1,0-2-0.9-2-2V599.8c0-1.1,0.9-2,2-2h31.3c1.1,0,2,0.9,2,2v323.5
		C1712.4,924.4,1711.5,925.3,1710.4,925.3z"/>
	<g>
		<defs>
			<path id="SVGID_00000008151445008979824220000015744259481442029210_" d="M1710.4,925.3h-31.3c-1.1,0-2-0.9-2-2V599.8
				c0-1.1,0.9-2,2-2h31.3c1.1,0,2,0.9,2,2v323.5C1712.4,924.4,1711.5,925.3,1710.4,925.3z"/>
		</defs>
		<clipPath id="SVGID_00000106141518484193879030000013697102937918928566_">
			<use xlink:href="#SVGID_00000008151445008979824220000015744259481442029210_"  style="overflow:visible;"/>
		</clipPath>
		<g style="clip-path:url(#SVGID_00000106141518484193879030000013697102937918928566_);">
			<path class="st26" d="M1694.9,952.4h-1.2V596.2h1.2V952.4z"/>
			<path class="st26" d="M1715.8,738.3h-39.2v-1.2h39.2V738.3z M1715.8,785.3h-39.2v-1.2h39.2V785.3z M1715.8,832.3h-39.2v-1.2h39.2
				V832.3z M1715.8,879.5h-39.2v-1.2h39.2V879.5z M1712.5,691.8h-39.2v-1.2h39.2V691.8z M1714.4,644.8h-39.2v-1.2h39.2V644.8z"/>
			<path class="st5" d="M1678.9,948.2l51.4,6.7c0.6,0.6,0.4-1.2-0.5-4.1L1730,824l-79.3-81.9l24,187.8
				C1675.6,932.7,1678.2,947.6,1678.9,948.2L1678.9,948.2z M1648.8,728.4l76.2,76.9c0.6,0.6,1,0.8,0.8,0.4l-9-24.7l-78.4-79.2
				l9,24.7C1647.6,727,1648.2,727.8,1648.8,728.4L1648.8,728.4z"/>
		</g>
	</g>
	<path class="st25" d="M1752.5,574.4h-51.1c-1.1,0-2-0.9-2-2V389.6c0-1.1,0.9-2,2-2h51.1c1.1,0,2,0.9,2,2v182.8
		C1754.5,573.5,1753.6,574.4,1752.5,574.4z"/>
	<g>
		<defs>
			<path id="SVGID_00000060709668598724186770000017743801500641727931_" d="M1752.5,574.4h-51.1c-1.1,0-2-0.9-2-2V389.6
				c0-1.1,0.9-2,2-2h51.1c1.1,0,2,0.9,2,2v182.8C1754.5,573.5,1753.6,574.4,1752.5,574.4z"/>
		</defs>
		<clipPath id="SVGID_00000073708991566947420440000001472396656436134286_">
			<use xlink:href="#SVGID_00000060709668598724186770000017743801500641727931_"  style="overflow:visible;"/>
		</clipPath>
		<g style="clip-path:url(#SVGID_00000073708991566947420440000001472396656436134286_);">
			<path class="st26" d="M1737,601.5h-1.2V245.3h1.2V601.5z"/>
			<path class="st28" d="M1757.8,387.4h-60.9v-1.2h60.9V387.4z"/>
			<path class="st26" d="M1757.8,434.4h-60.9v-1.2h60.9V434.4z M1757.8,481.4h-60.9v-1.2h60.9V481.4z M1757.8,528.6h-60.9v-1.2h60.9
				V528.6z"/>
			<path class="st28" d="M1754.6,340.9h-39.2v-1.2h39.2V340.9z M1756.5,293.8h-39.2v-1.2h39.2V293.8z"/>
			<path class="st26" d="M1718.2,575.1h-1.2V374.3h1.2V575.1z"/>
			<path class="st5" d="M1705.3,577.9l18.4,14.6c0.6,0.6,18.1,15.4,17.2,12.5l31.5,1.6l-79.3-81.9l-0.9,49.7
				C1693.1,577.3,1704.7,577.2,1705.3,577.9L1705.3,577.9z M1691.3,511l76.2,76.9c0.6,0.6,1,0.8,0.8,0.4l-9-24.7l-78.4-79.2l9,24.7
				C1690,509.6,1690.7,510.4,1691.3,511L1691.3,511z"/>
		</g>
	</g>
	<path class="st25" d="M1774.3,925.4h-31.3c-1.1,0-2-0.9-2-2V599.9c0-1.1,0.9-2,2-2h31.3c1.1,0,2,0.9,2,2v323.5
		C1776.3,924.4,1775.4,925.4,1774.3,925.4z"/>
	<g>
		<defs>
			<path id="SVGID_00000096781698207335839290000015752996932582398088_" d="M1774.3,925.4h-31.3c-1.1,0-2-0.9-2-2V599.9
				c0-1.1,0.9-2,2-2h31.3c1.1,0,2,0.9,2,2v323.5C1776.3,924.4,1775.4,925.4,1774.3,925.4z"/>
		</defs>
		<clipPath id="SVGID_00000018210461774750385530000006435892072655639981_">
			<use xlink:href="#SVGID_00000096781698207335839290000015752996932582398088_"  style="overflow:visible;"/>
		</clipPath>
		<g style="clip-path:url(#SVGID_00000018210461774750385530000006435892072655639981_);">
			<path class="st26" d="M1758.8,952.4h-1.2V596.2h1.2V952.4z"/>
			<path class="st26" d="M1779.6,738.3h-39.2v-1.2h39.2V738.3z M1779.6,785.4h-39.2v-1.2h39.2V785.4z M1779.6,832.4h-39.2v-1.2h39.2
				V832.4z M1779.6,879.5h-39.2v-1.2h39.2V879.5z M1776.4,691.9h-39.2v-1.2h39.2V691.9z M1778.3,644.8H1739v-1.2h39.2V644.8z"/>
			<path class="st5" d="M1742.7,948.2l51.4,6.7c0.6,0.6,0.4-1.2-0.5-4.1l0.2-126.8l-79.3-81.9l24,187.8
				C1739.5,932.8,1742.1,947.6,1742.7,948.2L1742.7,948.2z M1712.7,728.4l76.2,76.9c0.6,0.6,1,0.8,0.8,0.4l-9-24.7l-78.4-79.2
				l9,24.7C1711.5,727,1712.1,727.8,1712.7,728.4L1712.7,728.4z"/>
		</g>
	</g>
	<path class="st60" d="M374.6,619h113.9c2.9,0,5.2,2.3,5.2,5.2v368.5c0,2.9-2.3,5.2-5.2,5.2H374.6c-2.9,0-5.2-2.3-5.2-5.2V624.2
		C369.5,621.3,371.8,619,374.6,619z"/>
	<path class="st61" d="M459.2,643.9h15.3c2.9,0,5.2,2.3,5.2,5.2v330.5c0,2.9-2.3,5.2-5.2,5.2h-15.3c-2.9,0-5.2-2.3-5.2-5.2V649
		C454,646.2,456.3,643.9,459.2,643.9z"/>
	<path class="st61" d="M388.9,643.8h15.3c2.9,0,5.2,2.3,5.2,5.2v330.5c0,2.9-2.3,5.2-5.2,5.2h-15.3c-2.9,0-5.2-2.3-5.2-5.2V648.9
		C383.7,646.1,386.1,643.8,388.9,643.8z"/>
	<path class="st61" d="M423.7,629.5h15.3c2.9,0,5.2,2.3,5.2,5.2v330.5c0,2.9-2.3,5.2-5.2,5.2h-15.3c-2.9,0-5.2-2.3-5.2-5.2V634.6
		C418.5,631.8,420.9,629.5,423.7,629.5z"/>
	<path class="st62" d="M473.9,981.4H460c-1.1,0-2.1-0.9-2.1-2.1v-330c0-1.1,0.9-2.1,2.1-2.1h13.9c1.1,0,2.1,0.9,2.1,2.1v330
		C476,980.5,475,981.4,473.9,981.4z"/>
	<g>
		<defs>
			<path id="SVGID_00000021111925827926495540000002872743133947737015_" d="M473.9,981.4H460c-1.1,0-2.1-0.9-2.1-2.1v-330
				c0-1.1,0.9-2.1,2.1-2.1h13.9c1.1,0,2.1,0.9,2.1,2.1v330C476,980.5,475,981.4,473.9,981.4z"/>
		</defs>
		<clipPath id="SVGID_00000093874943497448782010000008938151925366659738_">
			<use xlink:href="#SVGID_00000021111925827926495540000002872743133947737015_"  style="overflow:visible;"/>
		</clipPath>
		<g style="clip-path:url(#SVGID_00000093874943497448782010000008938151925366659738_);">
			<path class="st61" d="M439.4,789.4h40v1.2h-40V789.4z M439.4,837.5h40v1.2h-40V837.5z M439.4,885.4h40v1.2h-40V885.4z
				 M439.4,933.5h40v1.2h-40V933.5z M436,742.1h40v1.2h-40V742.1z M438,694h40v1.2h-40V694z"/>
			<path class="st5" d="M441.7,1004.8l52.5,6.9c0.6,0.7,0.4-1.2-0.5-4.2l0.2-129.4L413,794.5L437.5,986
				C438.4,989,441.1,1004.1,441.7,1004.8L441.7,1004.8z"/>
		</g>
	</g>
	<path class="st62" d="M438.4,966.8h-13.9c-1.1,0-2.1-0.9-2.1-2.1v-330c0-1.1,0.9-2.1,2.1-2.1h13.9c1.1,0,2.1,0.9,2.1,2.1v330
		C440.5,965.8,439.6,966.8,438.4,966.8z"/>
	<g>
		<defs>
			<path id="SVGID_00000064345109849555880120000016943781848359246232_" d="M438.4,966.8h-13.9c-1.1,0-2.1-0.9-2.1-2.1v-330
				c0-1.1,0.9-2.1,2.1-2.1h13.9c1.1,0,2.1,0.9,2.1,2.1v330C440.5,965.8,439.6,966.8,438.4,966.8z"/>
		</defs>
		<clipPath id="SVGID_00000137850933107185819870000014832935593062777512_">
			<use xlink:href="#SVGID_00000064345109849555880120000016943781848359246232_"  style="overflow:visible;"/>
		</clipPath>
		<g style="clip-path:url(#SVGID_00000137850933107185819870000014832935593062777512_);">
			<path class="st61" d="M403.9,774.8h40v1.2h-40V774.8z M403.9,822.8h40v1.2h-40V822.8z M403.9,870.7h40v1.2h-40V870.7z
				 M403.9,918.8h40v1.2h-40V918.8z M400.6,727.4h40v1.2h-40V727.4z M402.5,679.4h40v1.2h-40V679.4z"/>
			<path class="st5" d="M406.3,990.1l52.5,6.9c0.6,0.7,0.4-1.2-0.5-4.2l0.2-129.4l-80.9-83.6L402,971.4
				C402.9,974.3,405.6,989.5,406.3,990.1L406.3,990.1z"/>
		</g>
	</g>
	<path class="st62" d="M403.2,981.1h-13.9c-1.1,0-2.1-0.9-2.1-2.1V649.1c0-1.1,0.9-2.1,2.1-2.1h13.9c1.1,0,2.1,0.9,2.1,2.1V979
		C405.3,980.2,404.4,981.1,403.2,981.1z"/>
	<g>
		<defs>
			<path id="SVGID_00000006670888256895239830000002419016546350244784_" d="M403.2,981.1h-13.9c-1.1,0-2.1-0.9-2.1-2.1V649.1
				c0-1.1,0.9-2.1,2.1-2.1h13.9c1.1,0,2.1,0.9,2.1,2.1V979C405.3,980.2,404.4,981.1,403.2,981.1z"/>
		</defs>
		<clipPath id="SVGID_00000150090518464054691030000007973228691044815262_">
			<use xlink:href="#SVGID_00000006670888256895239830000002419016546350244784_"  style="overflow:visible;"/>
		</clipPath>
		<g style="clip-path:url(#SVGID_00000150090518464054691030000007973228691044815262_);">
			<path class="st61" d="M368.7,789.1h40v1.2h-40V789.1z M368.7,837.1h40v1.2h-40V837.1z M368.7,885h40v1.2h-40V885z M368.7,933.2
				h40v1.2h-40V933.2z M365.4,741.8h40v1.2h-40V741.8z M367.3,693.7h40v1.2h-40V693.7z"/>
			<path class="st5" d="M371,1004.4l52.5,6.9c0.6,0.7,0.4-1.2-0.5-4.2l0.2-129.4l-80.9-83.6l24.5,191.5
				C367.7,988.7,370.4,1003.8,371,1004.4L371,1004.4z"/>
		</g>
	</g>
	<path class="st66" d="M347.9,817.6h-77.6V806h77.6V817.6z"/>
	<g>
		<defs>
			<rect id="SVGID_00000134248561496485614000000007993555854753662905_" x="270.3" y="806" width="77.6" height="11.6"/>
		</defs>
		<clipPath id="SVGID_00000030481765774587142370000001908631932970905755_">
			<use xlink:href="#SVGID_00000134248561496485614000000007993555854753662905_"  style="overflow:visible;"/>
		</clipPath>
		
			<path style="opacity:0.2;clip-path:url(#SVGID_00000030481765774587142370000001908631932970905755_);fill:#FFFFFF;enable-background:new    ;" d="
			M310.1,808.8l0.5,11.2l34.9-0.7l0.5-5.6L310.1,808.8z M271,808.1l0.5,11.2l34.9-0.7l0.5-5.6L271,808.1z"/>
	</g>
	<path class="st12" d="M349.7,821.8h-4.4V804h0.8c2,0,3.6,1.6,3.6,3.6V821.8L349.7,821.8z M311,821.8h-4.4V804h4.4V821.8z
		 M271.9,821.8h-4.4v-14.2c0-2,1.6-3.6,3.6-3.6h0.8V821.8L271.9,821.8z M291.2,821.8h-4.4V804h4.4V821.8z M330.3,821.8h-4.4V804h4.4
		V821.8z"/>
	<path class="st11" d="M349.8,930.5h-82V818.6c0-2.8,2.3-5.1,5.1-5.1h71.8c2.8,0,5.1,2.3,5.1,5.1L349.8,930.5z"/>
	<path class="st12" d="M279.9,820.5h56.8c2.8,0,5.1,2.3,5.1,5.1v92.8c0,2.8-2.3,5.1-5.1,5.1h-56.8c-2.8,0-5.1-2.3-5.1-5.1v-92.8
		C274.8,822.8,277.1,820.5,279.9,820.5z"/>
	<path class="st13" d="M333.8,918.5h-51.1c-1.1,0-2-0.9-2-2V828c0-1.1,0.9-2,2-2h51.1c1.1,0,2,0.9,2,2v88.5
		C335.8,917.6,334.9,918.5,333.8,918.5z"/>
	<g>
		<defs>
			<path id="SVGID_00000082360219918788360440000001461897250027200907_" d="M333.8,918.5h-51.1c-1.1,0-2-0.9-2-2V828
				c0-1.1,0.9-2,2-2h51.1c1.1,0,2,0.9,2,2v88.5C335.8,917.6,334.9,918.5,333.8,918.5z"/>
		</defs>
		<clipPath id="SVGID_00000102524518862674796690000009121383934813454266_">
			<use xlink:href="#SVGID_00000082360219918788360440000001461897250027200907_"  style="overflow:visible;"/>
		</clipPath>
		<g style="clip-path:url(#SVGID_00000102524518862674796690000009121383934813454266_);">
			<path class="st12" d="M318.3,1039.9h-1.2V683.7h1.2V1039.9z"/>
			<path class="st28" d="M339.2,825.7h-60.9v-1.2h60.9L339.2,825.7z"/>
			<path class="st12" d="M339.2,872.8h-60.9v-1.2h60.9L339.2,872.8z M339.2,919.8h-60.9v-1.2h60.9L339.2,919.8z M339.2,967h-60.9
				v-1.2h60.9L339.2,967z"/>
			<path class="st28" d="M335.9,779.3h-39.2v-1.2h39.2V779.3z M337.8,732.2h-39.2v-1.2h39.2V732.2z"/>
			<path class="st12" d="M299.5,1013.5h-1.2V812.7h1.2V1013.5z"/>
			<path class="st5" d="M292.6,930.3l18.5,14.6c0.6,0.6,18.1,15.4,17.2,12.5l31.5,1.6l-79.4-81.9l-0.9,49.7
				C280.5,929.7,292,929.6,292.6,930.3L292.6,930.3z M278.6,863.4l76.2,76.9c0.6,0.6,1,0.8,0.9,0.4l-9-24.7l-78.4-79.2l9,24.7
				C277.4,862,278,862.8,278.6,863.4L278.6,863.4z"/>
		</g>
	</g>
	<path class="st12" d="M267.1,930.2h82.8c2.8,0,5.1,2.3,5.1,5.1v0c0,2.8-2.3,5.1-5.1,5.1h-82.8c-2.8,0-5.1-2.3-5.1-5.1v0
		C262,932.5,264.3,930.2,267.1,930.2z"/>
	<path class="st12" d="M258,935.3h99.8c2.8,0,5.1,2.3,5.1,5.1v0c0,2.8-2.3,5.1-5.1,5.1H258c-2.8,0-5.1-2.3-5.1-5.1v0
		C252.9,937.6,255.2,935.3,258,935.3z"/>
	<path class="st69" d="M1592.5,828.5h-111.6v-21.1h111.6V828.5z"/>
	<g>
		<defs>
			<rect id="SVGID_00000145033304689351824240000018041530759426037897_" x="1480.9" y="807.3" width="111.6" height="21.1"/>
		</defs>
		<clipPath id="SVGID_00000091707671777408142140000014606960232234785444_">
			<use xlink:href="#SVGID_00000145033304689351824240000018041530759426037897_"  style="overflow:visible;"/>
		</clipPath>
		<g style="clip-path:url(#SVGID_00000091707671777408142140000014606960232234785444_);">
			<path class="st5" d="M1314.6,813.2l1.4,21.1l53.2-1.1v-13.7L1314.6,813.2z M1426.2,813l1.4,21.1l53.2-1.1v-13.7L1426.2,813z"/>
			<path class="st5" d="M1367.2,813l1.4,21.1l53.2-1.1v-13.7L1367.2,813z"/>
		</g>
	</g>
	<path class="st71" d="M1599.8,837h-7.3v-32.4h3.9c1.8,0,3.3,1.5,3.3,3.3L1599.8,837L1599.8,837z M1541.2,837.1h-6.8v-32.4h6.8
		V837.1z M1483.5,837.1h-6V808c0-1.8,1.5-3.3,3.3-3.3h2.7V837.1L1483.5,837.1z"/>
	<path class="st72" d="M1594.7,975.7h-112.8c-2.8,0-5.1-2.3-5.1-5.1V816.8c0-2.8,2.3-5.1,5.1-5.1h112.8c2.8,0,5.1,2.3,5.1,5.1v153.8
		C1599.8,973.4,1597.5,975.7,1594.7,975.7z"/>
	<path class="st71" d="M1489.5,819.7h39.2c2.8,0,5.1,2.3,5.1,5.1v97.9c0,2.8-2.3,5.1-5.1,5.1h-39.2c-2.8,0-5.1-2.3-5.1-5.1v-97.9
		C1484.4,821.9,1486.7,819.7,1489.5,819.7z"/>
	<path class="st73" d="M1524.7,921.8h-32c-1.1,0-2-0.9-2-2v-92.1c0-1.1,0.9-2,2-2h32c1.1,0,2,0.9,2,2v92.1
		C1526.8,920.9,1525.9,921.8,1524.7,921.8z"/>
	<g>
		<defs>
			<path id="SVGID_00000147214266433588981830000003786431575521895573_" d="M1524.7,921.8h-32c-1.1,0-2-0.9-2-2v-92.1
				c0-1.1,0.9-2,2-2h32c1.1,0,2,0.9,2,2v92.1C1526.8,920.9,1525.9,921.8,1524.7,921.8z"/>
		</defs>
		<clipPath id="SVGID_00000069398224995750090800000017325227595289665209_">
			<use xlink:href="#SVGID_00000147214266433588981830000003786431575521895573_"  style="overflow:visible;"/>
		</clipPath>
		<g style="clip-path:url(#SVGID_00000069398224995750090800000017325227595289665209_);">
			<path class="st75" d="M1549.2,728.1h-60.9v-1.2h60.9V728.1z"/>
			<path class="st71" d="M1549.2,776.8h-60.9v-1.2h60.9V776.8z M1549.2,874.4h-60.9v-1.2h60.9V874.4z"/>
			<path class="st75" d="M1545.9,680h-39.2v-1.2h39.2V680z M1547.8,631.2h-39.2V630h39.2V631.2z"/>
			<path class="st71" d="M1509.5,922.5h-1.2V714.6h1.2V922.5z"/>
			<path class="st5" d="M1496.6,925.4l18.4,15.2c0.6,0.7,18.1,16,17.2,13l31.5,1.7l-79.3-84.9l-0.9,51.5
				C1484.5,924.8,1496,924.8,1496.6,925.4L1496.6,925.4z M1482.6,856.2l76.2,79.7c0.6,0.6,1,0.8,0.8,0.4l-9-25.5l-78.4-82l9,25.5
				C1481.4,854.7,1482,855.5,1482.6,856.2L1482.6,856.2z"/>
			<path class="st71" d="M1547.1,1038.7h-1.2v-369h1.2V1038.7z M1585.3,949.9h-1.2v-369h1.2V949.9z"/>
		</g>
	</g>
	<path class="st71" d="M1546.3,819.7h39.2c2.8,0,5.1,2.3,5.1,5.1v97.9c0,2.8-2.3,5.1-5.1,5.1h-39.2c-2.8,0-5.1-2.3-5.1-5.1v-97.9
		C1541.2,821.9,1543.5,819.7,1546.3,819.7z"/>
	<path class="st73" d="M1581.5,921.8h-32c-1.1,0-2-0.9-2-2v-92.1c0-1.1,0.9-2,2-2h32c1.1,0,2,0.9,2,2v92.1
		C1583.5,920.9,1582.6,921.8,1581.5,921.8z"/>
	<g>
		<defs>
			<path id="SVGID_00000137838571023604448150000003144223622754110892_" d="M1581.5,921.8h-32c-1.1,0-2-0.9-2-2v-92.1
				c0-1.1,0.9-2,2-2h32c1.1,0,2,0.9,2,2v92.1C1583.5,920.9,1582.6,921.8,1581.5,921.8z"/>
		</defs>
		<clipPath id="SVGID_00000025417955055487884300000004990150480571237003_">
			<use xlink:href="#SVGID_00000137838571023604448150000003144223622754110892_"  style="overflow:visible;"/>
		</clipPath>
		<g style="clip-path:url(#SVGID_00000025417955055487884300000004990150480571237003_);">
			<path class="st75" d="M1605.9,728.1H1545v-1.2h60.9V728.1z"/>
			<path class="st71" d="M1605.9,776.8H1545v-1.2h60.9V776.8z M1605.9,874.4H1545v-1.2h60.9V874.4z"/>
			<path class="st75" d="M1602.7,680h-39.2v-1.2h39.2V680z M1604.6,631.2h-39.2V630h39.2V631.2z"/>
			<path class="st71" d="M1566.3,922.5h-1.2V714.6h1.2V922.5z"/>
			<path class="st5" d="M1553.4,925.4l18.4,15.2c0.6,0.7,18.1,16,17.2,13l31.5,1.7l-79.3-84.9l-0.9,51.5
				C1541.2,924.8,1552.8,924.8,1553.4,925.4L1553.4,925.4z M1539.4,856.2l76.2,79.7c0.6,0.6,1,0.8,0.8,0.4l-9-25.5l-78.4-82l9,25.5
				C1538.1,854.7,1538.8,855.5,1539.4,856.2L1539.4,856.2z"/>
			<path class="st71" d="M1603.8,1038.7h-1.2v-369h1.2V1038.7z M1642,949.9h-1.2v-369h1.2V949.9z"/>
		</g>
	</g>
	<path class="st73" d="M1555.1,975.5h-33.8v-36.2h33.8V975.5z"/>
	<path class="st71" d="M1555.1,940.2h4.8v38.4h-4.8V940.2z M1516.5,939.3h4.8v38.4h-4.8V939.3z M1512.6,937.5h51.2
		c1.1,0,2.1-0.9,2.1-2v-2h-55.3v2C1510.5,936.6,1511.4,937.5,1512.6,937.5L1512.6,937.5z"/>
	<path class="st71" d="M1515.3,941.2h45.7c1.1,0,2.1-0.9,2.1-2v-2h-49.8v2C1513.3,940.3,1514.2,941.2,1515.3,941.2 M1563.8,979
		h-51.2c-1.1,0-2.1,0.9-2.1,2v2h55.3v-2C1565.8,979.9,1564.9,979,1563.8,979L1563.8,979z"/>
	<path class="st71" d="M1561,975.7h-45.7c-1.1,0-2.1,0.9-2.1,2v2h49.8v-2C1563,976.6,1562.1,975.7,1561,975.7"/>
	<path class="st34" d="M556.1,753.3h-11.5c-1.1-9.7-9.7-17.5-20.6-19.1c-1.2-10.5-11-18.8-23.1-19.5c-1-11.1-11.7-19.8-24.8-19.8
		h-25.8c-13,0-23.7,8.7-24.8,19.8c-12.3,0.5-22.2,8.7-23.5,19.2h-14c-12.9,0-23.5,8.5-24.7,19.4H354c-8.3,0-15,5.8-15,13.1
		c0,7.2,6.7,13.1,15,13.1h28.8c1.7,10.5,12,18.6,24.6,18.6h95.2c12.5,0,22.9-8.1,24.6-18.6h28.9c8.3,0,15-5.8,15-13.1
		C571.1,759.2,564.4,753.3,556.1,753.3 M1610.5,646.8h10.1V646c0-10,8.1-18.2,18.2-18.2h96.4c10,0,18.2,8.1,18.2,18.2v0.7h24.7
		c6.5,0,11.7,5.2,11.7,11.7v4.2c0,6.5-5.2,11.7-11.7,11.7h-1.7c-1.2,9.6-9.3,17-19.2,17h-103.3c-9.9,0-18.1-7.4-19.2-17h-24.2
		c-6.5,0-11.7-5.2-11.7-11.7v-4.2C1598.8,652,1604,646.8,1610.5,646.8L1610.5,646.8z"/>
	<path class="st77" d="M1141.2,893H779.1c0-19.2,15.6-34.8,34.8-34.8h292.5C1125.6,858.2,1141.2,873.8,1141.2,893"/>
	<path class="st77" d="M1252.8,923.2H663.6c0-19.2,15.6-34.8,34.8-34.8H1218C1237.2,888.4,1252.8,904,1252.8,923.2"/>
	<path class="st77" d="M1422.6,993.3H491.9c-11.6,0-21-9.4-21-21v0c0-11.6,9.4-21,21-21h930.7c11.6,0,21,9.4,21,21v0
		C1443.7,983.9,1434.2,993.3,1422.6,993.3z"/>
	<path class="st77" d="M1351.7,954.3h-787c0-19.2,15.6-34.8,34.8-34.8h717.4C1336.1,919.5,1351.7,935.1,1351.7,954.3 M526.5,987.9
		h865c0,19.2-15.6,34.8-34.8,34.8H561.3C542.1,1022.7,526.5,1007.1,526.5,987.9"/>
	<path class="st77" d="M606.5,1017.3h702c0,19.2-15.6,34.8-34.8,34.8H641.3C622.1,1052.1,606.5,1036.5,606.5,1017.3"/>
	<path class="st77" d="M712.8,1047.6h502.7c0,19.2-15.6,34.8-34.8,34.8H747.5C728.3,1082.4,712.8,1066.8,712.8,1047.6"/>
	<path class="st78" d="M619.8,1058.3l-787.5-1c-12,0-21.7-10.3-21.7-22.9s9.7-22.9,21.7-22.9l787.5,1c12,0,21.7,10.3,21.7,22.9
		C641.5,1048,631.8,1058.3,619.8,1058.3 M413,979.3l-497.2-1c-0.3,0-0.5-0.2-0.5-0.5c0-20.6,16.7-37.4,37.4-37.4l423.5,1
		c20.6,0,37.4,16.7,37.4,37.4C413.5,979.1,413.2,979.3,413,979.3"/>
	<path class="st78" d="M257.5,947.5l-266.6-1v-3.7c0-18.9,15.3-34.2,34.2-34.2l198.2,1c18.9,0,34.2,15.3,34.2,34.2V947.5z
		 M-79.5,1057.2l582,1c0,20.9-17,37.9-37.9,37.9l-506.2-1C-62.6,1095.1-79.5,1078.1-79.5,1057.2L-79.5,1057.2z M554,1012.4l-701.9-1
		c-0.3,0-0.5-0.2-0.5-0.5c0-20.6,16.7-37.4,37.4-37.4l628.3,1c20.6,0,37.4,16.7,37.4,37.4C554.5,1012.1,554.3,1012.4,554,1012.4
		L554,1012.4z"/>
	<path class="st78" d="M-300,1089.7l582,1c0,20.9-17,37.9-37.9,37.9l-506.2-1C-283.1,1127.6-300,1110.6-300,1089.7L-300,1089.7z"/>
	<path class="st79" d="M913.6,651.1h4.4V537.4c0-2.8,2.3-5.1,5.1-5.1h31.8c-0.2-0.6-0.4-1.2-0.4-1.9v-60.1c0-2.8,2.3-5.1,5.1-5.1
		s5.1,2.3,5.1,5.1v60.1c0,0.7-0.1,1.3-0.4,1.9h32.4c2.8,0,5.1,2.3,5.1,5.1v113.7h4c2.8,0,5.1,2.3,5.1,5.1v205.4
		c0,2.8-2.3,5.1-5.1,5.1h-92.3c-2.8,0-5.1-2.3-5.1-5.1V656.2C908.5,653.4,910.8,651.1,913.6,651.1L913.6,651.1z"/>
	<path class="st80" d="M976.6,866.1h-33.1v-36.2h33.1V866.1z"/>
	<path class="st81" d="M976.6,830.8h4.7v38.4h-4.7V830.8z M938.8,829.9h4.7v38.4h-4.7V829.9z M918.7,818.6c-1.1,0-2-1-2-2.2V662
		c0-1.2,0.9-2.2,2-2.2h82.1c1.1,0,2,1,2,2.2v154.5c0,1.2-0.9,2.2-2,2.2 M935,828h50c1.1,0,2-0.9,2-2v-2H933v2
		C933,827.1,933.9,828,935,828"/>
	<path class="st81" d="M937.8,831.7h44.6c1.1,0,2-0.9,2-2v-2h-48.7v2C935.7,830.8,936.6,831.7,937.8,831.7 M985,869.5h-50
		c-1.1,0-2,0.9-2,2v2h54.1v-2C987.1,870.4,986.2,869.5,985,869.5"/>
	<path class="st81" d="M982.3,866.2h-44.6c-1.1,0-2,0.9-2,2v2h48.7v-2C984.4,867.1,983.5,866.2,982.3,866.2 M927.5,649.3
		c-0.9,0-1.6-0.7-1.6-1.5V542.4c0-0.8,0.7-1.5,1.6-1.5h64.1c0.9,0,1.6,0.7,1.6,1.5v105.5c0,0.8-0.7,1.5-1.6,1.5H927.5z"/>
	<path class="st80" d="M985.4,643h-51.1c-1.1,0-2-0.9-2-2v-92.9c0-1.1,0.9-2,2-2h51.1c1.1,0,2,0.9,2,2V641
		C987.5,642.1,986.5,643,985.4,643z"/>
	<path class="st80" d="M994.8,811.8h-70.3c-1.1,0-2-0.9-2-2V667.9c0-1.1,0.9-2,2-2h70.3c1.1,0,2,0.9,2,2v141.9
		C996.9,810.9,996,811.8,994.8,811.8z"/>
	<g>
		<defs>
			<path id="SVGID_00000070840761276007465440000018054178093747356070_" d="M994.8,811.8h-70.3c-1.1,0-2-0.9-2-2V667.9
				c0-1.1,0.9-2,2-2h70.3c1.1,0,2,0.9,2,2v141.9C996.9,810.9,996,811.8,994.8,811.8z"/>
		</defs>
		<clipPath id="SVGID_00000012453754569117388990000002560513031413165469_">
			<use xlink:href="#SVGID_00000070840761276007465440000018054178093747356070_"  style="overflow:visible;"/>
		</clipPath>
		
			<path style="opacity:0.2;clip-path:url(#SVGID_00000012453754569117388990000002560513031413165469_);fill:#FFFFFF;enable-background:new    ;" d="
			M875.8,833l110.1,60.3c0.9,0.5,2-0.2,2.4-1.5l26.6-81.7l-113.3-62.1l-26.6,81.7C874.5,831.1,874.9,832.5,875.8,833L875.8,833z
			 M909.1,743l110.3,59.1c0.9,0.5,1.6,0.7,1.6,0.5l0.3-11.8L907.8,730l-0.3,11.8C907.5,742,908.2,742.6,909.1,743"/>
	</g>
	<path class="st81" d="M940.4,715.2v47.4h-18v1.3h18v48h1.2v-48H959v48h1.2v-48h17.4v48h1.2v-48h18v-1.3h-18v-47.4h18v-1.3h-18v-48
		h-1.2v48h-17.4v-48H959v48h-17.4v-48h-1.2v48h-18v1.3H940.4z M960.3,762.6v-47.4h17.4v47.4H960.3z M941.7,715.2h17.4v47.4h-17.4
		V715.2z"/>
	<g>
		<defs>
			<path id="SVGID_00000121244201319153017700000014880849627741855106_" d="M940.4,715.2v47.4h-18v1.3h18v48h1.2v-48H959v48h1.2
				v-48h17.4v48h1.2v-48h18v-1.3h-18v-47.4h18v-1.3h-18v-48h-1.2v48h-17.4v-48H959v48h-17.4v-48h-1.2v48h-18v1.3H940.4z
				 M960.3,762.6v-47.4h17.4v47.4H960.3z M941.7,715.2h17.4v47.4h-17.4V715.2z"/>
		</defs>
		<clipPath id="SVGID_00000134970497848480191810000008828488177194123689_">
			<use xlink:href="#SVGID_00000121244201319153017700000014880849627741855106_"  style="overflow:visible;"/>
		</clipPath>
		
			<path style="opacity:0.2;clip-path:url(#SVGID_00000134970497848480191810000008828488177194123689_);fill:#FFFFFF;enable-background:new    ;" d="
			M871.1,830.6l110.1,60.3c0.9,0.5,2-0.2,2.4-1.5l26.6-81.7l-113.3-62.1l-26.6,81.7C869.8,828.6,870.2,830.1,871.1,830.6
			L871.1,830.6z M904.4,740.6l110.3,59.1c0.9,0.5,1.6,0.7,1.6,0.5l0.3-11.8l-113.5-60.8l-0.3,11.8
			C902.8,739.6,903.5,740.1,904.4,740.6"/>
	</g>
	<path class="st81" d="M969.5,642.8h-1.2v-47.3h-17.4v47.3h-1.2v-47.3h-17.4v-1.3h17.4v-48h1.2v48h17.4v-48h1.2v48h18v1.3h-18V642.8
		z"/>
	<path class="st79" d="M972.5,887.6v-2c0-1.1-0.9-2-2-2h-34.9c-1.1,0-2,0.9-2,2v4.1c0,1.1,0.9,2,2,2h34.9c1.1,0,2-0.9,2-2V887.6z"/>
	<path class="st20" d="M986.7,905.9v-2c0-1.1-0.9-2-2-2h-34.9c-1.1,0-2,0.9-2,2v4.1c0,1.1,0.9,2,2,2h34.9c1.1,0,2-0.9,2-2V905.9z"/>
	<path class="st11" d="M971.7,924.8v-2c0-1.1-0.9-2-2-2h-34.9c-1.1,0-2,0.9-2,2v4.1c0,1.1,0.9,2,2,2h34.9c1.1,0,2-0.9,2-2V924.8z"/>
	<path class="st72" d="M986.5,942.6v-2c0-1.1-0.9-2-2-2h-34.9c-1.1,0-2,0.9-2,2v4.1c0,1.1,0.9,2,2,2h34.9c1.1,0,2-0.9,2-2V942.6z"/>
	<path class="st84" d="M420.5,111.1h16.2v1.9h-16.2V111.1z"/>
	<path class="st84" d="M423.7,118.6l8.1-14.1l1.7,1l-8.1,14.1L423.7,118.6z"/>
	<path class="st84" d="M425.4,104.6l8.1,14.1l-1.7,1l-8.1-14.1L425.4,104.6z M287.8,187.7H304v1.9h-16.2V187.7z"/>
	<path class="st84" d="M291,195.2l8.1-14.1l1.7,1l-8.1,14.1L291,195.2z"/>
	<path class="st84" d="M292.6,181.1l8.1,14.1l-1.7,1l-8.1-14.1L292.6,181.1z M1212.5,94.5l-12.7-10.1l1.2-1.5l12.7,10.1L1212.5,94.5
		z"/>
	<path class="st84" d="M1214.6,86.6l-15.1,6l-0.7-1.8l15.1-6L1214.6,86.6z"/>
	<path class="st84" d="M1204.6,96.7l2.4-16.1l1.9,0.3l-2.4,16.1L1204.6,96.7z M637.5,81.3l-12.7-10.1l1.2-1.5l12.7,10.1L637.5,81.3z
		"/>
	<path class="st84" d="M639.6,73.4l-15.1,6l-0.7-1.8l15.1-6L639.6,73.4z"/>
	<path class="st84" d="M629.6,83.4l2.4-16.1l1.9,0.3l-2.4,16.1L629.6,83.4z M622.2,332.6h-6.5l3.2-5.6l-1.7-1l-3.2,5.6l-3.2-5.6
		l-1.7,1l3.2,5.6H606v1.9h6.4l-3.2,5.6l1.7,1l3.2-5.6l3.2,5.6l1.7-1l-3.2-5.6h6.5V332.6z M827.3,16.2h16.2v1.9h-16.2V16.2z"/>
	<path class="st84" d="M830.5,23.8l8.1-14.1l1.7,1l-8.1,14.1L830.5,23.8z"/>
	<path class="st84" d="M832.2,9.7l8.1,14.1l-1.7,1l-8.1-14.1L832.2,9.7z M218.3,264.2h16.2v1.9h-16.2V264.2z"/>
	<path class="st84" d="M221.5,271.8l8.1-14.1l1.7,1l-8.1,14.1L221.5,271.8z"/>
	<path class="st84" d="M223.2,257.7l8.1,14.1l-1.7,1l-8.1-14.1L223.2,257.7z M1289.3,334.5h16.2v1.9h-16.2V334.5z"/>
	<path class="st84" d="M1292.5,342l8.1-14.1l1.7,1l-8.1,14.1L1292.5,342z"/>
	<path class="st84" d="M1294.1,328l8.1,14.1l-1.7,1l-8.1-14.1L1294.1,328z M1386.5,183.1h16.2v1.9h-16.2V183.1z"/>
	<path class="st84" d="M1389.7,190.6l8.1-14.1l1.7,1l-8.1,14.1L1389.7,190.6z"/>
	<path class="st84" d="M1391.4,176.6l8.1,14.1l-1.7,1l-8.1-14.1L1391.4,176.6z M22.5,223.1h16.2v1.9H22.5V223.1z"/>
	<path class="st84" d="M25.7,230.6l8.1-14.1l1.7,1l-8.1,14.1L25.7,230.6z"/>
	<path class="st84" d="M27.4,216.6l8.1,14.1l-1.7,1l-8.1-14.1L27.4,216.6z M1880.5,277.6h16.2v1.9h-16.2V277.6z"/>
	<path class="st84" d="M1883.7,285.1l8.1-14.1l1.7,1l-8.1,14.1L1883.7,285.1z"/>
	<path class="st84" d="M1885.3,271.1l8.1,14.1l-1.7,1l-8.1-14.1L1885.3,271.1z M1706.7,244.2h16.2v1.9h-16.2V244.2z"/>
	<path class="st84" d="M1709.9,251.7l8.1-14.1l1.7,1l-8.1,14.1L1709.9,251.7z"/>
	<path class="st84" d="M1711.6,237.7l8.1,14.1l-1.7,1l-8.1-14.1L1711.6,237.7z M1524.7,112.2h16.2v1.9h-16.2V112.2z"/>
	<path class="st84" d="M1527.9,119.7l8.1-14.1l1.7,1l-8.1,14.1L1527.9,119.7z"/>
	<path class="st84" d="M1529.6,105.7l8.1,14.1l-1.7,1l-8.1-14.1L1529.6,105.7z M1003,35.1h16.2V37H1003V35.1z"/>
	<path class="st84" d="M1006.2,42.6l8.1-14.1l1.7,1l-8.1,14.1L1006.2,42.6z"/>
	<path class="st84" d="M1007.9,28.6l8.1,14.1l-1.7,1l-8.1-14.1L1007.9,28.6z M472.3,249.7h16.2v1.9h-16.2V249.7z"/>
	<path class="st84" d="M475.5,257.2l8.1-14.1l1.7,1l-8.1,14.1L475.5,257.2z"/>
	<path class="st84" d="M477.1,243.2l8.1,14.1l-1.7,1l-8.1-14.1L477.1,243.2z M1471.3,292.7h16.2v1.9h-16.2V292.7z"/>
	<path class="st84" d="M1474.5,300.2l8.1-14.1l1.7,1l-8.1,14.1L1474.5,300.2z"/>
	<path class="st84" d="M1476.1,286.2l8.1,14.1l-1.7,1l-8.1-14.1L1476.1,286.2z M807.6,409.6h16.2v1.9h-16.2V409.6z"/>
	<path class="st84" d="M810.8,417.1l8.1-14.1l1.7,1l-8.1,14.1L810.8,417.1z"/>
	<path class="st84" d="M812.4,403l8.1,14.1l-1.7,1l-8.1-14.1L812.4,403z M1059.4,388.5h16.2v1.9h-16.2V388.5z"/>
	<path class="st84" d="M1062.6,396.1l8.1-14.1l1.7,1l-8.1,14.1L1062.6,396.1z"/>
	<path class="st84" d="M1064.3,382l8.1,14.1l-1.7,1l-8.1-14.1L1064.3,382z M1316.2,9.3h16.2v1.9h-16.2V9.3z"/>
	<path class="st84" d="M1319.4,16.9l8.1-14.1l1.7,1l-8.1,14.1L1319.4,16.9z"/>
	<path class="st84" d="M1321.1,2.8l8.1,14.1l-1.7,1l-8.1-14.1L1321.1,2.8z"/>
	<path class="st38" d="M1889.5,1165.8h-550.4c-12.7,0-22.9-10.3-22.9-22.9l0,0c0-12.7,10.3-22.9,22.9-22.9h550.4
		c12.7,0,22.9,10.3,22.9,22.9l0,0C1912.4,1155.5,1902.2,1165.8,1889.5,1165.8z"/>
	<path class="st38" d="M1863.9,1123.8h-468.2c-0.3,0-0.5-0.2-0.5-0.5c0-20.6,16.7-37.4,37.4-37.4h394.6c20.6,0,37.4,16.7,37.4,37.4
		C1864.5,1123.6,1864.2,1123.8,1863.9,1123.8L1863.9,1123.8z"/>
	<path class="st38" d="M1809.8,1088h-313v-3.7c0-18.9,15.3-34.2,34.2-34.2h244.6c18.9,0,34.2,15.3,34.2,34.2L1809.8,1088
		L1809.8,1088z M1442.2,1165.7h364.8c0,20.9-17,37.9-37.9,37.9h-289C1459.2,1203.6,1442.2,1186.6,1442.2,1165.7L1442.2,1165.7z"/>
	<path class="st37" d="M1302.7,1057.2l787.5-1c12,0,21.7-10.3,21.7-22.9s-9.7-22.9-21.7-22.9l-787.5,1c-12,0-21.7,10.3-21.7,22.9
		C1281,1047,1290.7,1057.2,1302.7,1057.2 M1565,978.2l441.8-1c0.3,0,0.5-0.2,0.5-0.5c0-20.6-14.9-37.4-33.2-37.4l-376.4,1
		c-18.3,0-33.2,16.7-33.2,37.4C1564.5,978,1564.7,978.2,1565,978.2L1565,978.2z"/>
	<path class="st37" d="M1716.5,946.5l215.1-1v-3.7c0-18.9-12.3-34.2-27.6-34.2l-159.9,1c-15.2,0-27.6,15.3-27.6,34.2L1716.5,946.5
		L1716.5,946.5z M2002,1056.2l-582,1c0,20.9,17,37.9,37.9,37.9l506.2-1C1985.1,1094,2002,1077.1,2002,1056.2L2002,1056.2z
		 M1368.5,1011.3l701.9-1c0.3,0,0.5-0.2,0.5-0.5c0-20.6-16.7-37.4-37.4-37.4l-628.3,1c-20.6,0-37.4,16.7-37.4,37.4
		C1368,1011.1,1368.2,1011.3,1368.5,1011.3L1368.5,1011.3z"/>
	<path class="st37" d="M2222.5,1088.6l-582,1c0,20.9,17,37.9,37.9,37.9l506.3-1C2205.6,1126.5,2222.5,1109.6,2222.5,1088.6
		L2222.5,1088.6z"/>
</g>
</svg>
