<svg xmlns="http://www.w3.org/2000/svg" width="1920" height="1204.5"><defs><clipPath id="l"><rect width="55.14" height="186.81" x="1835.18" y="580.29" rx="2.03" ry="2.03" style="fill:#ecc7a5;stroke-width:0" transform="rotate(-180 1862.755 673.69)"/></clipPath><clipPath id="m"><rect width="18.05" height="285.83" x="1596.11" y="467.02" class="ax" rx="1.92" ry="1.92" transform="rotate(-180 1605.14 609.93)"/></clipPath><clipPath id="n"><rect width="18.05" height="334.09" x="1560.65" y="442.09" class="ax" rx="2.07" ry="2.07" transform="rotate(-180 1569.68 609.135)"/></clipPath><clipPath id="o"><rect width="18.05" height="285.83" x="1524.25" y="466.37" class="ax" rx="1.92" ry="1.92" transform="rotate(-180 1533.275 609.285)"/></clipPath><clipPath id="p"><path d="M1470.29 644.04h-174v-18.55h174z" class="as"/></clipPath><clipPath id="q"><rect width="33.56" height="180.58" x="1427.25" y="655.18" class="as" rx="1.44" ry="1.44" transform="rotate(-180 1444.03 745.465)"/></clipPath><clipPath id="r"><rect width="33.56" height="180.58" x="1366.59" y="655.17" class="as" rx="1.44" ry="1.44" transform="rotate(-180 1383.365 745.455)"/></clipPath><clipPath id="s"><rect width="33.56" height="180.58" x="1305.59" y="655.17" class="as" rx="1.44" ry="1.44" transform="rotate(-180 1322.365 745.455)"/></clipPath><clipPath id="t"><rect width="55.14" height="144.21" x="256.56" y="559.23" class="bb" rx="2.03" ry="2.03" transform="rotate(-180 284.13 631.34)"/></clipPath><clipPath id="u"><rect width="35.39" height="233.03" x="587.73" y="603.02" class="au" rx="1.71" ry="1.71" transform="rotate(-180 605.42 719.535)"/></clipPath><clipPath id="v"><rect width="35.39" height="233.03" x="527.3" y="603.17" class="au" rx="1.71" ry="1.71" transform="rotate(-180 544.99 719.685)"/></clipPath><clipPath id="w"><path d="M195.12 405.64H26.49v-30.95h168.63z" class="bq"/></clipPath><clipPath id="x"><rect width="50.89" height="227.31" x="158.88" y="670.42" class="bq" rx="1.99" ry="1.99" transform="rotate(-180 184.33 784.075)"/></clipPath><clipPath id="y"><rect width="50.89" height="227.31" x="124.83" y="415.5" class="bq" rx="1.99" ry="1.99" transform="rotate(-180 150.275 529.16)"/></clipPath><clipPath id="z"><rect width="50.89" height="227.31" x="11.01" y="670.49" class="bq" rx="1.99" ry="1.99" transform="rotate(-180 36.455 784.145)"/></clipPath><clipPath id="aa"><rect width="50.89" height="227.31" x="42.98" y="415.51" class="bq" rx="1.99" ry="1.99" transform="rotate(-180 68.43 529.165)"/></clipPath><clipPath id="ab"><path d="M1715.13 585.95h-53.19v-14.3h53.19z" class="ba"/></clipPath><clipPath id="ac"><path d="M1790.36 584.81h-53.19v-14.3h53.19z" class="ba"/></clipPath><clipPath id="ad"><rect width="35.39" height="327.53" x="1677.04" y="597.77" class="bb" rx="2.03" ry="2.03" transform="rotate(-180 1694.735 761.54)"/></clipPath><clipPath id="ae"><rect width="55.14" height="186.81" x="1699.37" y="387.59" class="bb" rx="2.03" ry="2.03" transform="rotate(-180 1726.94 480.99)"/></clipPath><clipPath id="af"><rect width="35.39" height="327.53" x="1740.91" y="597.81" class="bb" rx="2.03" ry="2.03" transform="rotate(-180 1758.605 761.58)"/></clipPath><clipPath id="ag"><rect width="18.05" height="334.09" x="457.92" y="647.33" class="bo" rx="2.07" ry="2.07" transform="rotate(-180 466.945 814.37)"/></clipPath><clipPath id="ah"><rect width="18.05" height="334.09" x="422.46" y="632.66" class="bo" rx="2.07" ry="2.07" transform="rotate(-180 431.485 799.705)"/></clipPath><clipPath id="ai"><rect width="18.05" height="334.09" x="387.24" y="646.99" class="bo" rx="2.07" ry="2.07" transform="rotate(-180 396.27 814.035)"/></clipPath><clipPath id="aj"><path d="M270.33 806.02h77.57v11.6h-77.57z" style="fill:#f9cba5;stroke-width:0;opacity:.8" transform="rotate(-180 309.115 811.82)"/></clipPath><clipPath id="ak"><rect width="55.14" height="92.56" x="280.69" y="825.98" class="ax" rx="2.03" ry="2.03" transform="rotate(-180 308.26 872.255)"/></clipPath><clipPath id="al"><path d="M1480.93 807.31h111.55v21.14h-111.55z" style="fill:#fee6c5;stroke-width:0;opacity:.8" transform="rotate(-180 1536.71 817.885)"/></clipPath><clipPath id="am"><rect width="36.06" height="96.15" x="1490.72" y="825.66" class="bl" rx="2.03" ry="2.03" transform="rotate(-180 1508.745 873.74)"/></clipPath><clipPath id="an"><rect width="36.06" height="96.15" x="1547.47" y="825.66" class="bl" rx="2.03" ry="2.03" transform="rotate(-180 1565.505 873.74)"/></clipPath><clipPath id="ao"><rect width="74.44" height="145.98" x="922.45" y="665.87" class="be" rx="2.05" ry="2.05" transform="rotate(-180 959.67 738.86)"/></clipPath><clipPath id="ap"><path d="M940.44 715.19v47.41h-17.99v1.29h17.99v48.05h1.23v-48.05h17.38v48.05h1.23v-48.05h17.38v48.05h1.23v-48.05h17.99v-1.29h-17.99v-47.41h17.99v-1.29h-17.99v-48.05h-1.23v48.05h-17.38v-48.05h-1.23v48.05h-17.38v-48.05h-1.23v48.05h-17.99v1.29zm19.84 47.41v-47.41h17.38v47.41zm-18.61-47.41h17.38v47.41h-17.38z" class="bs"/></clipPath><radialGradient id="f" cx="959" cy="601" r="1101.5" fx="959" fy="601" gradientUnits="userSpaceOnUse"><stop offset="0" stop-color="#133b4f"/><stop offset=".54" stop-color="#112f49"/><stop offset="1" stop-color="#0b2a42"/></radialGradient><radialGradient id="k" cx="965.5" cy="818" r="424.5" fx="965.5" fy="818" gradientUnits="userSpaceOnUse"><stop offset="0" stop-color="#bdddff" stop-opacity=".15"/><stop offset=".9" stop-color="#bbfffc" stop-opacity="0"/></radialGradient><style>.ar,.as{fill:#f9d493}.at,.au{fill:#f9d2a8}.av,.ax{fill:#f9cba5}.az,.ba,.bb,.bc{fill:#f7d39f}.be{fill:#f9bea5}.bh,.bi{fill:#f49a4a}.bj,.bl{fill:#fee6c5}.bn,.bo{fill:#ffd5b3}.bp,.bq{fill:#fed9b2}.bs{fill:#d14242}.bt,.bu{fill:#d65544}.as,.au,.ax,.ba,.bb,.be,.bi,.bl,.bo,.bq,.bs,.bu,.bv,.bw,.bx,.by,.ca,.cb,.cc,.ce,.cf,.cg,.ch,.ci,.cj,.ck,.cl,.cm,.cn,.co,.cq,.cr,.cs,.ct,.cu,.cv,.cx,.cy,.db,.dc,.dd,.de{stroke-width:0}.ba,.bc{opacity:.8}.bv{fill:#fff;opacity:.2}.bw{fill:#dcfaff;opacity:.3}.bx{fill:#f4ae5d}.by{fill:#f9c65f}.ca{fill:#716869}.cb{fill:#275b71}.cc{fill:#195972}.ce{fill:#1b344f}.cf{fill:#447c89}.cg{fill:#10526b}.ch{fill:#113a56}.ci{fill:#14445e}.cj{fill:#11293f}.ck{fill:#16677b}.cl{fill:#155f7c}.cm{fill:#e28a45}.cn{fill:#d64949}.co{fill:#dd923a}.cq{fill:#332f2f}.cr{fill:#2f7489}.cs{fill:#6c6364}.ct{fill:#7e7574}.cu{fill:#ffdb92}.cv{fill:#ef8e4b}.cx{fill:#e5524e}.cy{fill:#e86d1a}.db{fill:#f27048}.dc{fill:#f2614e}.dd{fill:#e7a646}.de{fill:#e87e21}</style></defs><path id="a" d="M0 .5h1920v1204H0z" style="stroke-width:0;fill:#f0f6ff"/><path id="e" d="M-2-2.5h1922v1207H-2z" style="stroke-width:0;fill:url(#f)"/><g id="j"><circle cx="965.5" cy="818" r="424.5" style="stroke-width:0;fill:url(#k)"/><path d="M1379.38 35.17h74.6c4.22 15.02 17.32 25.98 32.84 25.98h50.06c1.88 18.21 16.41 32.38 34.06 32.38h74.18c4.02 15.35 17.27 26.63 33.01 26.63h259.09c15.74 0 28.99-11.27 33.01-26.63h65.22c17.65 0 32.18-14.17 34.06-32.38h37.4c15.52 0 28.62-10.96 32.84-25.98h13.53c11.45 0 20.73-9.85 20.73-22.01s-9.28-22.01-20.73-22.01h-773.91c-11.45 0-20.73 9.85-20.73 22.01s9.28 22.01 20.73 22.01ZM306.91 104.54H20.57c-20.9 0-37.87-16.97-37.87-37.87h362.09c0 20.9-16.97 37.87-37.87 37.87Z" class="cj"/><path d="M493.48 70.83H-19.89c-20.9 0-37.87-16.97-37.87-37.87h589.12c0 20.9-16.97 37.87-37.87 37.87Z" class="cj"/><path d="M614.46 35.14H-70.86c-20.9 0-37.87-16.97-37.87-37.87h761.07c0 20.9-16.97 37.87-37.87 37.87Z" class="cj"/><path d="M1684.36 52.88h158.25c20.9 0 37.87 16.97 37.87 37.87h-234c0-20.9 16.97-37.87 37.87-37.87Z" class="ce"/><rect width="421" height="45.81" x="1550.49" y="118.61" class="ce" rx="22.91" ry="22.91"/><path d="M1633.36 86.58h258.25c20.9 0 37.87 16.97 37.87 37.87h-334c0-20.9 16.97-37.87 37.87-37.87Zm258.12 113.71h-199.12c-20.9 0-37.87-16.97-37.87-37.87h274.87c0 20.9-16.97 37.87-37.87 37.87Zm-1744.9 13.34H.37c-20.9 0-37.87-16.97-37.87-37.87h221.95c0 20.9-16.97 37.87-37.87 37.87" class="ce"/><rect width="421" height="45.81" x="-119.55" y="100.49" class="ce" rx="22.91" ry="22.91"/><path d="M.36 68.45h231.25c20.9 0 37.87 16.97 37.87 37.87H-37.51c0-20.9 16.97-37.87 37.87-37.87m201.26 111.72H-48.67c-20.9 0-37.87-16.97-37.87-37.87h326.03c0 20.9-16.97 37.87-37.87 37.87" class="ce"/><path d="M820.38 503.11c.61.6 1.33-.22 1.63-1.85m-149.5 1.92c.61.6 1.33-.22 1.63-1.85" class="bv"/><rect width="84" height="216" x="1820.45" y="566.02" class="dd" rx="5.08" ry="5.08" transform="rotate(-180 1862.45 674.02)"/><path d="M1830.5 588.98v-41.09c0-2.4 1.95-4.35 4.35-4.35s4.35 1.95 4.35 4.35v41.09m9.98.5v-41.09c0-2.4 1.95-4.35 4.35-4.35s4.35 1.95 4.35 4.35v41.09" class="dd"/><rect width="67.15" height="198.08" x="1828.91" y="574.71" class="cm" rx="5.08" ry="5.08"/><rect width="55.14" height="186.81" x="1835.18" y="580.29" rx="2.03" ry="2.03" style="fill:#ecc7a5" transform="rotate(-180 1862.755 673.69)"/><g style="clip-path:url(#l)"><path d="M1872.83 794.2h-1.17V438h1.17z" class="cm"/><path d="M1893.67 580.05h-60.92v-1.17h60.92z" class="cs"/><path d="M1893.67 627.13h-60.92v-1.17h60.92zm0 46.98h-60.92v-1.17h60.92zm0 47.18h-60.92v-1.17h60.92z" class="cm"/><path d="M1890.4 533.64h-39.22v-1.17h39.22zm1.89-47.11h-39.22v-1.17h39.22z" class="cs"/><path d="M1854 767.79h-1.17V567.04h1.17z" class="cm"/><path d="m1841.1 770.58 18.45 14.62c.62.64 18.13 15.43 17.24 12.54l31.48 1.6-79.35-81.94-.87 49.7c.89 2.9 12.44 2.84 13.06 3.48Zm-14-66.87 76.2 76.92c.61.62 1 .8.85.41l-9-24.67-78.43-79.17 9 24.67c.14.4.76 1.22 1.37 1.84Z" class="bv"/></g><rect width="124.27" height="355.29" x="1506.65" y="430.02" class="cv" rx="5.02" ry="5.02"/><rect width="25.69" height="293.1" x="1592.18" y="463.02" class="cy" rx="4.8" ry="4.8"/><rect width="25.69" height="340.82" x="1556.74" y="438.89" class="cy" rx="5.18" ry="5.18"/><rect width="18.05" height="285.83" x="1596.11" y="467.02" class="av" rx="1.92" ry="1.92" transform="rotate(-180 1605.14 609.93)"/><g style="clip-path:url(#m)"><path d="M1577.57 560.87h40v1.19h-40zm0 48.02h40v1.19h-40zm0 47.91h40v1.19h-40zm0 48.13h40v1.19h-40zm-3.32-191.4h40v1.19h-40zm1.92-48.04h40v1.19h-40z" class="cy"/><path d="m1579.92 776.19 52.47 6.87c.63.65.41-1.21-.5-4.16l.21-129.36-80.94-83.58 24.53 191.51c.91 2.95 3.6 18.08 4.24 18.73Z" class="bv"/></g><rect width="18.05" height="334.09" x="1560.65" y="442.09" class="av" rx="2.07" ry="2.07" transform="rotate(-180 1569.68 609.135)"/><g style="clip-path:url(#n)"><path d="M1542.11 584.2h40v1.19h-40zm0 48.02h40v1.19h-40zm0 47.92h40v1.19h-40zm0 48.13h40v1.19h-40zm-3.32-191.41h40v1.19h-40zm1.92-48.04h40v1.19h-40z" class="cy"/><path d="m1544.46 799.53 52.47 6.87c.63.65.41-1.21-.5-4.16l.21-129.36-80.94-83.58 24.53 191.51c.91 2.95 3.6 18.08 4.24 18.73Z" class="bv"/></g><rect width="25.69" height="293.1" x="1520.31" y="462.37" class="cy" rx="4.8" ry="4.8"/><rect width="18.05" height="285.83" x="1524.25" y="466.37" class="av" rx="1.92" ry="1.92" transform="rotate(-180 1533.275 609.285)"/><g style="clip-path:url(#o)"><path d="M1505.71 560.22h40v1.19h-40zm0 48.02h40v1.19h-40zm0 47.92h40v1.19h-40zm0 48.13h40v1.19h-40zm-3.33-191.41h40v1.19h-40zm1.92-48.04h40v1.19h-40z" class="cy"/><path d="m1508.06 775.55 52.47 6.87c.63.65.41-1.21-.5-4.16l.21-129.36-80.94-83.58 24.53 191.51c.91 2.95 3.6 18.08 4.24 18.73Z" class="bv"/></g><path d="M1470.29 644.04h-174v-18.55h174z" class="ar"/><g style="clip-path:url(#p)"><path d="m1296.06 630.62.86 18.56 33.36-1v-12zm141 .87.86 18.55 33.36-1v-12z" class="bv"/><path d="m1403.06 630.49.86 18.55 33.36-1v-12zm-37 0 .86 18.55 33.36-1v-12zm-37 0 .86 18.55 33.36-1v-12z" class="bv"/></g><path d="M1477.16 650.71h-7.22v-28.42h3.88a3.34 3.34 0 0 1 3.34 3.34zm-38.82.03h-7.22v-28.45h7.22zm-33.65 0h-7.22v-28.45h7.22zm-35.25 0h-7.22v-28.45h7.22zm-34.66-.11h-7.22v-28.45h7.22zm-38.31 0h-7.22v-25.12a3.34 3.34 0 0 1 3.34-3.34h3.88v28.45Z" class="bu"/><path d="M1289.25 844.5V646.11c0-2.17 2.34-3.93 5.22-3.93h177.55c2.89 0 5.22 1.76 5.22 3.93V844.5c0 2.18-2.35 3.95-5.25 3.95H1294.5c-2.9 0-5.25-1.77-5.25-3.95" class="db"/><path d="M1423.3 841.19c-.58 0-1.05-1.15-1.05-2.57V653.76c0-1.42.47-2.57 1.05-2.57h41.98c.58 0 1.05 1.15 1.05 2.57v184.86c0 1.42-.47 2.57-1.05 2.57" class="bu"/><rect width="33.56" height="180.58" x="1427.25" y="655.18" class="ar" rx="1.44" ry="1.44" transform="rotate(-180 1444.03 745.465)"/><g style="clip-path:url(#q)"><path d="M1425.96 608.44h1.13v108.54h-1.13zm17.18 0h1.13v108.73h-1.13z" class="bu"/><path d="M1408.84 746.77v43.64h-16.56v1.19h16.56v44.23h1.13V791.6h16v44.23h1.13V791.6h16v44.23h1.13V791.6h16.56v-1.19h-16.56v-43.64h16.56v-1.19h-16.56v-44.23h-1.13v44.23h-16v-44.23h-1.13v44.23h-16v-44.23h-1.13v44.23h-16.56v1.19zm18.26 43.64v-43.64h16v43.64zm-17.13-43.64h16v43.64h-16z" class="bt"/><path d="M1460.7 700.18v1.13h-68.33v-1.13z" class="bu"/><path d="m1397.58 773.46 75.81 41.75c.61.34 1.07.46 1.02.27l-2.99-11.67-78.02-42.97 2.99 11.67c.05.19.58.61 1.19.95m-.25 110.75 92.29 52.22c.74.42 1.23-.57 1.08-2.21l-9.14-102.39-94.99-53.75 9.14 102.39c.15 1.64.87 3.31 1.61 3.73Z" class="bv"/><path d="M1462.57 653.74v1.13h-68.33v-1.13z" class="bu"/></g><path d="M1362.63 841.18c-.58 0-1.05-1.15-1.05-2.57V653.75c0-1.42.47-2.57 1.05-2.57h41.98c.58 0 1.05 1.15 1.05 2.57v184.86c0 1.42-.47 2.57-1.05 2.57" class="bu"/><rect width="33.56" height="180.58" x="1366.59" y="655.17" class="ar" rx="1.44" ry="1.44" transform="rotate(-180 1383.365 745.455)"/><g style="clip-path:url(#r)"><path d="M1365.3 608.43h1.13v108.54h-1.13zm17.17 0h1.13v108.73h-1.13z" class="bu"/><path d="M1348.18 746.76v43.64h-16.56v1.19h16.56v44.23h1.13v-44.23h16v44.23h1.13v-44.23h16v44.23h1.13v-44.23h16.56v-1.19h-16.56v-43.64h16.56v-1.19h-16.56v-44.23h-1.13v44.23h-16v-44.23h-1.13v44.23h-16v-44.23h-1.13v44.23h-16.56v1.19zm18.26 43.64v-43.64h16v43.64zm-17.13-43.64h16v43.64h-16z" class="bt"/><path d="M1400.03 700.17v1.13h-68.33v-1.13z" class="bu"/><path d="m1336.92 773.45 75.81 41.75c.61.34 1.07.46 1.02.27l-2.99-11.67-78.02-42.97 2.99 11.67c.05.19.58.61 1.19.95m-.26 110.75 92.29 52.22c.74.42 1.23-.57 1.08-2.21l-9.14-102.39-94.99-53.75 9.14 102.39c.15 1.64.87 3.31 1.61 3.73Z" class="bv"/><path d="M1401.89 653.74v1.13h-68.33v-1.13z" class="bu"/></g><path d="M1301.63 841.18c-.58 0-1.05-1.15-1.05-2.57V653.75c0-1.42.47-2.57 1.05-2.57h41.98c.58 0 1.05 1.15 1.05 2.57v184.86c0 1.42-.47 2.57-1.05 2.57" class="bu"/><rect width="33.56" height="180.58" x="1305.59" y="655.17" class="ar" rx="1.44" ry="1.44" transform="rotate(-180 1322.365 745.455)"/><g style="clip-path:url(#s)"><path d="M1304.3 608.43h1.13v108.54h-1.13zm17.17 0h1.13v108.73h-1.13z" class="bu"/><path d="M1287.18 746.76v43.64h-16.56v1.19h16.56v44.23h1.13v-44.23h16v44.23h1.13v-44.23h16v44.23h1.13v-44.23h16.56v-1.19h-16.56v-43.64h16.56v-1.19h-16.56v-44.23h-1.13v44.23h-16v-44.23h-1.13v44.23h-16v-44.23h-1.13v44.23h-16.56v1.19zm18.26 43.64v-43.64h16v43.64zm-17.13-43.64h16v43.64h-16z" class="bt"/><path d="M1339.03 700.17v1.13h-68.33v-1.13z" class="bu"/><path d="m1275.92 773.45 75.81 41.75c.61.34 1.07.46 1.02.27l-2.99-11.67-78.02-42.97 2.99 11.67c.05.19.58.61 1.19.95m-.26 110.75 92.29 52.22c.74.42 1.23-.57 1.08-2.21l-9.14-102.39-94.99-53.75 9.14 102.39c.15 1.64.87 3.31 1.61 3.73Z" class="bv"/><path d="M1340.89 653.74v1.13h-68.33v-1.13z" class="bu"/></g><path d="M275.82 566.3v-41.09c0-2.4 1.95-4.35 4.35-4.35s4.35 1.95 4.35 4.35v41.09m17.98.49V525.7c0-2.4 1.95-4.35 4.35-4.35s4.35 1.95 4.35 4.35v41.09" class="dc"/><path d="M318.05 544.07h3.28c2.3 0 4.16 2.3 4.16 5.13v205.44c0 2.83-1.86 5.13-4.16 5.13h-74.84c-2.3 0-4.16-2.3-4.16-5.13V549.2c0-2.83 1.86-5.13 4.16-5.13z" class="dc"/><path d="M300.02 758.06h-26.69v-36.18h26.69z" class="bb"/><path d="M299.99 722.74h3.77v38.39h-3.77zm-30.43-.86h3.77v38.39h-3.77zm-2.64-1.85h39.51c1.13 0 2.05-.92 2.05-2.05v-2.04h-43.61v2.04c0 1.13.92 2.05 2.05 2.05" class="cn"/><path d="M269.11 723.73h35.19c1.13 0 2.05-.92 2.05-2.05v-2.04h-39.29v2.04c0 1.13.92 2.05 2.05 2.05m37.31 37.78h-39.51c-1.13 0-2.05.92-2.05 2.05v2.04h43.61v-2.04c0-1.13-.92-2.05-2.05-2.05" class="cn"/><path d="M304.23 758.22h-35.19c-1.13 0-2.05.92-2.05 2.05v2.04h39.29v-2.04c0-1.13-.92-2.05-2.05-2.05" class="cn"/><rect width="67.15" height="156.33" x="250.29" y="553.02" class="cn" rx="5.08" ry="5.08"/><rect width="55.14" height="144.21" x="256.56" y="559.23" class="az" rx="2.03" ry="2.03" transform="rotate(-180 284.13 631.34)"/><g style="clip-path:url(#t)"><path d="M294.21 731.52h-1.17V362.53h1.17z" class="cn"/><path d="M315.04 509.69h-60.92v-1.21h60.92z" class="ca"/><path d="M315.04 558.46h-60.92v-1.21h60.92zm0 48.66h-60.92v-1.21h60.92zm0 48.88h-60.92v-1.21h60.92z" class="cn"/><path d="M311.78 461.62h-39.22v-1.21h39.22zm1.89-48.8h-39.22v-1.21h39.22z" class="ca"/><path d="M275.38 704.17h-1.17V496.22h1.17z" class="cn"/><path d="m262.48 707.06 18.45 15.15c.62.66 18.13 15.99 17.24 12.99l31.48 1.66-79.35-84.88-.87 51.48c.89 3 12.44 2.94 13.06 3.61Zm-14-69.27 76.2 79.68c.61.64 1 .83.85.42l-9-25.55-78.43-82.01 9 25.55c.14.41.76 1.26 1.37 1.9Z" class="bv"/></g><rect width="127" height="260" x="511.45" y="590.02" rx="6.85" ry="6.85" style="stroke-width:0;fill:#ef9c50" transform="rotate(-180 574.95 720.02)"/><rect width="47.01" height="244.64" x="581.87" y="597.02" class="de" rx="4.32" ry="4.32"/><rect width="35.39" height="233.03" x="587.73" y="603.02" class="at" rx="1.71" ry="1.71" transform="rotate(-180 605.42 719.535)"/><g style="clip-path:url(#u)"><path d="M605.63 863.14h-1.17v-356.2h1.17z" class="de"/><path d="M626.45 649h-39.22v-1.17h39.22zm0 47.08h-39.22v-1.17h39.22zm0 46.98h-39.22v-1.17h39.22zm0 47.19h-39.22v-1.17h39.22zm-3.25-187.66h-39.22v-1.17h39.22zm1.88-47.1h-39.22v-1.17h39.22z" class="de"/><path d="m589.54 858.94 51.44 6.73c.62.64.4-1.19-.49-4.08l.2-126.83-79.35-81.94 24.04 187.76c.89 2.9 3.53 17.72 4.15 18.36Zm-30.01-219.81 76.2 76.92c.61.62 1 .8.85.41l-9-24.67-78.43-79.17 9 24.67c.14.4.76 1.22 1.37 1.84Z" class="bv"/></g><rect width="47.01" height="244.64" x="521.44" y="597.17" class="de" rx="4.32" ry="4.32"/><rect width="35.39" height="233.03" x="527.3" y="603.17" class="at" rx="1.71" ry="1.71" transform="rotate(-180 544.99 719.685)"/><g style="clip-path:url(#v)"><path d="M545.19 863.3h-1.17V507.1h1.17z" class="de"/><path d="M566.02 649.15H526.8v-1.17h39.22zm0 47.08H526.8v-1.17h39.22zm0 46.98H526.8v-1.17h39.22zm0 47.18H526.8v-1.17h39.22zm-3.26-187.65h-39.22v-1.17h39.22zm1.89-47.1h-39.22v-1.17h39.22z" class="de"/><path d="m529.11 859.09 51.44 6.73c.62.64.4-1.19-.49-4.08l.2-126.83-79.35-81.94 24.04 187.76c.89 2.9 3.53 17.72 4.15 18.36ZM499.1 639.28l76.2 76.92c.61.62 1 .8.85.41l-9-24.67-78.43-79.17 9 24.67c.14.4.76 1.22 1.37 1.84Z" class="bv"/></g><path d="M85.52 455.33h20.97c.22-14.58 12.87-26.34 28.45-26.34h7.01c1.25-13.68 13.46-24.41 28.35-24.41h6.11c2.85-11.93 14.19-20.85 27.76-20.85h51.27c13.57 0 24.91 8.92 27.76 20.85h14.64c14.89 0 27.1 10.74 28.35 24.41h13.49c15.58 0 28.23 11.76 28.45 26.34h14.48c9.51 0 17.21 7.23 17.21 16.16 0 8.92-7.71 16.16-17.21 16.16h-14.8c-.26 14.54-12.89 26.26-28.45 26.26H149.83c-15.55 0-28.18-11.72-28.45-26.26H85.5c-9.51 0-17.21-7.23-17.21-16.16 0-8.92 7.71-16.16 17.21-16.16Zm1250.52 150.59h24.47c.18-12.49 10.35-22.56 22.87-22.56h.79c1-11.71 10.82-20.91 22.79-20.91h102.56c11.97 0 21.79 9.19 22.79 20.91H1548c12.53 0 22.7 10.07 22.87 22.56h4.04c7.64 0 13.84 6.2 13.84 13.84s-6.2 13.84-13.84 13.84h-31.95c-.21 12.45-10.37 22.49-22.87 22.49H1367.7c-12.51 0-22.66-10.03-22.87-22.49h-8.79c-7.64 0-13.84-6.2-13.84-13.84s6.2-13.84 13.84-13.84m-754.07 10.96h20.48c1.69-6.62 7.68-11.52 14.82-11.52h72.74c7.15 0 13.13 4.9 14.82 11.52h11.38c5.55 0 10.06 4.5 10.06 10.06v5.13c0 5.55-4.5 10.06-10.06 10.06h-12.06c-1.37 7.92-8.26 13.95-16.57 13.95h-83.99c-8.31 0-15.2-6.03-16.57-13.95h-5.05c-5.55 0-10.06-4.5-10.06-10.06v-5.13c0-5.55 4.5-10.06 10.06-10.06" class="bw"/><path d="M227.48 756.5h-340.1c0-20.9 16.97-37.87 37.87-37.87h264.36c20.9 0 37.87 16.97 37.87 37.87" class="ch"/><path d="M379.49 786.21h-609.57c0-20.9 16.97-37.87 37.87-37.87h533.83c20.9 0 37.87 16.97 37.87 37.87" class="ch"/><rect width="692.03" height="45.81" x="-166.55" y="814.06" class="ch" rx="22.91" ry="22.91" transform="rotate(-180 179.47 836.97)"/><path d="M481.49 816.9h-672.47c-.29 0-.53-.24-.53-.53 0-20.62 16.74-37.36 37.36-37.36h598.82c20.62 0 37.36 16.74 37.36 37.36 0 .29-.24.53-.53.53Z" class="ch"/><rect width="451.65" height="45.81" x="-139.51" y="857.44" class="ch" rx="22.91" ry="22.91" transform="rotate(-180 86.31 880.35)"/><rect width="334.3" height="45.81" x="-131.51" y="894.46" class="ch" rx="22.91" ry="22.91" transform="rotate(-180 35.64 917.37)"/><rect width="511.57" height="45.81" x="-13.65" y="926.06" rx="22.91" ry="22.91" style="stroke-width:0;fill:#3e3287"/><rect width="543" height="45.81" x="340.49" y="1081.79" class="ck" rx="22.91" ry="22.91" transform="rotate(-180 611.985 1104.7)"/><path d="M806.53 1085.63H409.06c-.29 0-.53-.24-.53-.53 0-20.62 16.74-37.36 37.36-37.36h323.82c20.62 0 37.36 16.74 37.36 37.36 0 .29-.24.53-.53.53Z" class="ck"/><path d="M738.05 1047.84h-258v-3.68c0-18.87 15.32-34.2 34.2-34.2h189.6c18.87 0 34.2 15.32 34.2 34.2zm-293.56 78.7h362.57c0 20.9-16.97 37.87-37.87 37.87H482.37c-20.9 0-37.87-16.97-37.87-37.87Z" class="ck"/><rect width="596.2" height="45.81" x="13.38" y="1120.67" class="cc" rx="22.91" ry="22.91"/><path d="M98.67 1086.63h394.56c20.62 0 37.36 16.74 37.36 37.36 0 .29-.24.53-.53.53H61.85c-.29 0-.53-.24-.53-.53 0-20.62 16.74-37.36 37.36-37.36Z" class="cc"/><path d="M150.15 1050.84h244.63c18.87 0 34.2 15.32 34.2 34.2v3.68H115.95v-3.68c0-18.87 15.32-34.2 34.2-34.2m295.56 153.46h-289c-20.9 0-37.87-16.97-37.87-37.87h364.74c0 20.9-16.97 37.87-37.87 37.87" class="cc"/><path d="M1608.36 748.27h211.25c20.9 0 37.87 16.97 37.87 37.87h-287c0-20.9 16.97-37.87 37.87-37.87Z" class="ci"/><rect width="692.03" height="45.81" x="1397.01" y="814" class="ci" rx="22.91" ry="22.91"/><path d="M1477.84 778.95h598.82c20.62 0 37.36 16.74 37.36 37.36 0 .29-.24.53-.53.53h-672.47c-.29 0-.53-.24-.53-.53 0-20.62 16.74-37.36 37.36-37.36Z" class="ci"/><rect width="451.65" height="45.81" x="1610.37" y="857.38" class="ci" rx="22.91" ry="22.91"/><rect width="334.3" height="45.81" x="1719.71" y="894.4" class="ci" rx="22.91" ry="22.91"/><rect width="543" height="45.81" x="1054.94" y="1082.13" class="cr" rx="22.91" ry="22.91"/><path d="M1168.73 1048.09h323.82c20.62 0 37.36 16.74 37.36 37.36 0 .29-.24.53-.53.53h-397.47c-.29 0-.53-.24-.53-.53 0-20.62 16.74-37.36 37.36-37.36Z" class="cr"/><path d="M1234.57 1010.3h189.6c18.87 0 34.2 15.32 34.2 34.2v3.68h-258v-3.68c0-18.87 15.32-34.2 34.2-34.2m221.5 154.46h-286.82c-20.9 0-37.87-16.97-37.87-37.87h362.57c0 20.9-16.97 37.87-37.87 37.87Z" class="cr"/><path d="M832.01 969H163.49c0 20.92 16.96 37.87 37.87 37.87h592.77c20.92 0 37.87-16.96 37.87-37.87Z" style="stroke-width:0;fill:#8e238e"/><path d="M659.48 883.47h-413c0-20.9 16.97-37.87 37.87-37.87H621.6c20.9 0 37.87 16.97 37.87 37.87Z" class="cl"/><path d="M715.58 912.18h-547.1c0-20.9 16.97-37.87 37.87-37.87h471.36c20.9 0 37.87 16.97 37.87 37.87" class="cl"/><rect width="972.76" height="45.81" x="-165.27" y="937.04" class="cl" rx="22.91" ry="22.91" transform="rotate(-180 321.11 959.945)"/><path d="M776.48 947.88h-692c0-20.9 16.97-37.87 37.87-37.87h616.26c20.9 0 37.87 16.97 37.87 37.87m-208.99-96.17H342.42c0-20.9 16.97-37.87 37.87-37.87h149.32c20.9 0 37.87 16.97 37.87 37.87Z" class="cl"/><path d="M1300.89 845.53h337.25c20.9 0 37.87 16.97 37.87 37.87h-413c0-20.9 16.97-37.87 37.87-37.87Z" class="cb"/><path d="M1244.79 874.24h471.35c20.9 0 37.87 16.97 37.87 37.87h-547.1c0-20.9 16.97-37.87 37.87-37.87Z" class="cb"/><rect width="972.76" height="45.81" x="1115.01" y="936.97" class="cb" rx="22.91" ry="22.91"/><path d="M1183.89 909.94h616.25c20.9 0 37.87 16.97 37.87 37.87h-692c0-20.9 16.97-37.87 37.87-37.87Zm209-96.16h149.32c20.9 0 37.87 16.97 37.87 37.87h-225.07c0-20.9 16.97-37.87 37.87-37.87Z" class="cb"/><path d="M1895.22 347.6h-53c-1.87-12.09-12.32-21.34-24.94-21.34h-24.08c-1.83-12.14-12.3-21.44-24.95-21.44h-17.77c-12.65 0-23.12 9.3-24.95 21.44h-.54c-12.61 0-23.07 9.25-24.94 21.34h-15.51c-8.43 0-15.26 6.83-15.26 15.26s6.83 15.26 15.26 15.26h35.48c1.71 12.28 12.24 21.73 24.99 21.73h117.19c12.75 0 23.28-9.46 24.99-21.73h8.03c8.43 0 15.26-6.83 15.26-15.26s-6.83-15.26-15.26-15.26" class="bw"/><g style="opacity:.8"><path d="M195.12 405.64H26.49v-30.95h168.63z" class="bp"/><path d="m155.99 379.51 1.16 21.13 34.31.06-.18-9.06zm-40.69-.2 1.16 21.13 34.31.06-.18-9.06zm-41.94.2 1.16 21.13 34.3.06-.17-9.06zm-41.35 0 1.16 21.13 34.3.06-.17-9.06z" class="bv" style="clip-path:url(#w)"/></g><path d="M199.08 416.74h-9.62v-47.4h4.65c2.74 0 4.97 2.23 4.97 4.97zm-41.08.06h-9.62v-47.46H158zm-43.52 0h-9.62v-47.46h9.62zm-84.54 0h-9.62v-42.49c0-2.74 2.23-4.97 4.97-4.97h4.65zm41.56 0h-9.62v-47.46h9.62z" class="bi"/><path d="M-.57 655.51h20.89V399.28a4.97 4.97 0 0 1 4.97-4.97h169a4.97 4.97 0 0 1 4.97 4.97v256.23h22.21a4.97 4.97 0 0 1 4.97 4.97v247.53a4.97 4.97 0 0 1-4.97 4.97H-.57a4.97 4.97 0 0 1-4.97-4.97V660.48a4.97 4.97 0 0 1 4.97-4.97" style="stroke-width:0;fill:#f9b74b"/><path d="M132.86 912.96H86.69V865.1h46.17z" class="bq"/><path d="M85.47 865.09h4.8v47.86h-4.8zm43.79.09h4.8v47.86h-4.8z" class="bi"/><path d="M84.22 858.8h50.95c1.1 0 1.99.89 1.99 1.99v5.2H82.23v-5.2c0-1.1.89-1.99 1.99-1.99m7.05-18.31c-.51 0-.93-.93-.93-2.07V689.48c0-1.15.42-2.07.93-2.07h37.14c.51 0 .93.93.93 2.07v148.94c0 1.15-.42 2.07-.93 2.07" class="bi"/><path d="M88.75 835.71h41.07c1.1 0 1.99.89 1.99 1.99v7.7H86.76v-7.7c0-1.1.89-1.99 1.99-1.99m41.65-143.53H89.33c-1.1 0-1.99-.89-1.99-1.99v-7.7h45.05v7.7c0 1.1-.89 1.99-1.99 1.99m24.3 210.99c-.82 0-1.48-1.44-1.48-3.22V668.92c0-1.78.66-3.22 1.48-3.22h59.12c.82 0 1.48 1.44 1.48 3.22v231.03c0 1.78-.66 3.22-1.48 3.22" class="bi"/><rect width="50.89" height="227.31" x="158.88" y="670.42" class="bp" rx="1.99" ry="1.99" transform="rotate(-180 184.33 784.075)"/><g style="clip-path:url(#x)"><path d="M174.93 670.42h1.13v108.54h-1.13zm17.18 0h1.13v108.73h-1.13z" class="bi"/><path d="M157.81 808.75v43.64h-16.56v1.19h16.56v44.23h1.13v-44.23h16v44.23h1.13v-44.23h16v44.23h1.13v-44.23h16.56v-1.19H193.2v-43.64h16.56v-1.19H193.2v-44.23h-1.13v44.23h-16v-44.23h-1.13v44.23h-16v-44.23h-1.13v44.23h-16.56v1.19zm18.26 43.64v-43.64h16v43.64zm-17.13-43.64h16v43.64h-16z" class="bh"/><path d="M209.66 762.16v1.13h-68.33v-1.13z" class="bi"/><path d="m135.25 747.53 91.38 88.69c.74.72 1.34 1.06 1.34.78l.28-17.73-94.05-91.28-.28 17.73c0 .28.59 1.09 1.33 1.81m-6.4 132.08 75.24 74.72c.61.6 1.33-.22 1.63-1.85l18.2-101.17-77.44-76.91-18.2 101.17c-.29 1.62-.04 3.43.57 4.03Z" class="bv"/><path d="M211.53 715.73v1.13H143.2v-1.13z" class="bi"/></g><path d="M120.64 648.25c-.82 0-1.48-1.44-1.48-3.22V414c0-1.78.66-3.22 1.48-3.22h59.12c.82 0 1.48 1.44 1.48 3.22v231.03c0 1.78-.66 3.22-1.48 3.22" class="bi"/><rect width="50.89" height="227.31" x="124.83" y="415.5" class="bp" rx="1.99" ry="1.99" transform="rotate(-180 150.275 529.16)"/><g style="clip-path:url(#y)"><path d="M140.88 415.5h1.13v108.54h-1.13zm17.17 0h1.13v108.73h-1.13z" class="bi"/><path d="M123.76 553.83v43.64H107.2v1.19h16.56v44.23h1.13v-44.23h16v44.23h1.13v-44.23h16v44.23h1.13v-44.23h16.56v-1.19h-16.56v-43.64h16.56v-1.19h-16.56v-44.23h-1.13v44.23h-16v-44.23h-1.13v44.23h-16v-44.23h-1.13v44.23H107.2v1.19zm18.26 43.64v-43.64h16v43.64zm-17.13-43.64h16v43.64h-16z" class="bh"/><path d="M175.61 507.25v1.13h-68.33v-1.13z" class="bi"/><path d="m112.5 580.52 75.81 41.75c.61.34 1.07.46 1.02.27l-2.99-11.67-78.02-42.97 2.99 11.67c.05.19.58.61 1.19.95m-.26 110.75 92.29 52.22c.74.42 1.23-.57 1.08-2.21l-9.14-102.39-94.99-53.75 9.14 102.39c.15 1.64.87 3.31 1.61 3.73Z" class="bv"/><path d="M177.47 460.8v1.13h-68.33v-1.13z" class="bi"/></g><path d="M6.82 903.24c-.82 0-1.48-1.44-1.48-3.22V668.99c0-1.78.66-3.22 1.48-3.22h59.12c.82 0 1.48 1.44 1.48 3.22v231.03c0 1.78-.66 3.22-1.48 3.22" class="bi"/><rect width="50.89" height="227.31" x="11.01" y="670.49" class="bp" rx="1.99" ry="1.99" transform="rotate(-180 36.455 784.145)"/><g style="clip-path:url(#z)"><path d="M27.06 670.49h1.13v108.54h-1.13zm17.17 0h1.13v108.73h-1.13z" class="bi"/><path d="M9.94 808.82v43.64H-6.63v1.19H9.94v44.23h1.13v-44.23h16v44.23h1.13v-44.23h16v44.23h1.13v-44.23h16.56v-1.19H45.33v-43.64h16.56v-1.19H45.33V763.4H44.2v44.23h-16V763.4h-1.13v44.23h-16V763.4H9.94v44.23H-6.63v1.19zm18.26 43.64v-43.64h16v43.64zm-17.13-43.64h16v43.64h-16z" class="bh"/><path d="M61.79 762.23v1.13H-6.54v-1.13z" class="bi"/><path d="m-12.63 747.6 91.38 88.69c.74.72 1.34 1.06 1.34.78l.28-17.73-94.05-91.28-.28 17.73c0 .28.59 1.09 1.33 1.81m-6.39 132.08 75.24 74.72c.61.6 1.33-.22 1.63-1.85l18.2-101.17-77.44-76.9-18.2 101.17c-.29 1.62-.04 3.43.57 4.03" class="bv"/><path d="M63.66 715.79v1.13H-4.67v-1.13z" class="bi"/></g><path d="M38.8 648.25c-.82 0-1.48-1.44-1.48-3.22V414c0-1.78.66-3.22 1.48-3.22h59.12c.82 0 1.48 1.44 1.48 3.22v231.03c0 1.78-.66 3.22-1.48 3.22" class="bi"/><rect width="50.89" height="227.31" x="42.98" y="415.51" class="bp" rx="1.99" ry="1.99" transform="rotate(-180 68.43 529.165)"/><g style="clip-path:url(#aa)"><path d="M59.03 415.51h1.13v108.54h-1.13zm17.18 0h1.13v108.73h-1.13z" class="bi"/><path d="M41.91 553.84v43.64H25.35v1.19h16.56v44.23h1.13v-44.23h16v44.23h1.13v-44.23h16v44.23h1.13v-44.23h16.56v-1.19H77.3v-43.64h16.56v-1.19H77.3v-44.23h-1.13v44.23h-16v-44.23h-1.13v44.23h-16v-44.23h-1.13v44.23H25.35v1.19zm18.26 43.64v-43.64h16v43.64zm-17.13-43.64h16v43.64h-16z" class="bh"/><path d="M93.76 507.25v1.13H25.43v-1.13z" class="bi"/><path d="m30.65 580.53 75.81 41.75c.61.34 1.07.46 1.02.27l-2.99-11.67-78.02-42.97 2.99 11.67c.05.19.58.61 1.19.95m-.26 110.75 92.29 52.22c.74.42 1.23-.57 1.08-2.21l-9.14-102.39-94.99-53.75 9.14 102.39c.15 1.64.87 3.31 1.61 3.73Z" class="bv"/><path d="M95.63 460.82v1.13H27.3v-1.13z" class="bi"/></g><path d="M1715.13 585.95h-53.19v-14.3h53.19z" class="bc"/><path d="m1663.7 569.59-12.2 17.53 27.04 9.49 5.49-7.42zm25.84 3.44-1.49 21.3 28.08-5.72.91-9.19z" class="bv" style="clip-path:url(#ab)"/><rect width="4.29" height="21.9" x="1712.55" y="569.18" class="cq" rx="1.76" ry="1.76" transform="rotate(-180 1714.69 580.135)"/><rect width="4.29" height="21.93" x="1685.9" y="569.18" class="cq" rx="1.76" ry="1.76" transform="rotate(180 1688.04 580.145)"/><rect width="4.29" height="21.93" x="1660.08" y="569.18" class="cn" rx="1.76" ry="1.76"/><path d="M1790.36 584.81h-53.19v-14.3h53.19z" class="bc"/><g style="clip-path:url(#ac)"><path d="m1736.23 571.58-1.48 21.31 28.08-5.73.9-9.18z" class="bv"/><path d="m1766.16 570.18-11.4 18.06 27.44 8.26 5.15-7.66z" class="bv"/></g><rect width="4.29" height="21.9" x="1787.77" y="568.05" class="cn" rx="1.76" ry="1.76"/><rect width="4.29" height="21.93" x="1761.12" y="568.05" class="cq" rx="1.76" ry="1.76" transform="rotate(180 1763.265 579.01)"/><rect width="4.29" height="21.93" x="1735.3" y="568.05" class="cq" rx="1.76" ry="1.76" transform="rotate(-180 1737.445 579.01)"/><path d="M1663.53 582.67h20.51V379.61c0-2.8 2.27-5.08 5.08-5.08h33.54v-41.09c0-2.4 1.95-4.35 4.35-4.35s4.35 1.95 4.35 4.35v41.09h31.69c2.8 0 5.08 2.27 5.08 5.08v203.06h20.51c2.8 0 5.08 2.27 5.08 5.08v348.58c0 2.8-2.27 5.08-5.08 5.08h-125.12a5.08 5.08 0 0 1-5.08-5.08V587.75c0-2.8 2.27-5.08 5.08-5.08Z" class="dc"/><rect width="67.15" height="198.08" x="1693.1" y="382.01" class="cn" rx="5.08" ry="5.08"/><rect width="47.01" height="338.8" x="1735.06" y="592.16" class="cn" rx="5.08" ry="5.08"/><rect width="47.01" height="338.8" x="1671.16" y="592.2" class="cn" rx="5.08" ry="5.08"/><rect width="35.39" height="327.53" x="1677.04" y="597.77" class="az" rx="2.03" ry="2.03" transform="rotate(-180 1694.735 761.54)"/><g style="clip-path:url(#ad)"><path d="M1694.93 952.41h-1.17v-356.2h1.17z" class="cn"/><path d="M1715.77 738.26h-39.22v-1.17h39.22zm0 47.08h-39.22v-1.17h39.22zm0 46.98h-39.22v-1.17h39.22zm0 47.18h-39.22v-1.17h39.22zm-3.26-187.65h-39.22v-1.17h39.22zm1.88-47.1h-39.22v-1.17h39.22z" class="cn"/><path d="m1678.86 948.2 51.44 6.73c.62.64.4-1.19-.49-4.08l.2-126.83-79.35-81.94 24.04 187.76c.89 2.9 3.53 17.72 4.15 18.36Zm-30.01-219.81 76.2 76.92c.61.62 1 .8.85.41l-9-24.67-78.43-79.17 9 24.67c.14.4.76 1.22 1.37 1.84Z" class="bv"/></g><rect width="55.14" height="186.81" x="1699.37" y="387.59" class="az" rx="2.03" ry="2.03" transform="rotate(-180 1726.94 480.99)"/><g style="clip-path:url(#ae)"><path d="M1737.01 601.5h-1.17V245.3h1.17z" class="cn"/><path d="M1757.85 387.35h-60.92v-1.17h60.92z" class="ca"/><path d="M1757.85 434.43h-60.92v-1.17h60.92zm0 46.97h-60.92v-1.17h60.92zm0 47.19h-60.92v-1.17h60.92z" class="cn"/><path d="M1754.59 340.94h-39.22v-1.17h39.22zm1.88-47.11h-39.22v-1.17h39.22z" class="ca"/><path d="M1718.19 575.09h-1.17V374.34h1.17z" class="cn"/><path d="m1705.29 577.88 18.45 14.62c.62.64 18.13 15.43 17.24 12.54l31.48 1.6-79.35-81.94-.87 49.7c.89 2.9 12.44 2.84 13.06 3.48Zm-14.01-66.87 76.2 76.92c.61.62 1 .8.85.41l-9-24.67-78.43-79.17 9 24.67c.14.4.76 1.22 1.37 1.84Z" class="bv"/></g><rect width="35.39" height="327.53" x="1740.91" y="597.81" class="az" rx="2.03" ry="2.03" transform="rotate(-180 1758.605 761.58)"/><g style="clip-path:url(#af)"><path d="M1758.81 952.44h-1.17v-356.2h1.17z" class="cn"/><path d="M1779.64 738.3h-39.22v-1.17h39.22zm0 47.08h-39.22v-1.17h39.22zm0 46.98h-39.22v-1.17h39.22zm0 47.19h-39.22v-1.17h39.22zm-3.26-187.66h-39.22v-1.17h39.22zm1.88-47.1h-39.22v-1.17h39.22z" class="cn"/><path d="m1742.73 948.24 51.44 6.73c.62.64.4-1.19-.49-4.08l.2-126.83-79.35-81.94 24.04 187.76c.89 2.9 3.53 17.72 4.15 18.36Zm-30.01-219.81 76.2 76.92c.61.62 1 .8.85.41l-9-24.67-78.43-79.17 9 24.67c.14.4.76 1.22 1.37 1.84Z" class="bv"/></g><rect width="124.27" height="378.88" x="369.45" y="619" rx="5.18" ry="5.18" style="stroke-width:0;fill:#fca94f"/><rect width="25.69" height="340.82" x="453.98" y="643.86" class="co" rx="5.18" ry="5.18"/><rect width="25.69" height="340.82" x="383.74" y="643.76" class="co" rx="5.18" ry="5.18"/><rect width="25.69" height="340.82" x="418.55" y="629.46" class="co" rx="5.18" ry="5.18"/><rect width="18.05" height="334.09" x="457.92" y="647.33" class="bn" rx="2.07" ry="2.07" transform="rotate(-180 466.945 814.37)"/><g style="clip-path:url(#ag)"><path d="M439.37 789.44h40v1.19h-40zm0 48.02h40v1.19h-40zm0 47.91h40v1.19h-40zm0 48.13h40v1.19h-40zm-3.32-191.4h40v1.19h-40zm1.92-48.05h40v1.19h-40z" class="co"/><path d="m441.73 1004.76 52.47 6.87c.63.65.41-1.21-.5-4.16l.21-129.36-80.94-83.58 24.53 191.51c.91 2.95 3.6 18.08 4.24 18.73Z" class="bv"/></g><rect width="18.05" height="334.09" x="422.46" y="632.66" class="bn" rx="2.07" ry="2.07" transform="rotate(-180 431.485 799.705)"/><g style="clip-path:url(#ah)"><path d="M403.91 774.77h40v1.19h-40zm0 48.02h40v1.19h-40zm0 47.91h40v1.19h-40zm0 48.13h40v1.19h-40zm-3.32-191.4h40v1.19h-40zm1.92-48.04h40v1.19h-40z" class="co"/><path d="m406.27 990.09 52.47 6.87c.63.65.41-1.21-.5-4.16l.21-129.36-80.94-83.58 24.53 191.51c.91 2.95 3.6 18.08 4.24 18.73Z" class="bv"/></g><rect width="18.05" height="334.09" x="387.24" y="646.99" class="bn" rx="2.07" ry="2.07" transform="rotate(-180 396.27 814.035)"/><g style="clip-path:url(#ai)"><path d="M368.7 789.1h40v1.19h-40zm0 48.02h40v1.19h-40zm0 47.92h40v1.19h-40zm0 48.13h40v1.19h-40zm-3.33-191.41h40v1.19h-40zm1.92-48.04h40v1.19h-40z" class="co"/><path d="m371.05 1004.43 52.47 6.87c.63.65.41-1.21-.5-4.16l.21-129.36-80.94-83.58 24.53 191.51c.91 2.95 3.6 18.08 4.24 18.73Z" class="bv"/></g><path d="M270.33 806.02h77.57v11.6h-77.57z" style="fill:#f9cba5;opacity:.8" transform="rotate(-180 309.115 811.82)"/><path d="m310.15 808.77.55 11.21 34.88-.72.46-5.62zm-39.11-.64.54 11.21 34.88-.72.46-5.62z" class="bv" style="clip-path:url(#aj)"/><path d="M349.72 821.78h-4.43v-17.76h.82c1.99 0 3.61 1.62 3.61 3.61v14.16Zm-38.68.02h-4.43v-17.78h4.43zm-39.13 0h-4.43v-14.18c0-1.99 1.62-3.61 3.61-3.61h.82v17.78Zm19.29 0h-4.43v-17.78h4.43zm39.11 0h-4.43v-17.78h4.43z" class="cy"/><path d="M349.8 930.54h-82V818.62c0-2.8 2.28-5.08 5.08-5.08h71.84c2.8 0 5.08 2.28 5.08 5.08z" class="cv"/><rect width="67" height="103" x="274.79" y="820.53" class="cy" rx="5.08" ry="5.08"/><rect width="55.14" height="92.56" x="280.69" y="825.98" class="av" rx="2.03" ry="2.03" transform="rotate(-180 308.26 872.255)"/><g style="clip-path:url(#ak)"><path d="M318.34 1039.89h-1.17v-356.2h1.17z" class="cy"/><path d="M339.17 825.74h-60.92v-1.17h60.92z" class="ca"/><path d="M339.17 872.82h-60.92v-1.17h60.92zm0 46.97h-60.92v-1.17h60.92zm0 47.19h-60.92v-1.17h60.92z" class="cy"/><path d="M335.91 779.33h-39.22v-1.17h39.22zm1.88-47.11h-39.22v-1.17h39.22z" class="ca"/><path d="M299.52 1013.48h-1.17V812.73h1.17z" class="cy"/><path d="m292.61 930.27 18.45 14.62c.62.64 18.13 15.43 17.24 12.54l31.48 1.6-79.35-81.94-.87 49.7c.89 2.9 12.44 2.84 13.06 3.48Zm-14-66.87 76.2 76.92c.61.62 1 .8.85.41l-9-24.67-78.43-79.17 9 24.67c.14.4.76 1.22 1.37 1.84Z" class="bv"/></g><rect width="93" height="10.16" x="262.01" y="930.21" class="cy" rx="5.08" ry="5.08"/><rect width="109.92" height="10.16" x="252.88" y="935.33" class="cy" rx="5.08" ry="5.08"/><path d="M1480.93 807.31h111.55v21.14h-111.55z" style="fill:#fee6c5;opacity:.8" transform="rotate(-180 1536.71 817.885)"/><g style="clip-path:url(#al)"><path d="m1314.6 813.16 1.38 21.14 53.21-1.14v-13.67zm111.65-.15 1.37 21.14 53.22-1.14v-13.67z" class="bv"/><path d="m1367.24 813.01 1.37 21.14 53.22-1.14v-13.67z" class="bv"/></g><path d="M1599.77 837.05h-7.29v-32.38h3.95a3.34 3.34 0 0 1 3.34 3.34v29.05Zm-58.54.04h-6.75v-32.42h6.75zm-57.75 0h-6V808a3.34 3.34 0 0 1 3.34-3.34h2.66v32.42Z" class="bx"/><rect width="123" height="164" x="1476.78" y="811.66" class="by" rx="5.08" ry="5.08" transform="rotate(-180 1538.275 893.665)"/><rect width="49.33" height="108.06" x="1484.45" y="819.66" class="bx" rx="5.08" ry="5.08"/><rect width="36.06" height="96.15" x="1490.72" y="825.66" class="bj" rx="2.03" ry="2.03" transform="rotate(-180 1508.745 873.74)"/><g style="clip-path:url(#am)"><path d="M1549.2 728.06h-60.92v-1.21h60.92z" class="ct"/><path d="M1549.2 776.83h-60.92v-1.21h60.92zm0 97.54h-60.92v-1.21h60.92z" class="bx"/><path d="M1545.94 679.99h-39.22v-1.21h39.22zm1.88-48.8h-39.22v-1.21h39.22z" class="ct"/><path d="M1509.54 922.54h-1.17V714.59h1.17z" class="bx"/><path d="m1496.64 925.43 18.45 15.15c.62.66 18.13 15.99 17.24 12.99l31.48 1.66-79.35-84.88-.87 51.48c.89 3 12.44 2.94 13.06 3.61Zm-14.01-69.27 76.2 79.68c.61.64 1 .83.85.42l-9-25.55-78.43-82.01 9 25.55c.14.41.76 1.26 1.37 1.9Z" class="bv"/><path d="M1547.07 1038.65h-1.17V669.66h1.17zm38.21-88.72h-1.17V580.94h1.17z" class="bx"/></g><rect width="49.33" height="108.06" x="1541.2" y="819.66" class="bx" rx="5.08" ry="5.08"/><rect width="36.06" height="96.15" x="1547.47" y="825.66" class="bj" rx="2.03" ry="2.03" transform="rotate(-180 1565.505 873.74)"/><g style="clip-path:url(#an)"><path d="M1605.95 728.06h-60.92v-1.21h60.92z" class="ct"/><path d="M1605.95 776.83h-60.92v-1.21h60.92zm0 97.54h-60.92v-1.21h60.92z" class="bx"/><path d="M1602.7 679.99h-39.22v-1.21h39.22zm1.88-48.8h-39.22v-1.21h39.22z" class="ct"/><path d="M1566.29 922.54h-1.17V714.59h1.17z" class="bx"/><path d="m1553.39 925.43 18.45 15.15c.62.66 18.13 15.99 17.24 12.99l31.48 1.66-79.35-84.88-.87 51.48c.89 3 12.44 2.94 13.06 3.61Zm-14-69.27 76.2 79.68c.61.64 1 .83.85.42l-9-25.55-78.43-82.01 9 25.55c.14.41.76 1.26 1.37 1.9Z" class="bv"/><path d="M1603.83 1038.65h-1.17V669.66h1.17zm38.2-88.72h-1.17V580.94h1.17z" class="bx"/></g><path d="M1555.08 975.52h-33.85v-36.18h33.85z" class="bl"/><path d="M1555.05 940.2h4.78v38.39h-4.78zm-38.6-.87h4.78v38.39h-4.78zm-3.89-1.85h51.21c1.13 0 2.05-.92 2.05-2.05v-2.04h-55.32v2.04c0 1.13.92 2.05 2.05 2.05Z" class="bx"/><path d="M1515.33 941.18h45.73c1.13 0 2.05-.92 2.05-2.05v-2.04h-49.83v2.04c0 1.13.92 2.05 2.05 2.05m48.42 37.78h-51.21c-1.13 0-2.05.92-2.05 2.05v2.04h55.32v-2.04c0-1.13-.92-2.05-2.05-2.05Z" class="bx"/><path d="M1560.98 975.67h-45.73c-1.13 0-2.05.92-2.05 2.05v2.04h49.83v-2.04c0-1.13-.92-2.05-2.05-2.05" class="bx"/><path d="M556.08 753.32h-11.45c-1.12-9.71-9.65-17.52-20.59-19.11-1.16-10.51-10.96-18.81-23.15-19.47-1.03-11.11-11.71-19.84-24.75-19.84h-25.8c-13.03 0-23.71 8.72-24.75 19.82-12.27.48-22.23 8.71-23.55 19.19h-14.01c-12.87 0-23.45 8.51-24.72 19.41h-9.29c-8.3 0-15.02 5.85-15.02 13.06 0 7.22 6.73 13.06 15.02 13.06h28.75c1.68 10.51 12.05 18.6 24.6 18.6h95.24c12.55 0 22.92-8.09 24.6-18.6h28.87c8.3 0 15.02-5.85 15.02-13.06 0-7.22-6.73-13.06-15.02-13.06m1054.38-106.56h10.13v-.74c0-10.04 8.14-18.18 18.18-18.18h96.4c10.04 0 18.18 8.14 18.18 18.18v.74h24.71c6.47 0 11.72 5.25 11.72 11.72v4.25c0 6.47-5.25 11.72-11.72 11.72h-1.67c-1.16 9.59-9.31 17.03-19.22 17.03h-103.26c-9.9 0-18.06-7.44-19.22-17.03h-24.22c-6.47 0-11.72-5.25-11.72-11.72v-4.25c0-6.47 5.25-11.72 11.72-11.72Z" class="bw"/><path d="M1141.2 893.01H779.11c0-19.2 15.58-34.78 34.78-34.78h292.53c19.2 0 34.78 15.58 34.78 34.78" class="cf"/><path d="M1252.76 923.21H663.64c0-19.2 15.58-34.78 34.78-34.78h519.56c19.2 0 34.78 15.58 34.78 34.78" class="cf"/><rect width="972.76" height="42.07" x="470.9" y="951.28" class="cf" rx="21.03" ry="21.03" transform="rotate(-180 957.28 972.31)"/><path d="M1351.66 954.31H564.67c0-19.2 15.58-34.78 34.78-34.78h717.43c19.2 0 34.78 15.58 34.78 34.78m-825.17 33.61h865c0 19.2-15.58 34.78-34.78 34.78H561.27c-19.2 0-34.78-15.58-34.78-34.78" class="cf"/><path d="M606.49 1017.28h702c0 19.2-15.58 34.78-34.78 34.78H641.27c-19.2 0-34.78-15.58-34.78-34.78" class="cf"/><path d="M712.77 1047.59h502.72c0 19.2-15.58 34.78-34.78 34.78H747.55c-19.2 0-34.78-15.58-34.78-34.78" class="cf"/><path d="m619.76 1058.28-787.54-1c-12 0-21.73-10.26-21.73-22.91s9.73-22.91 21.73-22.91l787.54 1c12 0 21.73 10.26 21.73 22.91s-9.73 22.91-21.73 22.91m-206.8-78.97-497.18-1c-.29 0-.53-.24-.53-.53 0-20.63 16.73-37.36 37.36-37.36l423.52 1c20.63 0 37.36 16.73 37.36 37.36 0 .29-.24.53-.53.53" class="cg"/><path d="m257.49 947.51-266.6-1v-3.68c0-18.89 15.31-34.2 34.2-34.2l198.2 1c18.89 0 34.2 15.31 34.2 34.2zm-337 109.71 582 1c0 20.92-16.96 37.87-37.87 37.87l-506.25-1c-20.92 0-37.87-16.96-37.87-37.87Zm633.47-44.84-701.94-1c-.29 0-.53-.24-.53-.53 0-20.63 16.73-37.36 37.36-37.36l628.29 1c20.63 0 37.36 16.73 37.36 37.36 0 .29-.24.53-.53.53Z" class="cg"/><path d="m-300.04 1089.7 582 1c0 20.92-16.96 37.87-37.87 37.87l-506.25-1c-20.92 0-37.87-16.96-37.87-37.87Z" class="cg"/><path d="M913.58 651.08h4.36V537.36c0-2.83 2.3-5.13 5.13-5.13h31.75c-.24-.59-.37-1.23-.37-1.9v-60.1c0-2.83 2.3-5.13 5.13-5.13s5.13 2.3 5.13 5.13v60.1c0 .67-.14 1.31-.37 1.9h32.36c2.83 0 5.13 2.3 5.13 5.13v113.72h4.05c2.83 0 5.13 2.3 5.13 5.13v205.44c0 2.83-2.3 5.13-5.13 5.13h-92.27c-2.83 0-5.13-2.3-5.13-5.13V656.21c0-2.83 2.3-5.13 5.13-5.13Z" class="cx"/><path d="M976.59 866.07h-33.11v-36.18h33.11z" class="be"/><path d="M976.56 830.76h4.67v38.39h-4.67zm-37.75-.87h4.67v38.39h-4.67zm-20.14-11.28c-1.13 0-2.05-.96-2.05-2.15V661.98c0-1.19.92-2.15 2.05-2.15h82.11c1.13 0 2.05.96 2.05 2.15v154.48c0 1.19-.92 2.15-2.05 2.15m-65.73 9.43h50c1.13 0 2.05-.92 2.05-2.05v-2.04H933v2.04c0 1.13.92 2.05 2.05 2.05" class="bs"/><path d="M937.76 831.74h44.64c1.13 0 2.05-.92 2.05-2.05v-2.04h-48.74v2.04c0 1.13.92 2.05 2.05 2.05m47.26 37.78h-50c-1.13 0-2.05.92-2.05 2.05v2.04h54.1v-2.04c0-1.13-.92-2.05-2.05-2.05" class="bs"/><path d="M982.32 866.23h-44.64c-1.13 0-2.05.92-2.05 2.05v2.04h48.74v-2.04c0-1.13-.92-2.05-2.05-2.05m-54.78-216.95c-.88 0-1.6-.66-1.6-1.47V542.36c0-.81.72-1.47 1.6-1.47h64.06c.88 0 1.6.66 1.6 1.47v105.45c0 .81-.72 1.47-1.6 1.47z" class="bs"/><rect width="55.16" height="97.04" x="932.29" y="546.01" class="be" rx="2.05" ry="2.05" transform="rotate(-180 959.87 594.525)"/><rect width="74.44" height="145.98" x="922.45" y="665.87" rx="2.05" ry="2.05" style="fill:#f9bea5" transform="rotate(-180 959.67 738.86)"/><path d="m875.76 833.03 110.06 60.31c.89.49 1.95-.18 2.38-1.49l26.63-81.65-113.28-62.07-26.63 81.65c-.43 1.31-.05 2.76.83 3.25Zm33.33-89.99 110.29 59.06c.89.48 1.61.71 1.62.52l.34-11.8-113.51-60.78-.34 11.8c0 .19.71.73 1.6 1.2" class="bv" style="clip-path:url(#ao)"/><path d="M940.44 715.19v47.41h-17.99v1.29h17.99v48.05h1.23v-48.05h17.38v48.05h1.23v-48.05h17.38v48.05h1.23v-48.05h17.99v-1.29h-17.99v-47.41h17.99v-1.29h-17.99v-48.05h-1.23v48.05h-17.38v-48.05h-1.23v48.05h-17.38v-48.05h-1.23v48.05h-17.99v1.29zm19.84 47.41v-47.41h17.38v47.41zm-18.61-47.41h17.38v47.41h-17.38z" style="fill:#d14242"/><path d="m871.1 830.56 110.06 60.31c.89.49 1.95-.18 2.38-1.49l26.63-81.65-113.28-62.07-26.63 81.65c-.43 1.31-.05 2.76.83 3.25Zm33.34-89.98 110.29 59.06c.89.48 1.61.71 1.62.52l.34-11.8-113.51-60.78-.34 11.8c0 .19.71.73 1.6 1.2" class="bv" style="clip-path:url(#ap)"/><path d="M969.49 642.83h-1.23V595.5h-17.38v47.33h-1.23V595.5h-17.36v-1.3h17.36v-48.05h1.23v48.05h17.38v-48.05h1.23v48.05h17.99v1.3h-17.99z" class="bs"/><path d="M972.48 887.6v-2.02c0-1.13-.92-2.05-2.05-2.05h-34.9c-1.13 0-2.05.92-2.05 2.05v4.06c0 1.13.92 2.05 2.05 2.05h34.9c1.13 0 2.05-.92 2.05-2.05z" class="cx"/><path d="M986.73 905.87v-2.02c0-1.13-.92-2.05-2.05-2.05h-34.9c-1.13 0-2.05.92-2.05 2.05v4.06c0 1.13.92 2.05 2.05 2.05h34.9c1.13 0 2.05-.92 2.05-2.05z" class="db"/><path d="M971.73 924.79v-2.02c0-1.13-.92-2.05-2.05-2.05h-34.9c-1.13 0-2.05.92-2.05 2.05v4.06c0 1.13.92 2.05 2.05 2.05h34.9c1.13 0 2.05-.92 2.05-2.05z" class="cv"/><path d="M986.52 942.6v-2.02c0-1.13-.92-2.05-2.05-2.05h-34.9c-1.13 0-2.05.92-2.05 2.05v4.06c0 1.13.92 2.05 2.05 2.05h34.9c1.13 0 2.05-.92 2.05-2.05z" class="by"/><path d="M420.49 111.08h16.23v1.93h-16.23z" class="cu"/><path d="m423.69 118.612 8.115-14.055 1.672.965-8.115 14.055z" class="cu"/><path d="m425.36 104.558 8.115 14.055-1.672.965-8.115-14.055zm-137.6 83.122h16.23v1.93h-16.23z" class="cu"/><path d="m290.963 195.21 8.115-14.056 1.671.965-8.115 14.056z" class="cu"/><path d="m292.637 181.15 8.115 14.056-1.671.965-8.115-14.056zm919.823-86.641-12.715-10.086 1.2-1.512 12.715 10.086z" class="cu"/><path d="m1214.554 86.604-15.092 5.97-.71-1.795 15.092-5.97z" class="cu"/><path d="m1204.597 96.664 2.376-16.055 1.91.282-2.377 16.055zM637.45 81.285l-12.716-10.086 1.2-1.512 12.715 10.085z" class="cu"/><path d="m639.58 73.375-15.093 5.969-.71-1.795 15.093-5.97z" class="cu"/><path d="m629.585 83.408 2.376-16.056 1.91.283-2.377 16.055zM622.24 332.65h-6.45l3.21-5.56-1.67-.97-3.22 5.59-3.23-5.59-1.67.97 3.22 5.56h-6.42v1.93h6.44l-3.24 5.6 1.67.97 3.23-5.59 3.22 5.59 1.67-.97-3.23-5.6h6.47zm205.04-316.4h16.23v1.93h-16.23z" class="cu"/><path d="m830.48 23.787 8.115-14.056 1.672.965-8.115 14.056z" class="cu"/><path d="m832.15 9.723 8.115 14.056-1.672.965-8.115-14.056zM218.28 264.25h16.23v1.93h-16.23z" class="cu"/><path d="m221.485 271.786 8.115-14.055 1.671.965-8.115 14.055z" class="cu"/><path d="m223.155 257.724 8.115 14.055-1.671.965-8.115-14.055zM1289.26 334.49h16.23v1.93h-16.23z" class="cu"/><path d="m1292.47 342.022 8.114-14.056 1.672.965-8.115 14.056z" class="cu"/><path d="m1294.14 327.968 8.116 14.056-1.672.965-8.115-14.056zm92.4-144.878h16.23v1.93h-16.23z" class="cu"/><path d="m1389.738 190.623 8.115-14.055 1.671.965-8.115 14.055z" class="cu"/><path d="m1391.412 176.567 8.115 14.055-1.671.965-8.115-14.055zM22.54 223.09h16.23v1.93H22.54z" class="cu"/><path d="m25.739 230.622 8.115-14.055 1.671.965-8.115 14.055z" class="cu"/><path d="m27.411 216.568 8.115 14.055-1.671.965-8.115-14.055zM1880.47 277.58h16.23v1.93h-16.23z" class="cu"/><path d="m1883.674 285.113 8.115-14.056 1.671.965-8.115 14.056z" class="cu"/><path d="m1885.346 271.057 8.115 14.056-1.671.965-8.115-14.056zM1706.74 244.18h16.23v1.93h-16.23z" class="cu"/><path d="m1709.943 251.707 8.115-14.055 1.672.965-8.115 14.055z" class="cu"/><path d="m1711.617 237.653 8.115 14.055-1.672.965-8.115-14.055zM1524.74 112.18h16.23v1.93h-16.23z" class="cu"/><path d="m1527.938 119.714 8.115-14.056 1.671.965-8.115 14.056z" class="cu"/><path d="m1529.612 105.656 8.115 14.056-1.671.965-8.115-14.056zM1002.99 35.08h16.23v1.93h-16.23z" class="cu"/><path d="m1006.197 42.604 8.115-14.056 1.672.965-8.115 14.056z" class="cu"/><path d="m1007.873 28.556 8.115 14.056-1.672.965-8.115-14.056zM472.26 249.68h16.23v1.93h-16.23z" class="cu"/><path d="m475.472 257.21 8.115-14.056 1.671.965-8.115 14.056z" class="cu"/><path d="m477.138 243.16 8.115 14.056-1.671.965-8.115-14.056zm994.122 49.52h16.23v1.93h-16.23z" class="cu"/><path d="m1474.47 300.21 8.116-14.055 1.671.965-8.115 14.055z" class="cu"/><path d="m1476.14 286.16 8.114 14.055-1.671.965-8.115-14.055zM807.56 409.58h16.23v1.93h-16.23z" class="cu"/><path d="m810.764 417.12 8.115-14.056 1.671.965-8.115 14.056z" class="cu"/><path d="m812.436 403.05 8.115 14.056-1.671.965-8.115-14.056zm246.984-14.51h16.23v1.93h-16.23z" class="cu"/><path d="m1062.623 396.073 8.115-14.056 1.671.965-8.115 14.056z" class="cu"/><path d="m1064.297 382.007 8.115 14.056-1.671.965-8.115-14.056zM1316.24 9.33h16.23v1.93h-16.23z" class="cu"/><path d="m1319.447 16.855 8.115-14.056 1.672.965-8.115 14.056z" class="cu"/><path d="m1321.113 2.805 8.115 14.056-1.672.965-8.115-14.056z" class="cu"/><rect width="596.2" height="45.81" x="1316.2" y="1119.98" class="cc" rx="22.91" ry="22.91" transform="rotate(-180 1614.305 1142.89)"/><path d="M1863.95 1123.82h-468.21c-.29 0-.53-.24-.53-.53 0-20.62 16.74-37.36 37.36-37.36h394.56c20.62 0 37.36 16.74 37.36 37.36 0 .29-.24.53-.53.53Z" class="cc"/><path d="M1809.84 1088.03h-313.02v-3.68c0-18.87 15.32-34.2 34.2-34.2h244.63c18.87 0 34.2 15.32 34.2 34.2v3.68Zm-367.64 77.7h364.75c0 20.9-16.97 37.87-37.87 37.87h-289c-20.9 0-37.87-16.97-37.87-37.87Z" class="cc"/><path d="m1302.74 1057.22 787.54-1c12 0 21.73-10.26 21.73-22.91s-9.73-22.91-21.73-22.91l-787.54 1c-12 0-21.73 10.26-21.73 22.91s9.73 22.91 21.73 22.91m262.22-78.97 441.82-1c.26 0 .47-.24.47-.53 0-20.63-14.86-37.36-33.2-37.36l-376.37 1c-18.33 0-33.2 16.73-33.2 37.36 0 .29.21.53.47.53Z" class="ck"/><path d="m1716.49 946.45 215.13-1v-3.68c0-18.89-12.35-34.2-27.59-34.2l-159.94 1c-15.24 0-27.59 15.31-27.59 34.2v3.68Zm285.52 109.71-582 1c0 20.92 16.96 37.87 37.87 37.87l506.25-1c20.92 0 37.87-16.96 37.87-37.87Zm-633.47-44.84 701.94-1c.29 0 .53-.24.53-.53 0-20.63-16.73-37.36-37.36-37.36l-628.29 1c-20.63 0-37.36 16.73-37.36 37.36 0 .29.24.53.53.53Z" class="ck"/><path d="m2222.54 1088.64-582 1c0 20.92 16.96 37.87 37.87 37.87l506.25-1c20.92 0 37.87-16.96 37.87-37.87Z" class="ck"/></g></svg>