<svg xmlns="http://www.w3.org/2000/svg" width="1920" height="319"><defs><style>.k{fill:#1b5070}.k,.m,.n{stroke-width:0}.m{fill:#16677b}.n{fill:#155f7c}</style></defs><g id="d"><path d="M-.5 0h1920v319H-.5z" style="stroke-width:0;fill:#112f49"/><rect width="1989.05" height="45.81" x="-26.55" y="109.44" class="k" rx="22.91" ry="22.91"/><path d="M51.74 38.4h178.41c20.62 0 37.36 16.74 37.36 37.36 0 .29-.24.53-.53.53H14.91c-.29 0-.53-.24-.53-.53 0-20.62 16.74-37.36 37.36-37.36" class="k"/><path d="M10.65 72.47h350.5c20.62 0 37.36 16.74 37.36 37.36 0 .29-.24.53-.53.53H-26.18c-.29 0-.53-.24-.53-.53 0-20.62 16.74-37.36 37.36-37.36m517.21-.32h329.97c20.62 0 37.36 16.74 37.36 37.36 0 .29-.24.53-.53.53H491.04c-.29 0-.53-.24-.53-.53 0-20.62 16.74-37.36 37.36-37.36Z" class="k"/><path d="M596.86 34.49h205.81c20.62 0 37.36 16.74 37.36 37.36 0 .29-.24.53-.53.53H560.04c-.29 0-.53-.24-.53-.53 0-20.62 16.74-37.36 37.36-37.36Zm320 38.22h530.29c20.62 0 37.36 16.74 37.36 37.36 0 .29-.24.53-.53.53H880.04c-.29 0-.53-.24-.53-.53 0-20.62 16.74-37.36 37.36-37.36Zm870.19-36.67h332.09c20.62 0 37.36 16.74 37.36 37.36 0 .29-.24.53-.53.53h-405.75c-.29 0-.53-.24-.53-.53 0-20.62 16.74-37.36 37.36-37.36" class="k"/><path d="M1659.73 72.57h298.41c20.62 0 37.36 16.74 37.36 37.36 0 .29-.24.53-.53.53h-372.06c-.29 0-.53-.24-.53-.53 0-20.62 16.74-37.36 37.36-37.36Zm-654.87-36.81h381.29c20.62 0 37.36 16.74 37.36 37.36 0 .29-.24.53-.53.53H968.04c-.29 0-.53-.24-.53-.53 0-20.62 16.74-37.36 37.36-37.36Z" class="k"/><path d="M1171.86.76h150.09c20.62 0 37.36 16.74 37.36 37.36 0 .29-.24.53-.53.53h-223.74c-.29 0-.53-.24-.53-.53 0-20.62 16.74-37.36 37.36-37.36Z" class="k"/><rect width="1989.05" height="45.81" x="-26.91" y="143.22" class="k" rx="22.91" ry="22.91"/></g><g id="e"><rect width="1989.05" height="45.81" x="-17.55" y="177.44" class="n" rx="22.91" ry="22.91"/><path d="M313.86 106.4h217.29c20.62 0 37.36 16.74 37.36 37.36 0 .29-.24.53-.53.53H277.04c-.29 0-.53-.24-.53-.53 0-20.62 16.74-37.36 37.36-37.36Z" class="n"/><path d="M241.65 139.47h350.5c20.62 0 37.36 16.74 37.36 37.36 0 .29-.24.53-.53.53H204.82c-.29 0-.53-.24-.53-.53 0-20.62 16.74-37.36 37.36-37.36m-237.79.68h90.97c20.62 0 37.36 16.74 37.36 37.36 0 .29-.24.53-.53.53H-32.97c-.29 0-.53-.24-.53-.53 0-20.62 16.74-37.36 37.36-37.36" class="n"/><path d="M-29.14 106.49h86.28c20.62 0 37.36 16.74 37.36 37.36 0 .29-.24.53-.53.53H-65.97c-.29 0-.53-.24-.53-.53 0-20.62 16.74-37.36 37.36-37.36m790 33.22h369.29c20.62 0 37.36 16.74 37.36 37.36 0 .29-.24.53-.53.53H724.04c-.29 0-.53-.24-.53-.53 0-20.62 16.74-37.36 37.36-37.36Zm769.19-36.67h291.09c20.62 0 37.36 16.74 37.36 37.36 0 .29-.24.53-.53.53h-364.75c-.29 0-.53-.24-.53-.53 0-20.62 16.74-37.36 37.36-37.36" class="n"/><path d="M1453.73 140.57h406.41c20.62 0 37.36 16.74 37.36 37.36 0 .29-.24.53-.53.53h-480.06c-.29 0-.53-.24-.53-.53 0-20.62 16.74-37.36 37.36-37.36Zm-614.87-37.81h150.09c20.62 0 37.36 16.74 37.36 37.36 0 .29-.24.53-.53.53H802.04c-.29 0-.53-.24-.53-.53 0-20.62 16.74-37.36 37.36-37.36Zm395 44.04h102.29c20.62 0 37.36 16.74 37.36 37.36 0 .29-.24.53-.53.53h-175.94c-.29 0-.53-.24-.53-.53 0-20.62 16.74-37.36 37.36-37.36Z" class="n"/><rect width="1989.05" height="45.81" x="-13.15" y="215.45" class="n" rx="22.91" ry="22.91"/><rect width="1989.05" height="45.81" x="-28.42" y="242.39" class="n" rx="22.91" ry="22.91"/></g><g id="h"><rect width="2029.11" height="45.81" x="-48.5" y="273.57" class="m" rx="22.91" ry="22.91"/><path d="M453.76 236.59h371.38c20.62 0 37.36 16.74 37.36 37.36 0 .29-.24.53-.53.53H416.93c-.29 0-.53-.24-.53-.53 0-20.62 16.74-37.36 37.36-37.36m-263.9-.32h174.08c20.62 0 37.36 16.74 37.36 37.36 0 .29-.24.53-.53.53H153.03c-.29 0-.53-.24-.53-.53 0-20.62 16.74-37.36 37.36-37.36" class="m"/><path d="M248.86 206.61h61.4c20.62 0 37.36 16.74 37.36 37.36 0 .29-.24.53-.53.53H212.04c-.29 0-.53-.24-.53-.53 0-20.62 16.74-37.36 37.36-37.36Zm1273 29.08h367.4c20.62 0 37.36 16.74 37.36 37.36 0 .29-.24.53-.53.53h-441.05c-.29 0-.53-.24-.53-.53 0-20.62 16.74-37.36 37.36-37.36Zm-897.89-59.81h53.17c20.62 0 37.36 16.74 37.36 37.36 0 .29-.24.53-.53.53H587.14c-.29 0-.53-.24-.53-.53 0-20.62 16.74-37.36 37.36-37.36m681 60.04h48.89c20.62 0 37.36 16.74 37.36 37.36 0 .29-.24.53-.53.53h-122.54c-.29 0-.53-.24-.53-.53 0-20.62 16.74-37.36 37.36-37.36Z" class="m"/><path d="M541.97 203.52h217.29c20.62 0 37.36 16.74 37.36 37.36 0 .29-.24.53-.53.53H505.15c-.29 0-.53-.24-.53-.53 0-20.62 16.74-37.36 37.36-37.36Zm422.89 32.31h414.29c20.62 0 37.36 16.74 37.36 37.36 0 .29-.24.53-.53.53H928.04c-.29 0-.53-.24-.53-.53 0-20.62 16.74-37.36 37.36-37.36Zm617-37.67h248.4c20.62 0 37.36 16.74 37.36 37.36 0 .29-.24.53-.53.53h-322.05c-.29 0-.53-.24-.53-.53 0-20.62 16.74-37.36 37.36-37.36Zm-1695.75 38.2H60.19c20.62 0 37.36 16.74 37.36 37.36 0 .29-.24.53-.53.53h-247.74c-.29 0-.53-.24-.53-.53 0-20.62 16.74-37.36 37.36-37.36" class="m"/><path d="M1236.86 199.41h99.29c20.62 0 37.36 16.74 37.36 37.36 0 .29-.24.53-.53.53h-172.94c-.29 0-.53-.24-.53-.53 0-20.62 16.74-37.36 37.36-37.36Zm-233 .38h106.29c20.62 0 37.36 16.74 37.36 37.36 0 .29-.24.53-.53.53H967.04c-.29 0-.53-.24-.53-.53 0-20.62 16.74-37.36 37.36-37.36Z" class="m"/><path d="M1043.64 165.9h11.5c20.62 0 37.36 16.74 37.36 37.36 0 .29-.24.53-.53.53h-85.16c-.29 0-.53-.24-.53-.53 0-20.62 16.74-37.36 37.36-37.36m-1210.28 32.52H7.44c20.62 0 37.36 16.74 37.36 37.36 0 .29-.24.53-.53.53h-247.74c-.29 0-.53-.24-.53-.53 0-20.62 16.74-37.36 37.36-37.36" class="m"/></g></svg>