<svg xmlns="http://www.w3.org/2000/svg" id="i" width="1922" height="255"><defs><style>.k{fill:#ffdb92;stroke-width:0}</style></defs><path d="M456.4 21.81h16.23v1.93H456.4z" class="k"/><path d="m459.605 29.348 8.115-14.055 1.672.965-8.115 14.055z" class="k"/><path d="m461.275 15.282 8.115 14.055-1.672.965-8.115-14.055zM323.67 98.41h16.23v1.93h-16.23z" class="k"/><path d="m326.868 105.946 8.115-14.056 1.671.965-8.115 14.056z" class="k"/><path d="m328.552 91.884 8.115 14.056-1.671.965-8.115-14.056zm1041.823-61.656-12.716-10.086 1.2-1.512 12.716 10.086z" class="k"/><path d="m1372.468 22.319-15.093 5.97-.71-1.795 15.093-5.97z" class="k"/><path d="m1362.532 32.396 2.377-16.055 1.909.283-2.377 16.055zM158.34 47.041l-12.716-10.086 1.2-1.512 12.715 10.086z" class="k"/><path d="m160.503 39.147-15.092 5.97-.71-1.795 15.092-5.97z" class="k"/><path d="m150.473 49.136 2.377-16.056 1.909.283-2.377 16.055zM716.16 210.38h-6.46l3.22-5.56-1.67-.96-3.23 5.58-3.22-5.58-1.67.96 3.21 5.56h-6.42v1.93h6.44l-3.23 5.61 1.67.96 3.22-5.58 3.23 5.58 1.67-.96-3.24-5.61h6.48zm-72.97-156.4h16.23v1.93h-16.23z" class="k"/><path d="m646.395 61.51 8.115-14.056 1.672.965-8.115 14.056z" class="k"/><path d="m648.075 47.46 8.115 14.056-1.672.965-8.115-14.056zM254.19 174.98h16.23v1.93h-16.23z" class="k"/><path d="m257.394 182.514 8.115-14.056 1.672.965-8.115 14.056z" class="k"/><path d="m259.076 168.456 8.115 14.056-1.672.965-8.115-14.056zm942.104 27.774h16.23v1.93h-16.23z" class="k"/><path d="m1204.379 203.755 8.115-14.056 1.671.965-8.115 14.056z" class="k"/><path d="m1206.061 189.695 8.115 14.056-1.671.965-8.115-14.056zm281.389-61.875h16.23v1.93h-16.23z" class="k"/><path d="m1490.648 135.358 8.115-14.056 1.671.965-8.115 14.056z" class="k"/><path d="m1492.332 121.292 8.115 14.056-1.671.965-8.115-14.056zM58.45 133.82h16.23v1.93H58.45z" class="k"/><path d="m61.654 141.358 8.115-14.055 1.671.965-8.115 14.055z" class="k"/><path d="m63.326 127.292 8.115 14.055-1.671.965-8.115-14.055zM1874.38 37.32h16.23v1.93h-16.23z" class="k"/><path d="m1877.587 44.847 8.115-14.056 1.672.965-8.115 14.056z" class="k"/><path d="m1879.253 30.793 8.115 14.056-1.672.965-8.115-14.056zM1719.65 126.92h16.23v1.93h-16.23z" class="k"/><path d="m1722.85 134.442 8.115-14.056 1.671.965-8.115 14.056z" class="k"/><path d="m1724.53 120.388 8.115 14.056-1.671.965-8.115-14.056zM1560.65 22.92h16.23v1.93h-16.23z" class="k"/><path d="m1563.853 30.45 8.115-14.056 1.671.965-8.115 14.056z" class="k"/><path d="m1565.527 16.38 8.115 14.056-1.671.965-8.115-14.056zM1124.91 54.81h16.23v1.93h-16.23z" class="k"/><path d="m1128.11 62.342 8.114-14.056 1.672.965-8.115 14.056z" class="k"/><path d="m1129.79 48.288 8.116 14.056-1.672.965-8.115-14.056zM508.18 160.41h16.23v1.93h-16.23z" class="k"/><path d="m511.386 167.946 8.115-14.056 1.672.965-8.115 14.056z" class="k"/><path d="m513.054 153.884 8.115 14.056-1.672.965-8.115-14.056zM1608.18 217.41h16.23v1.93h-16.23z" class="k"/><path d="m1611.38 224.948 8.115-14.056 1.671.965-8.115 14.056z" class="k"/><path d="m1613.06 210.882 8.115 14.056-1.671.965-8.115-14.056zm-625.58-6.562h16.23v1.93h-16.23z" class="k"/><path d="m990.675 211.84 8.115-14.056 1.671.965-8.115 14.056z" class="k"/><path d="m992.355 197.79 8.115 14.056-1.671.965-8.115-14.056zm858.975 19.48h16.23v1.93h-16.23z" class="k"/><path d="m1854.534 224.804 8.115-14.056 1.671.965-8.115 14.056z" class="k"/><path d="m1856.206 210.736 8.115 14.056-1.671.965-8.115-14.056z" class="k"/></svg>